<svg width="1929" height="715" viewBox="0 0 1929 715" fill="none" xmlns="http://www.w3.org/2000/svg">
<path d="M105.16 485.141C135.42 489.491 165.02 497.531 195.16 502.691C239.83 510.331 285.31 511.561 330.61 512.771C464.54 516.361 598.46 519.941 732.39 523.531C847.72 526.621 963.06 529.711 1078.39 532.801C1162.17 535.041 1245.95 537.291 1329.73 539.531C1344.78 539.931 1361.13 539.941 1373.12 530.831C1385.16 521.681 1389.5 505.851 1397.48 493.001C1425.74 447.491 1490.68 447.451 1544.06 451.981C1700 465.211 1856.52 471.571 2013.02 471.031C2004.42 578.171 1996.59 668.131 1991.01 742.011C1989.83 757.711 1987.73 786.131 1968.01 811.011C1935.55 851.961 1877.19 855.731 1852.01 857.011C1631.83 868.211 895.85 873.811 735.63 877.221C735.63 877.221 305.77 886.371 39.0099 843.011C21.6399 840.191 -23.4001 829.941 -61.9901 820.011C-99.0801 810.461 -102.18 808.421 -104.99 806.011C-127.13 787.031 -116.21 758.341 -106.15 621.801C-103.91 591.401 -97.2701 561.491 -92.8401 531.331C-89.4101 508.021 -90.5901 492.731 -65.5801 487.891C-38.2601 482.601 -8.40008 482.181 19.3599 481.261C47.9599 480.301 76.9999 486.221 105.17 485.161L105.16 485.141Z" fill="#16043A"/>
<path d="M686.58 560.479C688.44 553.159 693.88 543.519 710.18 534.279C728.51 524.929 746.85 515.579 765.18 506.229C767.24 511.649 769.3 517.069 771.35 522.489C780.58 515.649 789.81 508.809 799.04 501.969C818.04 498.209 837.05 494.449 856.05 490.689C874.09 498.499 878.74 506.219 879.46 511.999C880.84 522.959 868.9 532.879 872.26 537.149C874.54 540.039 881.84 537.719 884.29 537.039C910.98 529.549 938.25 524.099 965.77 520.749C976.01 519.499 986.46 518.549 996.59 520.509C1005.82 522.289 1014.42 526.409 1023.39 529.249C1039.27 534.279 1056.11 535.249 1072.74 536.169C1109.97 538.239 1147.52 540.299 1184.36 534.549C1195.51 532.809 1206.71 530.349 1217.95 531.249C1231.76 532.359 1244.59 538.429 1257.63 543.119C1288.74 554.299 1322.6 557.779 1355.33 553.159C1275.88 582.989 1195.74 610.959 1114.98 637.029C1071.43 651.089 1027.44 664.659 982.06 670.569C913.36 679.519 843.72 670.649 775 661.789C746.25 658.079 716.25 653.909 692.48 637.319C686.07 632.839 679.2 627.779 678.45 620.459C677.73 613.449 682.94 610.179 686.61 601.979C693.86 585.759 682.68 575.749 686.56 560.459L686.58 560.479Z" fill="#16043A"/>
<path d="M-53.0002 584.999C-53.5702 579.899 -48.8402 579.769 -47.0002 575.019L-54.0002 573.009L-54.5202 575.989L-56.5102 573.959L-61.0002 575.999V572.989L-65.0002 573.999C-66.9402 570.989 -64.1002 567.939 -64.2302 566.669C-64.2902 566.079 -65.3202 565.369 -65.4802 564.489C-65.6802 563.389 -64.6502 562.299 -65.4802 560.979C-66.3402 559.619 -67.9202 561.239 -68.7302 560.759C-69.0202 560.589 -68.9802 559.129 -69.6802 558.969C-72.4502 558.319 -75.6202 561.579 -76.6402 556.999C-77.1002 554.919 -75.4502 554.389 -75.3602 553.319C-75.1702 551.299 -76.2002 548.859 -74.9902 546.499L-78.0202 545.979L-77.0202 542.989L-84.0202 546.469L-79.0102 539.469L-81.0002 537.989C-75.2502 534.119 -72.0802 541.579 -68.5202 533.999L-64.7202 536.879L-62.0202 535.959L-64.0002 533.989C-61.9702 533.369 -58.9902 532.509 -58.9902 529.999H-57.0002L-56.0102 531.989C-57.4602 528.809 -54.0602 527.679 -53.9902 527.289C-53.7002 525.739 -55.0102 523.779 -54.0102 521.989C-57.7402 520.989 -55.2302 525.839 -56.0202 526.979L-60.4502 524.909L-61.9402 527.519L-66.0002 526.989L-62.0102 528.989C-61.6702 530.899 -64.0302 529.379 -64.8502 530.169C-65.3502 530.649 -64.4502 532.459 -65.6502 533.009C-69.8002 534.929 -76.5202 532.539 -80.9902 533.979C-81.7302 531.059 -78.5402 531.969 -77.4602 530.029C-75.3702 526.269 -80.2202 527.759 -77.9902 524.989H-82.9902C-83.0502 521.679 -80.0202 520.439 -82.0102 516.989L-86.3702 521.909C-91.0102 518.979 -87.4902 517.649 -85.0002 514.989C-88.5502 513.439 -89.1802 515.789 -91.5002 517.969L-92.0002 514.959L-95.9902 515.959C-94.5802 512.039 -90.7002 512.639 -88.0002 510.449L-91.0302 505.469L-88.4602 502.909C-85.3502 505.369 -83.6102 504.339 -79.9902 503.959L-82.9902 500.979C-77.5302 502.729 -77.6602 495.499 -74.5302 494.899C-73.6102 494.719 -71.6802 494.469 -72.0002 495.959L-74.6002 496.939L-75.0002 498.959C-72.2802 499.829 -68.7202 497.729 -66.5302 497.979C-65.1202 498.139 -64.1702 499.579 -63.1902 499.769C-60.2902 500.339 -57.8502 497.629 -56.9702 502.969C-56.4402 503.359 -54.1502 499.899 -52.9902 500.969C-50.9902 502.819 -57.1502 503.209 -54.9802 504.959C-54.8602 505.059 -52.1602 505.049 -52.0302 504.939C-51.6502 501.749 -50.5702 497.669 -47.0702 496.839C-47.6102 494.459 -49.2902 492.839 -51.8502 493.059C-53.7902 500.179 -60.6502 497.839 -64.4902 493.969L-65.4102 495.909L-68.8502 494.849C-71.2802 492.219 -64.3902 483.279 -64.9802 490.969L-60.9902 489.459C-63.4702 488.009 -64.4802 484.939 -67.9802 485.959V484.979C-65.0002 485.359 -65.9902 481.419 -64.9802 479.339L-66.9802 476.979C-63.7602 476.849 -60.6902 478.429 -57.4302 478.069C-55.5302 477.859 -56.0502 475.959 -55.4102 475.939C-52.3402 475.799 -48.9902 480.669 -44.9902 479.969C-45.5302 475.589 -48.9902 473.669 -46.9702 468.969L-40.4802 474.989L-37.9902 473.459L-39.9802 470.969L-35.9202 471.399L-34.9702 475.339L-33.0002 475.959C-32.7802 471.999 -30.4602 473.939 -28.9502 473.319C-26.2602 472.219 -22.8002 468.759 -19.9902 471.969V467.969L-28.9702 466.979C-24.6702 466.009 -17.7502 465.739 -15.4002 461.929L-11.9702 462.959L-16.6002 458.039L-20.9602 461.959L-21.9502 455.989L-18.9602 455.959L-20.0602 452.059L-29.9702 453.969V450.959L-33.9702 451.959C-34.5802 448.809 -29.7902 449.989 -30.9902 446.479C-31.8902 443.849 -34.9002 446.859 -35.9702 445.479L-31.9802 440.469C-30.6802 438.429 -37.2302 439.799 -34.0002 437.449C-31.4802 435.619 -29.2202 437.299 -27.6902 436.959C-27.0602 436.819 -26.4002 433.929 -23.9802 434.949C-25.1102 431.559 -25.4902 427.749 -22.9802 424.969L-25.9902 422.969C-19.1002 424.989 -18.3102 412.619 -14.5702 418.879C-12.6702 417.669 -8.09023 417.209 -7.00024 419.469C-18.0702 424.669 -5.53024 424.769 -4.93024 421.259C-4.59024 419.259 -6.47024 417.069 -3.98024 414.479L-6.99023 410.959C-5.04024 410.929 -1.86024 411.589 -1.11024 409.339L-1.00024 405.949C-6.82024 407.419 -6.96024 403.559 -2.99023 399.959L-6.01024 399.429L-4.99023 395.949H-9.99023C-10.4902 392.999 -7.50024 389.939 -10.4902 387.959C-12.4702 390.999 -14.7902 390.639 -17.9902 390.929L-12.9902 384.949L-18.9802 384.439C-14.9902 384.199 -14.8902 380.229 -11.9802 378.459C-13.1002 376.349 -13.2902 375.499 -15.9902 375.929C-14.0402 374.709 -15.1702 372.069 -14.9902 371.939C-14.4602 371.579 -12.0302 373.629 -10.9902 371.429L-16.9802 369.439L-12.4102 366.889L-10.5602 368.829L-5.99023 367.929C-4.94023 363.579 -11.2102 367.189 -10.0002 364.449C-9.64024 363.629 -4.68024 361.119 -5.98024 356.939L-2.48024 361.929L2.48976 358.939L2.00977 363.929C4.74976 360.689 11.8998 364.609 9.52976 358.899L4.00977 358.919C2.85976 352.229 9.27976 354.219 12.8498 350.789L11.0198 347.419L16.4998 342.919C22.8598 352.019 27.1098 345.059 34.4898 344.909L35.0098 348.919L45.3298 347.019C48.1098 347.859 47.3898 352.459 48.4898 353.929C49.5898 355.399 52.9398 354.859 54.3698 355.819C55.6698 356.689 54.8398 359.749 56.9798 359.919C57.7998 354.789 63.2498 356.989 66.9898 356.909L62.9998 354.909L66.0098 353.409L62.9998 348.929L65.9298 348.879L65.9998 344.919L69.9898 345.929L69.1098 341.079L76.6698 337.209C77.2198 337.169 85.6298 342.039 85.9998 342.449C87.0198 343.549 86.6998 345.109 87.1598 345.729C87.3498 345.999 89.3698 344.799 89.9898 346.439C90.2998 347.209 79.8698 350.269 81.9998 353.929L85.9798 351.929L85.9998 357.929L88.9798 356.929L87.9898 360.919L95.9798 359.939C96.3298 356.999 95.9798 353.009 99.0098 351.489C102.99 349.489 105.88 351.609 106.92 344.379L115.42 341.869L117.99 345.449L115.98 347.429L118.98 346.939L115.99 350.929H121.98C122.43 351.329 116.57 359.919 120.5 361.929C124.67 358.939 128.69 357.459 133.98 357.939L125.99 362.419C126.89 364.829 134.54 360.849 135.48 365.919C138.67 361.729 140.8 361.159 145.72 360.149C146.66 359.959 147.86 357.869 148.97 360.439C150.08 363.009 145.49 361.369 145.98 362.419L153.97 369.909L149.97 371.439L151.97 374.899C147.05 375.059 150.93 379.489 148.74 381.709L144.1 381.979L142.9 385.339L144.96 388.919L141.98 386.919C141.95 388.259 141.8 389.679 142.45 390.939C143.34 392.679 145.93 392.159 145.97 393.909C142.12 393.689 143.56 397.189 138.98 394.929C139.4 398.489 142.58 397.429 143.97 399.899L140.38 403.869L130.98 400.929V404.919C133.34 404.809 137.22 404.309 136.97 407.919L131.98 407.939L133.97 410.909C130.49 411.179 131.82 416.079 127.98 417.919C130.58 416.019 134.93 418.669 135.5 418.659C136.54 418.639 140.11 413.569 142.28 412.649C147.29 410.529 146.72 417.589 147.01 417.889C147.65 418.559 151.2 416.809 150.97 418.919L145.95 419.409L145 422.409C148.03 423.919 150.7 427.399 153.98 425.939L150.97 432.419L153.98 434.929C152.76 435.189 147.49 433.569 149.1 437.319C150.71 441.069 161.09 442.449 164.98 441.939C164.87 445.339 161.52 442.949 164 447.939C166.59 448.219 169.01 444.299 169.5 444.149C170.12 443.959 175.68 444.389 176.62 444.739C178.71 445.519 177.27 447.679 179.99 446.929L180.12 444.119C185.22 442.129 186.65 444.009 190.5 446.909C192.29 442.689 195.53 443.529 198.5 440.939L201.68 444.799L206.99 443.929L204.96 440.439C207.53 439.619 207.2 438.479 206.99 435.929L214.99 436.929L213.99 433.939L220.52 431.949C222.66 435.029 217.2 433.329 217 435.919L226.98 434.919C227.5 436.849 227.87 438.759 228.28 440.689C228.42 441.359 227.02 442.239 229.49 441.919L235.47 436.319L241 438.939L241.47 434.829C244.14 435.129 245.81 430.149 246.01 434.929L247.53 433.939L247 430.939C249.68 429.859 249.63 435.599 252 433.919C252.1 433.849 251.37 432.599 251.68 431.959C252.47 430.319 253.86 428.979 254.1 427.029C258.32 428.679 265.93 422.829 264.49 429.919C268.99 427.509 273.94 423.379 279 424.939L277.99 426.919L281.48 425.929C283.98 426.239 280.63 431.159 283.48 429.919C285.14 429.189 286.07 426.709 286.04 424.959C291.45 423.779 290.75 428.629 291.03 428.879C291.73 429.519 302.73 425.879 303.5 423.939C305.06 426.799 307.65 428.569 311 428.909L308.18 426.749L308.98 424.969C306.18 425.199 305.69 423.779 304.33 421.849L297 423.909C297.41 422.739 300.76 420.549 301.68 420.219C303.8 419.479 305.73 422.319 306.42 418.979L316.99 422.939L313 424.929L316 429.909L312 429.929C313.08 432.449 315.45 434.889 315.85 437.699C316.2 440.129 314.15 441.499 316.48 442.889L323.99 441.939L318 445.919L325.02 445.419L327.01 438.939L324 437.949L333.98 435.419C334.74 433.469 325.01 429.989 332.99 429.929L331 428.939C330.64 426.299 331.34 424.499 333.5 422.939L334 426.919C336.92 427.069 335.74 423.629 340 424.939L339.01 427.929L343 428.439L340.01 429.429L342.54 433.929C350.27 433.509 347.42 422.449 357.01 425.949L353.01 430.929L358.01 429.949C355.77 433.289 361.87 435.939 357.01 437.429L361 440.959L359.02 444.939L366.01 441.949L365.01 444.929L369.01 444.949L366.02 447.929L370.01 447.949L368.01 450.929L373 449.939L372.01 453.929C376.98 452.409 376.59 458.569 381.01 457.949L380.5 461.929C385.88 460.269 384.97 454.789 392.01 457.929L390.23 455.439L392.01 452.949C386.24 452.979 387.94 446.709 385.01 442.949C389.51 443.579 390.25 439.909 392.74 437.959C394.92 436.249 399.13 435.769 400.97 431.439L398.03 428.439C398.05 427.449 407.6 423.619 407.01 419.459C406.54 416.099 403.05 421.579 402.03 418.439C405.63 417.009 402.7 411.219 403.01 410.949C403.21 410.769 404.59 411.249 405.16 410.859C406.06 410.239 406.14 408.999 406.7 408.919C408.07 408.729 409.68 410.719 411 408.429L409.01 406.449L413.01 404.939L412.01 400.959C415.04 401.059 417.77 402.559 420.55 403.399C425.22 404.789 422.43 403.979 425.16 405.739C425.43 405.909 429.2 404.479 430.52 407.939L432.01 404.949C436.34 406.159 436.65 406.919 441.01 404.959L440.02 407.949L444.01 406.959L442.02 412.929C444.49 413.629 445.29 415.149 448.02 413.949C445.82 412.119 451.44 404.559 452.69 404.129C456.54 402.819 463.15 404.409 465.32 403.839C467.49 403.269 467.65 400.089 469.5 399.379C474.24 397.549 478.06 401.589 480.53 404.959L482.52 401.979C484.57 404.559 486.48 404.559 488.53 401.979L493.02 412.469L490.03 412.999C491.18 415.249 488.98 419.149 490.47 421.039C491.5 422.349 495.13 420.889 494.03 424.969L499.02 422.969L502.02 425.969L498.03 426.969L501.03 427.959C501.59 429.739 499.53 430.299 499.28 431.579C498.99 433.069 500.49 435.239 500.05 437.299C499.89 438.029 498.04 437.939 497.96 438.549C497.65 440.799 500.89 444.059 500.03 446.959L507.01 445.949L507.08 448.919L512.02 448.959L510.02 449.959L511.52 451.929C514.96 446.669 521.11 450.489 526.01 450.959L523.01 451.959L524.99 457.449C523.58 459.619 522.97 458.369 521.01 457.949L523 464.939C520.1 465.549 518.5 465.769 516.01 463.949L517.01 467.939L514 468.439C515.59 469.969 517.96 471.429 516.54 473.939C515.31 476.299 507.98 475.169 507.98 479.939L506.98 477.429L505.02 476.969C502.79 480.109 502.57 481.879 502.99 485.949C511.61 483.479 510.81 490.019 512.97 491.529C513.21 491.699 518.59 491.869 518.83 491.699C519.31 491.349 519.23 489.739 520.6 489.179C521.43 488.839 523.71 489.909 524.83 488.769C527.01 484.199 524.36 483.989 524.28 483.689C523.86 482.189 525.12 480.759 523.01 478.949L533.49 475.919C535.37 478.269 529.92 478.589 531.01 481.929C533.02 482.279 533.65 480.159 535.56 479.909C538.93 479.469 544.96 480.659 543.02 484.929L548.56 480.939L549.5 482.939L555.51 479.949C557.19 488.129 568.13 482.519 574 481.929V484.939L577 483.919C577.68 487.479 579.51 489.089 578 492.929C584.32 495.399 585.21 489.719 591.01 491.939C591.63 496.629 585.16 492.659 584.01 495.919L590.02 495.939L589.12 498.349L590.58 499.849L597.02 499.949C597.28 500.309 596.45 502.879 596.09 503.329C594.93 504.759 592.26 502.719 593.02 505.939C597.43 507.339 597.48 503.139 599.73 502.169C603.04 500.739 607.95 500.709 611.5 499.929L611.42 503.989C613.47 505.069 615.97 505.079 616.03 507.939H616.99C616.7 505.419 620.02 505.239 622 504.949C622.38 506.719 620.83 507.139 620.35 508.639C619.39 511.629 619.5 510.409 618.96 511.639C618.08 513.649 619.86 514.619 617.01 515.419L619.02 518.459L617.01 519.389L619.52 523.929C621.9 524.529 622.2 520.459 622.04 518.969C626.9 518.819 628.84 520.589 633.31 517.929C634.99 516.929 633.12 514.239 638.85 518.099L638.01 519.929C643.64 518.229 648.87 526.269 653.01 520.949C649.53 520.839 648.36 518.389 646.51 515.959L643.5 517.939C643.67 512.049 648.09 516.719 649.52 511.939L650 513.929C652.92 512.959 657.89 512.969 658 516.929L655.02 517.419C659.23 519.459 661.11 521.069 662.99 525.439L659.02 525.939C659.56 528.909 659.37 531.769 663.01 530.949L661.01 531.949L662.52 533.929C665.83 534.799 666.01 531.039 667.01 528.949L662.02 527.949C664.85 525.889 668.39 528.939 669.34 528.799C670.29 528.659 671.28 527.079 672.33 526.729C674.7 525.939 676.53 527.149 677.51 523.939C680.57 527.519 684.03 530.619 686.52 524.939L687.52 526.959L689.45 526.939L693.52 520.939L695 522.929C694.63 519.949 699.73 520.469 702.02 519.949C699.86 522.809 700.32 524.639 701.02 527.929L698.51 524.919L695.03 526.429L699.03 529.919L694.04 527.929C693.64 531.989 697.36 530.099 695.12 534.839L697.02 535.919C694.39 536.009 690.58 533.159 689.03 536.919C695.32 537.259 698.81 539.479 702.02 532.419L700.03 530.939C702.8 530.999 705.63 530.619 708.22 529.629C710.42 528.789 715.57 523.219 715.01 527.929L713.02 528.419L715.03 531.929L710.04 529.939L712.07 534.429C708.36 535.339 712.07 537.209 709.49 538.909L707.04 537.939L708.03 540.929L704.04 539.939L701.63 549.949C699.26 551.879 696.79 551.419 694.04 550.939C693.62 552.599 695.75 551.349 696.06 552.599C696.32 553.629 695.96 554.849 696.04 555.919L700.01 553.919L702.02 556.919L701.03 552.929L710.02 550.919L707.01 553.929L708.03 555.919L704.03 554.939L706.02 557.919L703.96 558.479L705.08 561.379L703.03 562.919C704.95 562.999 707.03 563.079 708.81 562.209C712.5 560.399 709.46 556.199 714.02 561.929C713.19 559.019 714.95 557.009 717.55 555.939C720.15 554.869 717.85 560.709 718.03 560.919C722.13 561.519 719.8 557.199 720.02 556.959C721.45 555.419 727.21 556.519 729.02 557.939C728.78 559.919 724.45 560.889 723.92 561.569C723.15 562.559 724.17 565.969 722.03 567.449L719.52 565.939L720.02 573.929L727.53 572.229L730 574.439L726 581.939L723.02 579.939L724.01 582.929C719.11 581.239 715.07 584.199 710.07 584.419C709.69 584.439 702.83 583.869 702.47 583.749C701.6 583.439 702.85 581.469 700.52 581.939C699.51 585.779 696.34 583.319 693.49 583.469C688.9 583.709 673.12 584.949 669.76 583.869C668.88 583.589 669.01 582.149 668.35 581.959C667.69 581.769 658.56 584.769 655.5 584.749C653.17 584.739 650.07 583.719 648.5 581.949L647.51 583.949L645.49 580.949L645 583.949C640.59 583.969 635.93 584.949 631.55 585.009C618.92 585.159 606.17 584.159 593.48 584.069C587.44 584.029 580.96 585.599 574.44 585.029C568.77 584.529 563.89 584.199 557.5 584.349C547.87 584.569 537.03 583.609 527.38 584.839C522.41 585.479 523.53 583.439 521.78 582.649C517.32 580.629 518.42 583.529 517.25 583.889C508.35 586.639 494.34 582.919 485.48 583.149C473.58 583.459 461.17 584.819 449.43 584.979C440.33 585.099 429 585.149 421.2 582.049C417.83 580.709 405.88 588.169 402.52 583.129L384.71 584.779L381.48 581.949C380.56 585.129 376.64 584.929 373.48 585.029C339.47 586.069 304.59 583.639 271.53 583.499C267.49 583.479 263.75 584.659 259.49 582.939L259.47 584.969C252.97 582.999 246.11 585.059 239.46 585.009C236.86 584.989 234.59 584.189 232.48 584.149C173.22 583.209 112.39 586.209 52.4498 585.029L48.9898 581.949L49.4698 584.949L46.4798 581.949L43.3598 584.589L-24.5102 584.969L-25.0202 581.949L-30.1302 583.509L-34.5102 579.939L-35.0202 584.949H-53.0202L-53.0002 584.999ZM162.01 444.009L152.01 443.009C151.16 445.929 154.26 444.669 154.86 446.649C155.81 449.789 153.95 450.779 158.51 452.999L159.17 450.149L162.01 449.999V444.019V444.009ZM469.26 445.719C468.55 444.759 469.82 442.689 468.01 443.009L466.99 445.519L463 443.999C463.35 446.249 462.87 446.689 461 447.489C462.27 449.599 464.79 448.479 466.27 449.059C466.58 449.179 470.23 452.679 472 450.989C474.25 448.839 469.72 446.319 469.26 445.709V445.719ZM-12.0102 479.989C-9.98024 477.819 -21.2502 471.049 -24.0002 473.009L-20.0102 475.999L-25.0002 475.009L-22.9902 476.499L-26.0102 476.999C-26.7402 480.289 -20.4602 479.319 -18.5102 480.019L-17.5202 477.009C-16.0802 476.689 -12.9402 480.979 -12.0102 479.989ZM-18.0102 482.009L-25.4002 480.029L-29.9902 487.489C-26.6802 491.379 -26.2902 487.609 -25.2502 487.059C-19.3702 483.969 -22.4002 484.579 -20.8502 483.189C-19.9902 482.419 -17.6802 483.919 -18.0102 482.009ZM-37.6402 486.629C-38.2402 485.599 -37.7202 483.939 -38.4902 484.019L-47.0102 487.019C-45.1802 491.689 -43.1402 485.299 -41.0302 488.509L-42.4802 490.829L-45.0102 490.019C-43.3202 492.849 -44.5402 494.489 -46.0102 496.999C-40.2602 497.499 -37.0302 497.449 -34.3602 491.919L-30.0202 493.009C-30.4102 488.509 -33.7602 488.839 -37.0102 490.009C-34.8702 486.469 -37.1702 487.459 -37.6502 486.639L-37.6402 486.629ZM-82.9902 508.989L-83.4902 506.979L-86.0102 507.999L-83.9902 513.999L-79.0102 512.999L-80.0102 506.999L-82.9902 508.989ZM-43.0002 509.009C-53.9502 508.229 -49.6202 516.949 -42.0002 515.989L-44.0102 514.379L-43.0002 509.009ZM443.7 515.309C441.22 513.239 438.78 514.689 436 515.009L438.99 517.989L435 519.999L440.09 518.509L441.48 515.999L445.99 520.989C446.21 519.309 444.88 516.299 443.7 515.309ZM605 535.009L600.01 534.429L597.04 539.509L603.02 540.509L602.01 538.499L605 535.009ZM-55.9102 550.929C-56.4102 549.069 -57.5402 546.709 -59.9902 546.999L-58.8502 552.849C-55.3802 553.549 -53.8702 553.509 -53.0002 550.009L-55.9102 550.929ZM711 567.989L701 564.009L703.67 569.049L711 567.989Z" fill="#16043A"/>
<path d="M1685.98 677L1685.47 671.99L1681.09 675.56L1675.98 674L1675.47 677.02L1607.6 676.64L1604.48 674L1601.49 677L1601.97 674L1598.51 677.08C1538.56 678.26 1477.74 675.26 1418.48 676.2C1416.37 676.23 1414.1 677.04 1411.5 677.06C1404.85 677.11 1397.99 675.05 1391.49 677.02L1391.47 674.99C1387.22 676.71 1383.47 675.53 1379.43 675.55C1346.37 675.69 1311.49 678.12 1277.48 677.08C1274.32 676.98 1270.4 677.18 1269.48 674L1266.25 676.83L1248.44 675.18C1245.08 680.22 1233.13 672.76 1229.76 674.1C1221.96 677.2 1210.63 677.15 1201.53 677.03C1189.8 676.87 1177.39 675.51 1165.48 675.2C1156.62 674.97 1142.61 678.69 1133.71 675.94C1132.54 675.58 1133.64 672.67 1129.18 674.7C1127.43 675.49 1128.54 677.52 1123.58 676.89C1113.94 675.65 1103.09 676.62 1093.46 676.4C1087.07 676.26 1082.19 676.58 1076.52 677.08C1070.01 677.65 1063.52 676.08 1057.48 676.12C1044.8 676.21 1032.04 677.21 1019.41 677.06C1015.03 677.01 1010.37 676.02 1005.96 676L1005.47 673L1003.45 676L1002.46 674C1000.89 675.77 997.79 676.79 995.46 676.8C992.4 676.82 983.27 673.82 982.61 674.01C981.95 674.2 982.08 675.64 981.2 675.92C977.85 677 962.07 675.75 957.47 675.52C954.62 675.37 951.45 677.83 950.44 673.99C948.11 673.52 949.35 675.5 948.49 675.8C948.13 675.93 941.27 676.49 940.89 676.47C935.89 676.25 931.85 673.3 926.95 674.98L927.94 671.99L924.96 673.99L920.96 666.49L923.43 664.28L930.94 665.98L931.44 657.99L928.93 659.5C926.79 658.02 927.82 654.61 927.04 653.62C926.51 652.94 922.17 651.98 921.94 649.99C923.75 648.57 929.51 647.47 930.94 649.01C931.16 649.25 928.83 653.57 932.93 652.97C933.11 652.76 930.7 646.88 933.41 647.99C936 649.05 937.76 651.06 936.94 653.98C941.5 648.25 938.46 652.45 942.15 654.26C943.93 655.13 946.01 655.05 947.93 654.97L945.88 653.43L947 650.53L944.94 649.97L946.93 646.99L942.93 647.97L943.95 645.98L940.94 642.97L949.93 644.98L948.94 648.97L950.95 645.97L954.92 647.97C954.99 646.9 954.64 645.67 954.9 644.65C955.21 643.39 957.34 644.65 956.92 642.99C954.17 643.47 951.7 643.93 949.33 642L946.92 631.99L942.93 632.98L943.92 629.99L941.47 630.96C938.89 629.26 942.6 627.39 938.89 626.48L940.92 621.99L935.93 623.98L937.94 620.47L935.95 619.98C935.39 615.27 940.54 620.84 942.74 621.68C945.33 622.68 948.17 623.05 950.93 622.99L948.94 624.47C952.15 631.53 955.64 629.31 961.93 628.97C960.37 625.21 956.57 628.06 953.94 627.97L955.84 626.89C953.6 622.15 957.33 624.04 956.92 619.98L951.93 621.97L955.93 618.48L952.45 616.97L949.94 619.98C950.64 616.69 951.1 614.85 948.94 612C951.23 612.52 956.32 612 955.96 614.98L957.44 612.99L961.51 618.99L963.44 619.01L964.44 616.99C966.93 622.67 970.39 619.57 973.45 615.99C974.43 619.2 976.26 617.99 978.63 618.78C979.68 619.13 980.71 620.71 981.62 620.85C982.53 620.99 986.1 617.94 988.94 620L983.95 621C984.95 623.09 985.12 626.85 988.44 625.98L989.95 624L987.95 623C991.59 623.82 991.4 620.96 991.94 617.99L987.97 617.49C989.85 613.12 991.73 611.51 995.94 609.47L992.96 608.98C993.08 605.01 998.05 605 1000.96 605.98L1001.44 603.99C1002.86 608.77 1007.29 604.1 1007.46 609.99L1004.45 608.01C1002.6 610.45 1001.43 612.89 997.95 613C1002.09 618.32 1007.33 610.28 1012.95 611.98L1012.11 610.15C1017.84 606.28 1015.97 608.98 1017.65 609.98C1022.12 612.64 1024.05 610.88 1028.92 611.02C1028.76 612.51 1029.06 616.58 1031.44 615.98L1033.95 611.44L1031.94 610.51L1033.95 607.47C1031.09 606.67 1032.88 605.7 1032 603.69C1031.46 602.46 1031.57 603.68 1030.61 600.69C1030.13 599.19 1028.58 598.76 1028.96 597C1030.94 597.29 1034.27 597.48 1033.97 599.98H1034.93C1034.99 597.13 1037.5 597.13 1039.54 596.04L1039.46 591.98C1043.01 592.76 1047.92 592.79 1051.23 594.22C1053.48 595.19 1053.53 599.39 1057.94 597.99C1058.7 594.77 1056.03 596.81 1054.87 595.38C1054.51 594.93 1053.68 592.37 1053.94 592L1060.38 591.9L1061.84 590.4L1060.94 587.99L1066.95 587.97C1065.8 584.71 1059.32 588.68 1059.95 583.99C1065.75 581.76 1066.64 587.45 1072.96 584.98C1071.45 581.14 1073.28 579.53 1073.96 575.97L1076.94 576.99V573.98C1082.82 574.56 1093.76 580.17 1095.44 572L1101.45 574.99L1102.39 572.99L1107.93 576.98C1105.98 572.71 1112.02 571.51 1115.39 571.96C1117.3 572.21 1117.93 574.33 1119.94 573.98C1121.03 570.64 1115.58 570.32 1117.46 567.97L1127.94 571C1125.83 572.81 1127.08 574.23 1126.67 575.74C1126.59 576.04 1123.94 576.25 1126.12 580.82C1127.24 581.96 1129.52 580.89 1130.35 581.23C1131.72 581.79 1131.64 583.41 1132.12 583.75C1132.36 583.92 1137.74 583.75 1137.98 583.58C1140.14 582.06 1139.34 575.52 1147.96 578C1148.38 573.93 1148.17 572.15 1145.93 569.02L1143.97 569.48L1142.97 571.99C1142.97 567.23 1135.63 568.35 1134.41 565.99C1132.98 563.48 1135.36 562.02 1136.95 560.49L1133.94 559.99L1134.94 556C1132.45 557.82 1130.85 557.6 1127.95 556.99L1129.94 550C1127.99 550.42 1127.37 551.66 1125.96 549.5L1127.94 544.01L1124.94 543.01C1129.84 542.54 1135.99 538.72 1139.43 543.98L1140.93 542.01L1138.93 541.01L1143.87 540.97L1143.94 538L1150.92 539.01C1150.06 536.11 1153.3 532.84 1152.99 530.6C1152.9 529.99 1151.05 530.08 1150.9 529.35C1150.46 527.3 1151.95 525.12 1151.67 523.63C1151.42 522.35 1149.36 521.79 1149.92 520.01L1152.92 519.02L1148.93 518.02L1151.93 515.02L1156.92 517.02C1155.83 512.94 1159.45 514.4 1160.48 513.09C1161.97 511.2 1159.77 507.3 1160.92 505.05L1157.93 504.52L1162.42 494.03C1164.47 496.61 1166.38 496.61 1168.43 494.03L1170.42 497.01C1172.88 493.64 1176.71 489.6 1181.45 491.43C1183.3 492.14 1183.5 495.33 1185.63 495.89C1187.76 496.45 1194.41 494.87 1198.26 496.18C1199.51 496.61 1205.14 504.17 1202.93 506C1205.65 507.2 1206.45 505.68 1208.93 504.98L1206.94 499.01L1210.93 500L1209.94 497.01C1214.3 498.97 1214.6 498.21 1218.94 497L1220.43 499.99C1221.75 496.53 1225.52 497.96 1225.79 497.79C1228.52 496.03 1225.73 496.84 1230.4 495.45C1233.19 494.62 1235.91 493.11 1238.94 493.01L1237.94 496.99L1241.94 498.5L1239.95 500.48C1241.27 502.77 1242.88 500.78 1244.25 500.97C1244.81 501.05 1244.9 502.29 1245.79 502.91C1246.36 503.3 1247.74 502.83 1247.94 503C1248.25 503.27 1245.32 509.07 1248.92 510.49C1247.9 513.63 1244.41 508.14 1243.94 511.51C1243.36 515.67 1252.9 519.5 1252.92 520.49L1249.98 523.49C1251.82 527.83 1256.02 528.3 1258.21 530.01C1260.69 531.95 1261.44 535.63 1265.94 535C1263.01 538.76 1264.72 545.03 1258.94 545L1260.72 547.49L1258.94 549.98C1265.98 546.84 1265.07 552.32 1270.45 553.98L1269.94 550C1274.37 550.62 1273.98 544.46 1278.94 545.98L1277.95 541.99L1282.94 542.98L1280.94 540L1284.93 539.98L1281.94 537L1285.94 536.98L1284.94 534L1291.93 536.99L1289.95 533.01L1293.94 529.48C1289.08 527.99 1295.17 525.34 1292.94 522L1297.94 522.98L1293.94 518C1303.53 514.51 1300.68 525.56 1308.41 525.98L1310.94 521.48L1307.95 520.49L1311.94 519.98L1310.95 516.99C1315.2 515.68 1314.02 519.12 1316.95 518.97L1317.45 514.99C1319.61 516.56 1320.3 518.35 1319.95 520.99L1317.96 521.98C1325.94 522.04 1316.21 525.52 1316.97 527.47L1326.95 530L1323.94 530.99L1325.93 537.47L1332.95 537.97L1326.96 533.99L1334.47 534.94C1336.8 533.56 1334.76 532.19 1335.1 529.75C1335.5 526.94 1337.87 524.51 1338.95 521.98L1334.95 521.96L1337.95 516.98L1333.96 514.99L1344.53 511.03C1345.22 514.37 1347.16 511.53 1349.27 512.27C1350.2 512.6 1353.54 514.79 1353.95 515.96L1346.62 513.9C1345.27 515.83 1344.77 517.26 1341.97 517.02L1342.77 518.8L1339.95 520.96C1343.3 520.62 1345.89 518.85 1347.45 515.99C1348.22 517.93 1359.22 521.58 1359.92 520.93C1360.2 520.67 1359.5 515.82 1364.91 517.01C1364.88 518.76 1365.81 521.24 1367.47 521.97C1370.32 523.21 1366.97 518.29 1369.47 517.98L1372.96 518.97L1371.95 516.99C1377.01 515.44 1381.96 519.57 1386.46 521.97C1385.03 514.88 1392.63 520.72 1396.85 519.08C1397.09 521.03 1398.48 522.37 1399.27 524.01C1399.58 524.65 1398.85 525.9 1398.95 525.97C1401.32 527.65 1401.27 521.9 1403.95 522.99L1403.42 525.99L1404.94 526.98C1405.14 522.2 1406.81 527.18 1409.48 526.88L1409.95 530.99L1415.48 528.37L1421.46 533.97C1423.92 534.29 1422.52 533.41 1422.67 532.74C1423.08 530.81 1423.45 528.9 1423.97 526.97L1433.95 527.97C1433.76 525.38 1428.29 527.07 1430.43 524L1436.96 525.99L1435.96 528.98L1443.96 527.98C1443.75 530.53 1443.42 531.67 1445.99 532.49L1443.96 535.98L1449.27 536.85L1452.45 532.99C1455.42 535.58 1458.66 534.74 1460.45 538.96C1464.3 536.06 1465.74 534.18 1470.83 536.17L1470.96 538.98C1473.68 539.72 1472.24 537.57 1474.33 536.79C1475.26 536.44 1480.83 536.01 1481.45 536.2C1481.93 536.35 1484.36 540.27 1486.95 539.99C1489.43 535 1486.08 537.39 1485.97 533.99C1489.86 534.5 1500.2 533.19 1501.85 529.37C1503.47 525.62 1498.19 527.25 1496.97 526.98L1499.98 524.47L1496.97 517.99C1500.24 519.45 1502.92 515.97 1505.95 514.46L1505 511.46L1499.98 510.97C1499.75 508.86 1503.3 510.61 1503.94 509.94C1504.23 509.64 1503.66 502.58 1508.67 504.7C1510.84 505.62 1514.41 510.68 1515.45 510.71C1516.01 510.72 1520.37 508.07 1522.97 509.97C1519.12 508.13 1520.46 503.24 1516.98 502.96L1518.97 499.99L1513.98 499.97C1513.73 496.37 1517.61 496.86 1519.99 496.97V492.98L1510.58 495.92L1506.99 491.95C1508.38 489.48 1511.56 490.53 1511.98 486.98C1507.4 489.24 1508.84 485.75 1504.99 485.96C1505.02 484.22 1507.62 484.73 1508.51 482.99C1509.16 481.73 1509.01 480.31 1508.98 478.97L1506 480.97L1508.06 477.39L1506.86 474.03L1502.22 473.76C1500.03 471.53 1503.91 467.1 1498.99 466.95L1500.99 463.49L1496.99 461.96L1504.98 454.47C1505.47 453.42 1500.92 454.97 1501.99 452.49C1503.06 450.01 1504.3 452 1505.24 452.2C1510.16 453.22 1512.29 453.78 1515.48 457.97C1516.42 452.9 1524.07 456.88 1524.97 454.47L1516.98 449.99C1522.28 449.51 1526.29 450.99 1530.46 453.98C1534.39 451.97 1528.53 443.38 1528.98 442.99H1534.97L1531.98 438.99L1534.98 439.48L1532.97 437.5L1535.54 433.92L1544.04 436.43C1545.08 443.66 1547.97 441.54 1551.95 443.54C1554.98 445.06 1554.63 449.06 1554.98 451.99L1562.97 452.97L1561.98 448.98L1564.96 449.98L1564.98 443.98L1568.96 445.98C1571.09 442.31 1560.66 439.25 1560.97 438.49C1561.59 436.85 1563.61 438.05 1563.8 437.78C1564.25 437.16 1563.94 435.6 1564.96 434.5C1565.33 434.1 1573.74 429.22 1574.29 429.26L1581.85 433.13L1580.97 437.98L1584.96 436.97L1585.03 440.93L1587.96 440.98L1584.95 445.46L1587.96 446.96L1583.97 448.96C1587.71 449.04 1593.17 446.84 1593.98 451.97C1596.13 451.8 1595.3 448.74 1596.59 447.87C1598.02 446.91 1601.34 447.5 1602.47 445.98C1603.57 444.51 1602.85 439.9 1605.63 439.07L1615.95 440.97L1616.47 436.96C1623.85 437.11 1628.1 444.07 1634.46 434.97L1639.94 439.47L1638.11 442.84C1641.68 446.27 1648.1 444.28 1646.95 450.97L1641.43 450.95C1639.06 456.66 1646.21 452.74 1648.95 455.98L1648.47 450.99L1653.44 453.98L1656.94 448.99C1655.64 453.17 1660.6 455.68 1660.96 456.5C1662.17 459.24 1655.9 455.64 1656.95 459.98L1661.52 460.88L1663.37 458.94L1667.94 461.49L1661.95 463.48C1662.99 465.68 1665.41 463.63 1665.95 463.99C1666.13 464.11 1665 466.76 1666.95 467.98C1664.25 467.54 1664.06 468.4 1662.94 470.51C1665.85 472.28 1665.96 476.25 1669.94 476.49L1663.95 477L1668.95 482.98C1665.75 482.69 1663.44 483.05 1661.45 480.01C1658.46 481.99 1661.45 485.05 1660.95 487.99H1655.95L1656.97 491.48L1653.95 492.01C1657.92 495.61 1657.77 499.47 1651.96 498L1652.07 501.39C1652.82 503.64 1656 502.98 1657.95 503.01L1654.94 506.53C1657.42 509.12 1655.54 511.31 1655.89 513.31C1656.5 516.82 1669.03 516.72 1657.96 511.52C1659.06 509.26 1663.63 509.72 1665.53 510.93C1669.27 504.67 1670.06 517.05 1676.95 515.02L1673.94 517.02C1676.46 519.79 1676.07 523.61 1674.94 527C1677.36 525.98 1678.03 528.87 1678.65 529.01C1680.18 529.34 1682.45 527.67 1684.96 529.5C1688.19 531.84 1681.64 530.47 1682.94 532.52L1686.93 537.53C1685.86 538.91 1682.85 535.9 1681.95 538.53C1680.75 542.05 1685.54 540.87 1684.93 544.01L1680.94 543.01V546.02L1671.03 544.11L1669.93 548.01L1672.92 548.04L1671.93 554.01L1667.57 550.09L1662.94 555.01L1666.37 553.98C1668.72 557.79 1675.64 558.06 1679.94 559.03L1670.94 560.02V564.02C1673.77 560.81 1677.23 564.27 1679.92 565.37C1681.42 565.99 1683.75 564.05 1683.97 568.01L1685.94 567.39L1686.89 563.45L1690.95 563.02L1688.96 565.51L1691.45 567.04L1697.94 561.02C1699.95 565.71 1696.49 567.64 1695.96 572.02C1699.96 572.72 1703.31 567.85 1706.38 567.99C1707.02 568.02 1706.5 569.92 1708.4 570.12C1711.66 570.47 1714.72 568.9 1717.95 569.03L1715.95 571.39C1716.96 573.48 1715.97 577.41 1718.94 577.03V578.01C1715.45 577 1714.43 580.07 1711.95 581.51L1715.94 583.02C1715.35 575.33 1722.24 584.27 1719.81 586.9L1716.37 587.96L1715.45 586.02C1711.6 589.9 1704.74 592.24 1702.81 585.11C1700.24 584.9 1698.57 586.52 1698.03 588.89C1701.54 589.72 1702.62 593.79 1702.99 596.99C1703.13 597.1 1705.83 597.1 1705.94 597.01C1708.11 595.26 1701.95 594.87 1703.95 593.02C1705.11 591.95 1707.39 595.41 1707.93 595.02C1708.81 589.69 1711.24 592.39 1714.15 591.82C1715.13 591.63 1716.08 590.19 1717.49 590.03C1719.67 589.78 1723.24 591.88 1725.96 591.01L1725.56 588.99L1722.96 588.01C1722.64 586.52 1724.57 586.78 1725.49 586.95C1728.61 587.54 1728.48 594.78 1733.95 593.03L1730.95 596.01C1734.57 596.39 1736.3 597.42 1739.42 594.96L1741.99 597.52L1738.96 602.5C1741.66 604.69 1745.54 604.09 1746.95 608.01L1742.96 607.01L1742.46 610.02C1740.14 607.84 1739.51 605.48 1735.96 607.04C1738.45 609.69 1741.96 611.03 1737.33 613.96L1732.97 609.04C1730.98 612.49 1734.02 613.73 1733.95 617.03H1728.95C1731.18 619.82 1726.32 618.32 1728.42 622.08C1729.5 624.01 1732.69 623.11 1731.95 626.03C1727.47 624.59 1720.76 626.99 1716.61 625.06C1715.42 624.51 1716.32 622.7 1715.81 622.22C1714.99 621.43 1712.63 622.95 1712.97 621.04L1716.96 619.04L1712.9 619.57L1711.41 616.96L1706.98 619.03C1706.19 617.89 1708.7 613.04 1704.97 614.04C1705.97 615.83 1704.66 617.79 1704.95 619.34C1705.02 619.73 1708.42 620.86 1706.97 624.04L1707.96 622.04H1709.95C1709.95 624.57 1712.93 625.42 1714.96 626.04L1712.98 628.01L1715.68 628.93L1719.48 626.05C1723.04 633.64 1726.21 626.18 1731.96 630.04L1729.97 631.52L1734.98 638.52L1727.98 635.04L1728.98 638.03L1725.95 638.55C1727.15 640.91 1726.13 643.35 1726.32 645.37C1726.42 646.44 1728.07 646.97 1727.6 649.05C1726.58 653.63 1723.41 650.36 1720.64 651.02C1719.94 651.18 1719.98 652.64 1719.69 652.81C1718.88 653.29 1717.3 651.67 1716.44 653.03C1715.58 654.39 1716.63 655.44 1716.44 656.54C1716.28 657.42 1715.25 658.14 1715.19 658.72C1715.06 659.98 1717.9 663.04 1715.96 666.05L1711.97 665.04V668.05L1707.47 666.01L1705.48 668.04L1704.96 665.06L1697.96 667.07C1699.8 671.82 1704.53 671.95 1703.96 677.05H1685.96L1685.98 677ZM1488.99 541.99L1491.83 542.14L1492.49 544.99C1497.04 542.77 1495.19 541.78 1496.14 538.64C1496.74 536.66 1499.84 537.92 1498.99 535L1488.99 536V541.98V541.99ZM1178.99 543C1180.76 544.69 1184.41 541.19 1184.72 541.07C1186.19 540.49 1188.72 541.61 1189.99 539.5C1188.12 538.69 1187.63 538.25 1187.99 536.01L1184 537.53L1182.98 535.02C1181.17 534.7 1182.44 536.77 1181.73 537.73C1181.28 538.34 1176.74 540.86 1178.99 543.01V543ZM1668.5 569.01L1669.49 572.02C1671.44 571.32 1677.72 572.3 1676.99 569L1673.97 568.5L1675.98 567.01L1670.99 568L1674.98 565.01C1672.23 563.05 1660.96 569.82 1662.99 571.99C1663.92 572.98 1667.06 568.68 1668.5 569.01ZM1671.83 575.19C1673.39 576.58 1670.35 575.97 1676.23 579.06C1677.27 579.61 1677.67 583.38 1680.97 579.49L1676.38 572.03L1668.99 574.01C1668.66 575.91 1670.97 574.42 1671.83 575.19ZM1687.98 581.99C1684.73 580.82 1681.38 580.5 1680.99 584.99L1685.33 583.9C1688.01 589.44 1691.24 589.48 1696.98 588.98C1695.51 586.47 1694.29 584.82 1695.98 582L1693.45 582.81L1692 580.49C1694.11 577.28 1696.15 583.67 1697.98 579L1689.46 576C1688.69 575.92 1689.21 577.59 1688.61 578.61C1688.14 579.42 1685.83 578.43 1687.97 581.98L1687.98 581.99ZM1730.99 599L1729.99 605L1734.97 606L1736.99 600L1734.47 598.98L1733.97 600.99L1730.99 599ZM1695 606.38L1692.99 607.99C1700.61 608.95 1704.94 600.23 1693.99 601.01L1695 606.38ZM1204.99 613L1209.5 608.01L1210.89 610.52L1215.98 612.01L1211.99 610L1214.98 607.02C1212.2 606.7 1209.76 605.25 1207.28 607.32C1206.1 608.31 1204.77 611.32 1204.99 613ZM1048.98 630.5L1047.97 632.51L1053.95 631.51L1050.98 626.43L1045.99 627.01L1048.98 630.5ZM1703.99 642.01C1704.86 645.51 1706.37 645.56 1709.84 644.85L1710.98 639C1708.52 638.71 1707.39 641.07 1706.9 642.93L1703.99 642.01ZM947.32 661.05L949.99 656.01L939.99 659.99L947.32 661.05Z" fill="#16043A"/>
<path d="M314.51 44.6006C314.97 41.3306 317.75 31.0606 317.28 29.4706C317.09 28.8406 311.11 24.4306 310.85 21.3006L307.24 24.1906L308.69 13.9906C313.84 12.8506 310.07 19.3106 313.78 21.2506L315.98 15.4506L319.6 19.8206L330.52 0.890625C330.86 9.12062 338.18 14.9906 346.4 11.2606L349.46 18.3706L339.29 14.0006C342.47 20.0506 337.9 20.2706 336.64 23.7806C335.58 26.7406 338.28 31.1006 333.46 30.0206C333.21 24.3006 334.43 18.6106 337.82 14.0106C330.81 11.7106 326.26 19.3306 325.04 25.2506C323.36 33.4006 326.79 42.7306 333.44 47.5106L332 32.9506C336.07 32.1006 334.85 34.4406 334.92 37.3106C345.87 35.7406 351.78 31.4606 351.66 19.8306C358.39 26.4006 350.72 34.0906 351.66 41.7106L348.02 43.1306L348.75 38.7806L340.73 48.9606C346.53 50.6106 349 52.3706 355.29 51.1506C348.35 52.8106 345.72 64.0006 343.05 66.4606C340.16 69.1206 332 70.9206 330.54 74.4906C328.73 78.8906 338.09 74.6306 337.81 78.1006C328.19 76.3006 320.9 89.4006 320.23 97.8106C319.85 102.601 322.15 108.901 321.5 113.411C321.26 115.111 316.32 132.401 315.6 133.131C314.9 133.831 309.33 134.921 306.87 136.471C305.47 137.361 302.87 141.661 302.55 141.771C301.38 142.181 298.93 140.581 296.56 142.081C291.62 145.201 288.18 159.461 296.3 162.621L298.46 150.981C297 161.181 299.22 164.881 306.51 171.361L310.12 164.101C309.89 166.831 309.89 168.961 313.03 168.491C310.7 170.101 306.03 178.401 310.85 178.631C311.8 178.671 322.98 169.651 326.81 168.391C331.92 166.721 336.19 167.631 340.76 166.311C354.27 162.421 368.67 157.751 350.94 145.871L355.29 146.601C353.6 135.721 358.47 122.791 350.94 113.811L353.57 112.411L353.86 101.441L357.51 119.601C357.55 125.081 355.05 133.371 359.67 137.141L356.97 138.501C357.49 145.561 358.53 149.831 363.31 155.331L378.61 145.111C380.73 141.991 365.94 133.101 365.87 128.731C365.86 127.881 366.51 121.431 368.41 121.831C367.57 127.611 368.91 134.061 375.71 134.921C376.29 134.531 371.27 121.421 377.16 123.281L378.61 137.841C377.58 130.331 386.4 120.491 387.32 115.191C387.88 112.011 387.58 98.8906 387.46 94.8106C387.36 91.5206 385.91 88.6406 385.92 85.3806L388.81 86.8606C390.54 78.6906 386.34 73.7106 384.42 66.4406L381.55 67.9106V53.3406L382.99 59.8806L385.9 60.5806L386.64 58.0006L388.81 59.1606L391.73 48.9606C389.72 67.3406 393.45 85.6806 391.76 104.321L401.59 78.4806L400.5 62.0806L401.95 66.4706L404.84 64.9806L403.41 75.2106L406.34 74.4906L404.83 78.8106L409.22 79.5806C407.88 82.4006 404.78 81.5806 402.14 84.8606C400.72 86.6306 391.74 109.491 391.74 110.891V133.481C395.49 133.351 401.93 121.951 402.72 118.961C403.83 114.751 402.89 110.821 403.77 106.891C405.4 99.5406 409.11 93.9906 409.94 86.8506L412.13 85.3906L404.87 115.981C406.3 117.491 414.66 108.761 415.89 107.321C419.1 103.601 415.71 103.311 420.89 101.411C420.94 97.5106 419.68 93.6606 420.89 89.7406C428.42 94.5406 429.13 84.1106 433.98 81.0106C434.4 86.0806 429.25 89.5406 426.72 93.4006L429.62 95.5606C424.36 96.5906 425.86 99.5806 420.89 101.411C420.85 104.601 419.86 108.051 420.88 111.601L418.72 107.241C416.48 110.161 411.35 112.911 410.67 116.691C409.63 122.521 419.81 114.861 420.88 118.871C416.69 121.671 405.9 123.961 402.8 126.301C402.22 126.741 394.59 137.521 394.3 138.201C392.92 141.441 393.05 144.641 393.2 148.041C407.79 151.411 408.63 128.741 422.3 129.051L423.08 118.901L424.54 127.651C426.76 127.611 432.56 120.481 433.27 118.801C435 114.681 432.2 109.821 433.03 106.781C433.65 104.501 436.07 102.981 436.58 100.331C437.96 93.1206 438.12 76.6506 440.82 71.1606C441.46 69.8606 455.56 58.8206 452.95 67.1006C451.38 72.0706 444.31 65.5606 441.67 79.2006C440.68 84.3006 437.94 114.561 439.84 115.961C445.11 116.061 450.11 105.421 453.96 104.541C454.81 104.351 464.14 105.251 464.59 107.211C452.24 104.481 448.38 112.731 442.74 121.781L460.98 115.961L462.59 118.971L482.14 116.761C486.23 103.701 492.45 92.1206 500.3 81.0106L495.07 95.8706L489.38 105.771C490.02 106.551 504.36 96.3006 508.3 99.2106C505.13 102.561 499.76 102.151 496.1 104.491C493.27 106.301 493.25 108.561 491.97 109.691C491.6 110.021 489.81 108.881 488.7 110.071C483.6 115.531 488.49 115.791 488.83 116.361C492.5 122.531 487.32 118.921 485.87 118.871C485.17 118.851 485.25 122.031 480.89 122.441C471.54 123.311 459.84 119.741 450.04 123.281L457.31 127.621L444.83 127.491L443.58 124.781C429.99 128.281 420.19 132.221 419.44 148.031C421 149.491 432.62 146.381 434.74 146.861C435.61 147.061 435.34 149.221 436.44 149.471C439.18 150.081 450.65 149.991 453.74 149.571C459.54 148.781 466.92 141.271 474.1 140.791L474.8 143.661L463.13 146.611L464.59 150.961C462.94 150.951 461.44 149.931 459.76 150.061C453.46 150.531 430.81 150.361 427.46 152.321C420.97 156.121 413.91 164.731 409.23 170.651L417.95 171.351C406.02 171.251 406.1 178.401 400.37 183.651C395.08 188.501 380.95 193.321 377.05 199.801C374.68 203.721 376.3 214.701 375.7 219.471C380.82 219.281 402.01 217.251 404.14 213.661L404.85 197.601L396.11 196.171L403.39 196.141C400.33 190.951 402.69 186.161 405.57 181.551L409.22 182.331C409.98 185.921 405.12 183.801 404.76 188.121C404.33 193.221 410.84 202.851 409.23 209.261C414.66 211.091 422.63 206.401 426.93 207.091C429.15 207.441 437.03 218.081 442.73 215.941C444.22 215.171 450.14 199.171 450.9 196.181C451.87 192.351 448.54 185.611 454.38 183.041C454.03 192.441 451.69 200.281 448.58 209.271C461.78 197.471 468.5 208.331 482.07 210.731L482.18 206.481C487.84 207.861 494.43 198.301 490.82 193.251C503.47 193.081 513.1 189.751 506.86 175.761L510.47 178.651C515.37 176.051 512.88 172.821 513.6 169.711C515 163.671 518.79 157.041 515.59 150.991L519.95 149.521C518.71 157.331 516.44 165.641 517.05 173.581C517.22 175.751 515.91 177.801 519.22 177.191L529.16 161.611L543.27 148.061C544.97 155.841 539.75 153.981 536.76 156.831C534.46 159.031 530.89 167.571 528.73 170.651C532.4 173.481 539.21 163.751 541.82 168.431L527.27 175.031C527.03 180.931 535.97 171.811 534.53 178.641L527.26 178.661L530.12 183.671L521.46 195.421C524.5 200.491 528.94 192.261 530.87 192.191L540.36 196.131C535.45 196.831 528.19 196.241 523.95 199.051C522.02 200.331 523.02 203.521 519.93 205.581C517.77 207.021 511.58 208.241 508.67 208.881C505.13 209.661 498.36 207.381 499.58 212.151C503.65 213.261 508.74 213.891 512.31 216.191C518.93 220.451 529.07 229.721 537.48 231.991C540.02 232.681 542.72 231.161 543.09 231.371C543.46 231.581 543.57 233.811 544.77 234.671C546.46 235.881 549.49 234.421 549.11 236.931C538.63 237.321 529.09 230.741 520.68 225.281L519.25 228.201C516.14 221.431 508.03 221.921 503.21 216.551L502.48 219.451C500.06 220.101 501.79 216.781 500.15 216.441C496.32 215.651 492.62 219.461 488.64 219.571C481.02 219.801 479.27 216.301 471.92 224.551L479.16 232.561C471.43 226.991 465.68 222.071 455.98 227.581C453.69 228.881 452.19 231.681 449.99 233.241C447.52 234.991 444.11 235.011 442.06 236.971C440.88 238.101 434.06 255.121 433.98 256.741C433.52 266.671 440.46 263.161 444.28 263.791C447.74 264.371 457.15 269.041 458.82 268.281C463.8 266.021 460.02 260.401 460.09 256.591C460.22 249.561 463.82 253.081 466.1 252.071C468.67 250.931 473.48 243.621 476.99 243.331C477.64 243.281 486.24 245.291 486.45 247.111C480.97 247.251 475.37 245.561 471.92 250.771C474.17 253.451 477.79 253.221 480.58 255.201C483 256.911 486.97 262.491 488.67 263.151C492.21 264.511 489.79 256.471 495.99 255.841C503.27 255.101 505.71 266.521 516.09 262.921C519.05 261.891 520.83 254.971 523.62 252.971C523.69 259.821 530.2 257.291 533.08 261.691L522.3 258.951L511.97 268.971C508.09 267.691 502.98 260.971 500.73 259.861C490.73 254.961 495.15 263.991 490.11 268.961C483.64 262.521 477.32 254.111 467 256.061C461.67 257.841 468.04 271.001 460.65 273.151C452.98 275.231 446.2 261.251 435.4 271.101C431.24 274.901 430.35 282.391 423.89 284.361C414.52 287.221 399.27 283.201 389.6 285.041C388.34 285.281 378.28 293.121 377.91 293.751C376.96 295.371 375.92 305.741 376.77 307.881C378.88 313.221 386.49 316.221 389.67 319.881C391.57 322.071 391.94 325.071 393.86 327.351C398 332.241 405.95 334.301 407.82 340.371C412.95 341.311 411.71 334.241 415.06 333.111L416.32 338.721C400.2 349.881 424.81 348.271 432.3 350.121C437.33 351.371 457.54 362.221 459.55 362.071C463.11 359.221 463.2 351.951 468.99 352.061C465.51 356.871 459.35 362.561 464.62 368.061C456.64 365.791 451.21 359.441 443.09 356.821C434.97 354.201 414.53 353.921 409.32 349.791C407.35 348.231 405.46 344.171 402.74 341.801C393.12 333.451 392.53 332.381 385.15 322.961C376.66 312.141 365.1 317.111 369.1 298.041C370.47 291.531 375.05 287.841 377.19 282.111C355.05 277.471 341.07 297.041 320.94 299.431C316.53 299.951 305.36 298.551 302.82 300.261C301.09 301.421 300.19 308.551 297.72 311.191C295.83 313.221 292.89 313.271 291.66 314.601C278.91 328.311 269.55 346.321 257.71 360.771C271.2 357.981 273.1 366.491 280.27 372.471C281.74 373.701 293.73 380.571 295.19 380.901C304.82 383.081 311.1 372.441 317.36 374.631C318.66 375.081 328.27 380.861 329.15 381.871C334.8 388.301 330.06 401.671 345.84 398.701C349.99 397.921 356.18 382.731 356.37 378.761C356.53 375.341 353.29 371.831 353.88 368.071C356.84 368.411 355.81 374.381 359.1 375.111C361.62 375.661 369.15 371.781 373.43 375.401C377.67 369.231 382.13 363.881 390.3 366.621C390.13 369.241 385.77 367.651 383.08 368.851C376.14 371.941 373.53 376.951 377.19 384.081C372.53 385.341 374.69 379.971 371.85 378.151C355.41 367.601 359.81 406.251 342.91 405.801C340.77 405.741 332.9 401.721 331.26 400.161C325.48 394.681 330.59 386.321 318.93 383.301C309.26 380.801 304.62 390.491 293.47 388.411C291.8 388.101 278.96 381.101 277.35 379.751C273.24 376.291 272.74 370.281 267.98 368.721C264.85 367.691 252.73 367.141 251.02 369.471L250.48 371.591C252.75 376.741 251.15 382.331 252.19 387.431C252.86 390.711 255.99 393.971 257.02 397.181C258.21 400.911 257.19 404.661 258.79 408.521C261.35 414.681 274.27 422.841 278.88 427.771C290.53 440.231 292.91 462.691 300.82 478.691C304.72 486.581 312.45 492.121 315.22 500.711C326.44 505.231 338.47 504.211 350.08 506.641C352.15 507.071 353.87 509.031 354.91 509.201C357.38 509.591 358.21 506.411 359.73 505.741C362.66 504.451 367.97 507.921 371.34 507.991L368.42 514.501L370.9 516.451L407.77 524.001C400.79 523.711 393.65 524.471 386.67 524.001C380.44 523.571 373.43 519.851 367.6 522.411L364.8 519.651L365.71 525.291L371.34 526.931C363.3 526.201 353.69 526.431 345.86 525.481C332.83 523.901 325.6 517.581 313.41 515.671C311.35 515.351 309.32 515.101 307.24 515.301C306.09 521.061 313.46 513.691 313.06 521.111L275.84 525.661C272.12 525.401 275.34 519.471 270.08 525.461L265.82 521.061L254.79 526.221L259.15 528.381C254.43 528.731 250.36 529.011 247.53 524.751L256.25 513.841C249.37 512.941 248.57 519.641 242.32 521.021C240.54 521.411 236.31 522.151 237.3 518.941L242.39 515.261C233.45 515.041 234.42 523.201 225.14 521.121C223.65 520.791 225.14 516.811 221.27 518.211L221.98 521.121L187.77 524.011L196.5 521.091C194.54 515.901 184.78 521.471 179.55 522.371C173.83 523.361 168.06 523.651 162.27 524.041L165.89 522.551V521.121C154.34 519.851 138.95 522.981 127.93 520.671C125.5 520.161 126.02 521.351 126.55 518.191H156.42C160.3 518.191 170.39 509.391 175.69 508.321C184.4 506.551 195.41 509.381 204.22 507.631C211.02 506.281 205.69 499.741 219.1 499.141C227.51 498.761 229.63 500.751 238.83 495.681C249.7 489.691 256.06 468.231 251.1 457.041C249.54 453.521 242.82 450.841 240.19 447.541C235.95 442.221 217.82 408.541 215.81 401.971C214.8 398.661 209.64 373.631 210.15 372.031C212.6 364.271 224.44 359.501 224.3 351.311C224.21 345.901 216.82 341.841 215.74 337.931C214.85 334.711 215.92 331.331 215.36 328.111C213.72 318.671 198.57 316.871 191.04 313.161C189.07 312.191 189.04 309.571 186.41 308.941C182.33 307.961 179.92 309.541 176.1 309.811L178.29 306.901L153.18 288.181C145.89 285.641 138.95 287.941 131.68 288.011C130.01 288.031 126.18 288.961 126.56 286.521C133.46 287.701 139.97 284.341 146.38 283.721C148.74 283.491 151.55 285.471 153.36 284.951C156.22 284.131 153.81 278.751 160.06 282.141C160.72 284.591 157.28 282.801 157.03 284.421C156.16 290.131 172 300.371 177 302.341C182.78 304.621 188.63 304.091 193.57 308.341C193.86 298.271 194.06 288.801 190.65 279.201C186.72 278.071 185.33 286.241 181.95 281.381L192.07 275.571C189.16 271.051 190.21 267.541 183.38 268.991L189.19 265.381C183.9 261.421 177.04 259.811 177.56 251.521C181.72 256.741 183 260.591 189.95 263.171L192.11 260.271L192.13 266.101C195.94 267.301 198.99 262.221 201.59 262.201C204.77 262.181 207.57 267.351 210.72 268.631C213.11 269.601 225.4 272.021 225.61 268.291C221.8 263.771 221.99 256.981 223.45 251.531C227.31 254.561 223.35 257.891 224.45 262.071C225.09 264.511 228.34 266.271 228.53 269.801C228.65 272.111 226.32 276.471 227.19 277.631C227.83 278.491 236.9 280.631 239.14 285.381C242.09 291.631 238.15 298.181 237.72 304.501L251.86 324.381C256.54 311.441 270.25 301.841 278.83 290.831C281.36 285.341 272.28 261.851 267.86 258.121C261.13 252.431 238.11 254.041 226.35 244.261C222.64 241.181 221.34 236.261 218.28 233.361C216.73 231.891 213.17 231.541 212.76 230.901C207.87 223.281 225.85 208.931 212.58 195.371C211.34 194.101 202.49 187.981 201.22 187.671C194.34 186.011 192.12 193.441 182.65 185.941C174.1 179.161 177.13 173.511 174.62 164.101C168.85 169.121 163.37 163.321 157.16 167.011C161.51 162.321 145.23 150.951 143.33 150.961C141.06 150.971 137.62 155.461 133.84 153.881L138.23 152.431L136.74 149.541L142.57 148.091C130.94 142.051 117.52 140.281 104.7 137.861C105.28 133.771 113.15 138.241 113.42 137.871L114.88 132.051L117.8 138.611L145.48 144.441C141.04 133.771 126.22 123.871 114.9 123.281L117.8 121.121C113.31 117.211 107.72 114.701 103.08 111.031C101.56 109.821 99.4098 111.081 100.34 107.271L109.07 111.631L107.63 105.821L109.79 108.721L116.35 104.371C104.61 115.101 115.43 115.261 122.93 121.831L126.54 118.931C124.31 124.111 139.23 132.441 141.12 130.591L141.85 117.481C147.16 120.361 141.12 131.791 142.69 133.441C142.97 133.741 145.36 133.101 146.45 133.931C151.53 137.831 161.32 150.871 166.66 152.431C169.92 153.381 168.58 151.151 168.26 149.371C166.52 139.671 158.92 131.491 161.55 121.131C162.1 118.961 160.5 118.551 164.43 118.931L165.75 125.611L162.92 128.311C164.5 135.511 170.7 142.541 168.81 149.541C180.5 146.621 176.15 155.091 184.08 158.281C189.62 153.311 182.96 145.301 179.01 141.521L181.93 140.101L179.01 134.981L183.4 140.791L189.2 136.421C190.48 137.951 183.04 143.001 188.51 148.101C191.58 150.961 196.47 147.281 192.11 156.801L196.52 156.821L195.63 161.191C206.32 168.871 216.28 174.321 230 174.291L225.3 161.521L206.7 159.711C206.36 157.171 210.01 158.341 211.78 158.271C215.9 158.101 220.07 158.401 224.18 158.261C223.51 153.771 216.86 150.401 215.89 147.131C214.81 143.511 216.35 134.611 216.89 130.591L211.07 132.031L213.98 128.391L208.16 127.651L213.98 126.201C211.93 121.391 212.99 116.981 208.9 113.061C203.58 107.971 202.76 112.791 198.64 113.781C196.59 114.271 182.94 113.431 181.38 112.911C180.17 112.511 177.07 106.831 176.85 105.751C176.47 103.921 180.91 101.211 176.05 99.2306C174.19 98.4706 172.23 100.041 170.33 99.2606C168.88 98.6606 167.49 96.1006 165.51 95.2206C160.04 92.7706 156.3 95.4806 151.33 97.0606L152.8 92.7406L136.77 89.7706L141.12 86.8906L135.31 83.2206C140.98 82.7406 146.06 88.2406 151.35 90.5706C152.67 91.1506 154.61 89.8306 155.41 90.2506C155.73 90.4206 155.68 92.6606 156.56 92.7906C159.64 93.2606 167.28 88.0706 171.31 87.9006L180.47 72.3106C179.81 71.7506 165.92 71.3406 163.32 70.3206C163.03 70.2106 158.98 66.4806 160.09 65.0206C161.45 63.8206 167.64 68.7906 169.93 69.1806C172.73 69.6506 174.14 68.1506 175.48 68.0906C175.87 68.0706 176.69 72.6506 180.48 70.8406C182.6 63.7506 176.12 60.8506 174.63 58.1006C172.61 54.3406 168.87 47.4806 167.39 43.8606C167.12 43.1906 167.01 41.4806 168.09 41.7106L171.73 44.6206C172.41 38.1806 171.71 26.6406 173.17 20.7906C173.54 19.3106 177.59 20.7306 176.1 16.9306L173.21 18.4106V8.20062C176.06 8.63062 175.33 13.4206 176.88 15.5806C177.79 16.8506 179.62 15.5806 180.15 15.9706C181.21 16.7706 181.01 18.6806 184.02 20.0506C189 22.3106 194.41 20.7606 197.96 16.9306L195.09 22.0306C197.31 25.6006 202.77 21.0106 202.34 27.1206C201.28 28.0606 190.73 23.2606 188.46 22.8506C186.89 22.5706 184.87 23.8606 182.87 23.7206C181.53 23.6206 178.31 19.7806 175.99 23.7206C174.97 25.4506 173.64 34.0606 173.97 36.1206C174.6 40.0406 181.13 39.7106 180.48 44.6206L174.68 43.1606C171.87 51.1406 174.63 57.8506 183.41 59.1906C180.92 52.3306 187.64 46.5806 188.46 41.8906C188.98 38.9406 185.91 31.8306 190.69 30.0606C193.53 38.8006 189.62 41.5006 187.66 48.2806C186.69 51.6306 187.92 54.9106 184.89 57.0206L187.79 59.1906C179.37 60.2606 190.4 65.2006 194.65 63.9506C199.1 62.6406 205.28 55.1206 206.43 50.8906C207.72 46.1706 205.38 35.5406 205.29 30.0706L212.56 34.4706C210.32 36.8206 208.16 41.4106 212.54 43.1806L214 37.3706C217.94 42.9606 209.74 47.0606 209.67 48.2906C209.47 52.3406 217.17 47.0206 216.92 50.4606L209.66 54.1406L212.55 57.7506C206.2 58.9206 194.53 66.6006 196.78 74.2206C199.01 79.6206 204.83 78.1106 209.64 78.1806C210.37 80.3306 203.97 79.2606 206.74 82.5106C206.9 82.7006 209.7 83.1006 211.14 84.6206C216.47 90.2106 214.73 88.2906 219.33 90.9906C229.22 96.7906 233.76 97.5806 233.58 111.021C233.48 118.641 225.28 126.031 228.43 132.911L225.58 134.421C226.86 137.921 226.54 142.051 227.53 145.541C229.85 153.731 238.07 163.781 244.62 168.521C243.5 168.481 241.65 168.011 241.69 169.261L244.62 174.331C233.03 176.131 242.01 179.311 245.41 183.021C249.14 187.091 251.77 192.751 256.26 196.201L254.67 175.341C251.9 172.161 248.22 171.111 244.62 168.511C249.11 168.671 250.83 170.871 254.81 171.421C255.73 170.481 247.56 146.371 241.72 152.481C240.87 148.681 242.75 150.311 244.72 148.681L241.7 137.921C246.48 136.941 244.19 142.271 246.4 144.851C247.83 146.521 250.83 146.881 251.88 144.441C251.24 139.301 246.51 129.801 251.88 126.261C250.26 131.231 253.76 135.211 254.38 138.831C255.08 142.941 251.18 149.061 259.17 152.491V142.301C263.06 151.041 260.98 158.071 266.19 166.611C269.39 171.861 274.4 175.631 279.57 178.711C281.37 167.491 275.09 133.981 266.59 126.851C264.47 125.071 261.73 125.221 260.91 124.571C260.51 124.251 260.12 118.031 256.27 116.071L269.37 126.261L263.56 105.871C267.69 105.121 265.95 106.861 266.84 109.061C268.65 113.571 270.17 118.501 270.86 123.331L278.12 113.141C277.69 118.701 272.28 122.721 272.24 128.421C272.21 132.651 276.03 143.201 278.87 146.651C278.19 137.211 291.52 139.091 289.81 129.181L291.26 133.551C301.07 129.801 299.78 117.461 297.07 108.781L294.19 117.511C291.65 109.161 297.01 102.441 298.21 96.0506C299.5 89.1406 297.67 86.3106 300.35 79.5206C302.87 73.1306 300.88 71.3106 296.49 76.8506L289.82 92.7506C290.6 89.7306 292.43 77.0106 293.57 75.2406C294.71 73.4706 304.05 69.5406 295.67 70.0106C295.58 68.0206 294.98 66.4206 293.55 64.9806C290.53 61.9506 283.51 61.4106 281.08 57.8006L292.72 60.7106L294.17 56.3306L294.43 63.3606L298.53 65.0706L299.84 58.8006C299.1 55.8506 295.45 55.7206 294.57 54.5906C294.25 54.1806 295.17 52.2606 294.49 51.0106C291.18 44.9506 287.14 40.2706 289.83 33.0206L296.38 49.0306L300 40.3006C298.59 45.0706 295.53 58.1606 302.91 54.8606L308.03 66.5206C309.93 61.2606 310.25 51.5306 312.27 46.7506C312.97 45.0806 314.48 44.8906 314.58 44.6706C314.29 46.7106 315.87 48.8506 315.83 49.8106C315.8 50.6806 305.6 58.5906 318.94 62.1406C321.55 57.1406 318.39 56.3606 317.51 51.9506C321.11 55.2706 324.71 53.8506 329.25 54.1906C333.33 45.0806 327.25 48.2606 325.01 45.9306C324.47 45.3706 323.96 33.3606 319.68 31.5606C319.45 36.7906 316.45 40.7006 314.59 44.6706L314.51 44.6006ZM340.74 64.9906C341.94 63.2306 337.21 54.5206 334.42 54.9406L324.86 61.5806L326.18 72.2906C330.47 66.4006 333.75 66.1206 340.73 64.9906H340.74ZM323.25 63.5506C322.18 62.1306 316.23 68.5706 315.95 69.0106C314.96 70.6306 312.07 76.9906 313.07 78.1106C316.77 75.8106 319.41 77.1606 323.25 78.1106V63.5506ZM179.01 86.8506C184.11 88.4906 187.83 85.4106 191.39 84.6606C193.71 84.1806 198.8 87.6206 199.39 81.7806C194.55 78.7406 191.62 79.0206 191.39 72.3006L186.39 77.5906L190.66 83.9306L181.94 79.5806L179.01 86.8506ZM321.79 79.5806C314.31 78.2206 312.47 84.7206 308.69 89.1006C307.41 90.5806 304.79 90.9806 304.46 91.4506C301.97 94.9006 309.64 103.531 313.81 104.331L315.39 93.9906L321.79 79.5906V79.5806ZM209.5 87.0306L198.06 88.4306L199.4 102.901C207.94 103.681 204.32 93.2506 213.96 94.1306C214.86 93.0106 210.75 91.7606 209.97 90.7606C209.19 89.7606 209.85 87.3706 209.49 87.0306H209.5ZM196.49 88.3106C191.43 88.5806 186.22 87.9506 181.16 88.3106C179.6 88.4206 176.28 87.5206 177.55 90.4806C178.49 92.6706 184.06 95.6706 183.38 99.9706C187.87 94.2706 192.63 104.321 197.56 97.8506L196.49 88.3106ZM219.78 126.191C221.97 119.571 227.6 106.441 220.63 101.331C214 96.4606 204.19 107.351 214.01 111.241L219.78 126.191ZM197.93 101.431H184.83C180.72 106.781 199.79 112.651 197.93 101.431ZM315.84 105.921L302.87 101.431C305.34 112.361 309.29 119.401 304.33 130.551C312.68 132.661 317.35 107.641 315.85 105.911L315.84 105.921ZM385.93 121.841C386 124.341 376.45 143.451 382.26 143.651C388.83 143.881 387.54 131.031 387.37 126.911C387.3 125.141 388.48 121.491 385.93 121.841ZM416.3 147.851L417.95 136.401L409.23 147.341L416.3 147.851ZM415.05 149.521C412.73 149.901 408.23 148.691 406.54 149.751C405.31 150.521 394.01 173.001 393.8 175.711C393.31 181.931 396.34 180.671 399.64 177.091C402.35 174.161 418.14 152.131 415.05 149.531V149.521ZM369.36 171.861C371.35 176.061 372.36 183.241 377.21 185.281C389.13 190.291 396.87 147.371 376.79 152.761C369.54 154.711 362.97 161.831 366.55 169.541C367.38 171.321 369.2 171.531 369.35 171.861H369.36ZM275.16 178.681C263.66 175.301 263.63 162.441 256.24 155.351C257.16 167.851 254.51 176.631 268.96 179.771C270.4 180.081 275.43 181.391 275.15 178.681H275.16ZM186.3 172.831C193.9 169.411 188.77 163.991 187.72 158.261L183.25 160.691L186.3 172.831ZM187.75 175.731C199.51 178.061 214.44 191.511 222.69 177.931C218.12 173.301 211.38 175.101 205.62 173.171C201.05 171.641 197.55 165.971 194.32 165.521L187.75 175.731ZM285.35 167.031L282.45 167.741L284.23 182.731L298.48 190.311C300.28 178.941 290.17 174.541 285.35 167.031ZM311.6 199.061H339.29V200.521H312.33C309.35 202.021 310.92 208.591 311.99 211.071C316 220.311 327.57 221.211 336.37 220.931C338.93 225.561 323.52 234.581 326.18 236.941L344.24 235.651C346.28 221.601 351.23 226.081 360.12 223.531C365.87 221.881 365.14 204.561 365.53 199.051L358.22 198.331L368.44 195.381C361.43 186.051 370.19 178.381 356.33 172.461C354.39 171.631 352.7 172.941 351.88 172.731C350.65 172.421 351.49 169.801 348.84 169.771C345.87 169.751 330.66 174.581 327.22 176.071C317.73 180.161 305.59 187.391 311.59 199.061H311.6ZM279.49 183.081L259.15 178.661C257.56 180.451 262.82 213.251 264.82 217.451C267.42 222.931 270.24 225.231 271.81 233.501C272.09 234.991 270.64 237.081 271.04 238.851C271.58 241.261 279.38 245.871 281.53 245.461C283.17 245.151 291.85 235.751 292.96 233.601C294.18 231.231 299.37 211.521 298.49 210.731C288.16 212.531 287.22 207.461 281.4 201.631L279.49 183.091V183.081ZM241.18 184.981C240.55 184.421 237.58 182.821 237.31 183.031C235.76 191.101 228.76 199.101 237.37 205.531C241.61 206.691 253.72 218.951 256.91 217.991C266.5 215.101 244.94 188.351 241.18 184.981ZM495.28 206.261C509.77 205.391 521.23 204.441 520.75 187.321C514.43 182.171 515.91 186.341 512.67 189.641C509.95 192.411 506.85 191.121 508.3 197.601C504.04 195.051 499.98 197.181 495.47 197.861L495.29 206.261H495.28ZM298.48 204.881C298.95 195.491 290.95 191.451 283.93 187.401C283.76 197.371 287.64 204.871 298.48 204.881ZM263.51 238.391C264.06 220.561 259.18 226.821 249.86 222.181C244.67 219.601 244.37 214.601 241.57 211.531C239.76 209.541 235.17 207.121 232.94 204.881C225.17 233.161 239.65 236.211 263.52 238.391H263.51ZM474.8 215.101C468.52 213.421 463.87 208.931 456.78 210.901L452.96 223.821C460.02 219.111 470.39 223.691 474.8 215.101ZM429.5 267.421C430.34 266.071 425.43 260.291 425.9 256.581L439.65 223.241C429.17 216.091 424.28 211.411 411.75 216.871C396.74 223.411 398.54 221.681 382.66 224.211C370.76 226.101 371.5 233.721 364.06 241.301C373.06 241.451 382.91 247.031 391.37 248.251C396.14 248.941 400.84 248.421 405.61 248.601C407.37 248.671 411.03 247.511 410.69 250.041C392.25 253.051 377.37 244.061 359.7 242.781L369.94 255.211C369.27 260.121 367.38 265.141 362.3 266.631C356.97 268.191 356.56 264.881 352.7 263.591C341.15 259.741 345.84 261.211 337.82 255.171C330.58 249.721 310.04 256.231 300.78 248.511C291.54 258.281 299.55 259.631 301.06 268.621C301.8 273.001 300.43 282.541 302.1 285.061C304.77 289.101 308.33 283.891 309.45 283.881C310.64 283.871 311.98 287.601 315.13 287.821C331.95 288.981 346.78 267.511 373.37 270.611C388.12 272.331 395.26 276.061 412.86 276.291C414.88 276.321 417.09 277.701 418.81 277.621C423.47 277.401 424.75 271.561 426.73 268.571C427.5 267.411 429.42 267.571 429.51 267.421H429.5ZM323.25 225.301L314.57 223.921C315.57 228.611 311.96 228.041 310.14 231.101C316.35 231.731 321.87 233.451 323.25 225.301ZM345.54 253.991C347.93 255.921 358.82 259.481 359.69 255.131L352.96 246.041L342.21 247.161C341.37 247.861 344.69 253.311 345.54 254.001V253.991ZM205.23 271.901L203.77 266.751L196.5 267.561C200.69 276.031 197.5 273.611 195.8 277.771C193.12 284.321 197.67 289.031 197.84 294.631C197.99 299.451 194.8 304.461 197.95 310.181L218.34 318.541C222.22 315.601 212.54 289.271 234.37 302.511C235.44 298.191 237.07 291.701 235.6 287.451C234.38 283.931 226.28 281.711 224.26 279.861C222.5 278.241 222.82 275.331 221.26 274.111C218.45 271.911 209.02 271.921 205.24 271.901H205.23ZM238.22 334.091L239.94 329.691L232.2 318.551C224 326.801 228.54 331.371 231.48 340.401L238.22 334.101V334.091ZM184.82 512.351C182.36 510.251 169.12 518.031 167.34 521.071L181.92 516.151L184.82 512.351ZM362.59 522.561C351.24 520.721 340.31 511.101 329.1 513.821C330.65 516.171 336.64 517.991 339.35 518.841C344.41 520.441 351.29 522.431 356.39 523.661C357.83 524.001 362.85 525.301 362.59 522.571V522.561Z" fill="#16043A"/>
</svg>
