<svg width="1929" height="848" viewBox="0 0 1929 848" fill="none" xmlns="http://www.w3.org/2000/svg">
<path d="M2047 0H-249V551H2047V0Z" fill="url(#paint0_linear_56_3)"/>
<path d="M-118 257.491C-12.88 165.751 74.07 107.491 109.27 104.881C117.4 104.281 137.33 102.801 150.82 115.171C160.94 124.451 162.73 137.231 163.67 141.851C171.37 180.021 235.82 236.211 292.33 236.031C347.38 235.861 411.04 182.131 453.24 170.511C459.19 168.871 465.1 167.551 465.1 167.551C482.25 160.521 502.08 153.591 524.4 147.781C541.7 143.281 557.95 140.121 572.83 137.901C598.24 154.801 606.46 171.541 609.4 183.361C616.3 211.111 600.31 236.661 615.33 251.551C619.4 255.591 626.72 259.791 632.61 270.461C634.48 273.841 635 276.111 638.08 283.821C643.17 296.541 646.31 305.211 647.79 308.951C678.86 387.181 862.72 415.191 900.93 420.551C1084.22 446.251 1143.45 403.181 1207.29 460.241C1243.81 492.871 1249.91 530.111 1299.48 547.181C1338.77 560.721 1375.68 551.801 1415.82 542.111C1472.71 528.371 1523.32 516.151 1544.19 476.281C1570.38 426.231 1527.07 375.821 1555.17 348.401C1575.19 328.871 1601.94 349.791 1646.87 338.971C1709.53 323.881 1700.88 260.661 1771.61 224.861C1812.43 204.201 1820.96 220.721 1867.47 196.201C1920.93 168.011 1952.48 123.611 1956.41 127.021C1960.64 130.691 1920.38 178.581 1930.71 190.271C1933.03 192.891 1936.66 192.191 1939.21 192.851C1963.49 199.061 1945.45 341.961 1943.83 366.461C1933.85 517.301 1976.13 667.451 1971.63 818.551C1971.08 837.061 1967.89 858.751 1951.58 867.511C1945.76 870.641 1939.04 871.561 1932.48 872.391C1652.54 907.821 1369.35 867.501 1088.93 835.991C719.16 794.451 347.67 768.201 -24.27 757.351C-13.87 702.381 -44.38 648.401 -49.87 592.721C-54.06 550.251 -41.3 542.801 -39.15 484.201C-36.87 421.981 -35.8 380.541 -55.99 335.981C-72.56 299.431 -97.41 274.071 -117.99 257.471L-118 257.491Z" fill="url(#paint1_linear_56_3)"/>
<mask id="mask0_56_3" style="mask-type:luminance" maskUnits="userSpaceOnUse" x="-118" y="104" width="2090" height="783">
<path d="M-118 257.491C-12.88 165.751 74.07 107.491 109.27 104.881C117.4 104.281 137.33 102.801 150.82 115.171C160.94 124.451 162.73 137.231 163.67 141.851C171.37 180.021 235.82 236.211 292.33 236.031C347.38 235.861 411.04 182.131 453.24 170.511C459.19 168.871 465.1 167.551 465.1 167.551C482.25 160.521 502.08 153.591 524.4 147.781C541.7 143.281 557.95 140.121 572.83 137.901C598.24 154.801 606.46 171.541 609.4 183.361C616.3 211.111 600.31 236.661 615.33 251.551C619.4 255.591 626.72 259.791 632.61 270.461C634.48 273.841 635 276.111 638.08 283.821C643.17 296.541 646.31 305.211 647.79 308.951C678.86 387.181 862.72 415.191 900.93 420.551C1084.22 446.251 1143.45 403.181 1207.29 460.241C1243.81 492.871 1249.91 530.111 1299.48 547.181C1338.77 560.721 1375.68 551.801 1415.82 542.111C1472.71 528.371 1523.32 516.151 1544.19 476.281C1570.38 426.231 1527.07 375.821 1555.17 348.401C1575.19 328.871 1601.94 349.791 1646.87 338.971C1709.53 323.881 1700.88 260.661 1771.61 224.861C1812.43 204.201 1820.96 220.721 1867.47 196.201C1920.93 168.011 1952.48 123.611 1956.41 127.021C1960.64 130.691 1920.38 178.581 1930.71 190.271C1933.03 192.891 1936.66 192.191 1939.21 192.851C1963.49 199.061 1945.45 341.961 1943.83 366.461C1933.85 517.301 1976.13 667.451 1971.63 818.551C1971.08 837.061 1967.89 858.751 1951.58 867.511C1945.76 870.641 1939.04 871.561 1932.48 872.391C1652.54 907.821 1369.35 867.501 1088.93 835.991C719.16 794.451 347.67 768.201 -24.27 757.351C-13.87 702.381 -44.38 648.401 -49.87 592.721C-54.06 550.251 -41.3 542.801 -39.15 484.201C-36.87 421.981 -35.8 380.541 -55.99 335.981C-72.56 299.431 -97.41 274.071 -117.99 257.471L-118 257.491Z" fill="white"/>
</mask>
<g mask="url(#mask0_56_3)">
<path d="M1250.82 557.071C1203.66 537.291 1191.63 556.751 1165.43 539.231C1148.92 528.191 1142.83 509.371 1126.26 497.371C1106.19 482.831 1089.75 479.071 1062.22 478.861C963.88 478.111 904.88 520.841 808.3 468.111C786.27 456.081 757.05 439.401 736.39 432.001C696.7 417.801 658.87 418.731 624.65 395.351C609.86 385.241 599.87 372.101 588.36 358.471C578.4 346.691 569.82 334.101 571.11 318.131C571.9 308.341 578.18 300.051 576.87 290.061C575.87 282.441 570.91 276.981 566.12 271.731C557.89 262.711 549.3 254.471 541.34 245.671C531.93 235.251 520.74 226.721 518.12 212.231C513.9 188.911 528.73 170.991 545.47 156.461C562.21 141.931 579.42 130.351 587.02 108.561C600.32 117.961 607.39 128.041 610.6 144.601C613.82 161.231 615.4 169.551 613.32 190.901C609.8 226.901 647.11 268.201 665 288.011C692.97 318.981 698.62 308.961 778 370.011C785.64 375.891 794.36 382.721 808 389.011C831.47 399.831 852.66 401.251 883 403.011C904.45 404.251 920.81 403.631 936 403.011C975.98 401.381 975.63 398.091 997 398.011C1057.28 397.781 1066.92 423.911 1100 413.011C1113 408.731 1125.55 407.271 1150.66 404.371C1152.33 404.181 1156.52 403.751 1161.09 405.621C1164.28 406.921 1166.32 408.801 1167.11 409.541C1179.59 421.221 1185.84 427.061 1192.99 437.021C1207.46 457.161 1226.62 449.651 1252.59 469.201C1274.48 485.681 1270.09 497.961 1286.04 513.591C1329.42 556.061 1417.46 519.781 1421.99 535.021C1424.94 544.981 1388.17 563.131 1357.99 578.021C1352.81 580.571 1343.91 584.751 1331.99 585.021C1321.7 585.251 1313.9 582.461 1309.99 581.021C1283.96 571.441 1256.73 559.571 1250.81 557.091L1250.82 557.071Z" fill="url(#paint2_linear_56_3)"/>
<path d="M1667.29 440.62C1681.35 434.65 1697.81 425.17 1697.3 409.9C1697.13 404.68 1694.83 399.5 1695.89 394.39C1697.9 384.7 1712.83 382.52 1720.95 380.14C1751.96 371.05 1749.3 349.44 1783 330.99C1807.06 317.83 1811.98 326.89 1846 312.99C1846 312.99 1870.57 302.95 1898 281.99C1935.76 253.14 1980.58 188.22 2011 97.9902C1876.95 159.51 1772.35 206.09 1678.31 245.94C1654.14 256.18 1577.33 296.17 1530.57 361.37C1510.74 389.02 1497 426.68 1513.4 456.5C1516.78 462.65 1521.31 468.13 1524.53 474.37C1532.78 490.3 1524.23 527.94 1539.1 531.52C1557.38 535.92 1567.68 518.65 1572.02 504.94C1577.65 487.16 1580.1 479.18 1597.96 470.14C1620.22 458.88 1644.31 450.35 1667.28 440.61L1667.29 440.62Z" fill="url(#paint3_linear_56_3)"/>
<path d="M148.74 194.74C148.35 199.88 147.17 205.44 147.17 205.44C146.66 208.51 145.99 210.34 145.96 210.44C145.55 211.88 141.51 262.21 192.99 310C223.1 337.95 246.38 341.05 248.99 363C249.8 369.78 248 373.09 247.74 394.79C247.58 407.99 249.16 417.95 248.67 427.47C246.89 462.07 244.76 508.27 256.71 543.97C263.89 531.61 296.91 518.65 304.36 505.06C337.36 444.83 384.48 440.31 391.38 436.25C487.26 379.73 727.42 586.41 727 587.01C726.84 587.24 685.64 562.41 645 523.01C626.7 505.26 622.19 497.83 605 480.01C585.47 459.77 555.77 432.55 513 405.01C499.79 393.1 486.45 380.77 473 368.01C462.04 357.61 451.38 347.28 441 337.01C429.11 326.54 418.48 319.49 411 315.01C396.75 306.46 351.93 282.03 347.67 279.57C345.5 278.31 343.96 277.05 343.39 276.54C342.08 275.37 341.19 274.42 341.09 274.31C336.8 269.66 267.51 245.2 246 212C240.96 204.21 245.99 207.44 236.97 183.71C236.97 183.71 220.38 133.68 183 108.03C180.99 106.65 173.57 102.44 170.55 102.41C164.3 102.35 161.65 104.22 158.57 103.94C144.36 102.64 136.96 42.36 138.99 42C142.16 41.44 155.64 65.04 147.99 79C144.81 84.81 140.79 83.72 135.99 89C119.97 106.64 136.56 149.87 138.99 156C138.99 156 149.62 183.26 148.73 194.74H148.74Z" fill="url(#paint4_linear_56_3)"/>
</g>
<path d="M1840.3 133.129C1842.63 131.939 1845.15 139.159 1845.19 140.979L1848.28 141.199C1847.75 142.279 1847.55 143.349 1847.88 144.539C1849.46 150.379 1852.58 156.539 1855.05 161.759C1856.06 163.899 1855.05 167.929 1858.1 165.999L1858.49 166.819C1856.43 168.399 1857.24 171.589 1856.1 174.719C1854.22 179.879 1848.64 185.679 1847.64 190.979C1847.48 191.839 1848.55 192.989 1848.51 194.069C1848.24 201.889 1848.18 209.519 1852.02 217.289C1853.19 219.659 1855.95 224.769 1858.81 223.599L1857.71 225.719C1861.49 227.949 1860.75 232.779 1862.61 235.459C1865.65 239.839 1877.41 250.289 1882.24 252.389C1883.02 252.729 1886.75 253.099 1887.1 252.449C1885.05 248.789 1887.9 241.939 1891.53 245.239L1894.78 242.569C1897.1 245.389 1894.14 246.919 1893.72 249.029C1893.07 252.229 1894.19 259.889 1897.41 260.969C1900.44 261.979 1897.01 257.559 1897.24 256.509C1897.48 255.379 1899.2 255.239 1899.37 254.719C1899.66 253.819 1897.57 251.559 1898.85 249.969C1901.07 251.799 1902.76 248.809 1904.07 248.969C1905.38 249.129 1906.16 251.959 1909.29 249.079C1905.79 247.659 1905.06 244.699 1903.59 241.479L1908.15 242.389L1906.97 237.799L1909.41 241.789C1911.99 239.389 1908.51 237.069 1912.43 236.209L1909.58 232.409L1914.19 231.239C1916.13 233.629 1913.11 233.109 1912.75 234.219C1912.57 234.759 1913.39 235.729 1913.27 236.509C1913.15 237.289 1911.43 237.129 1912.4 238.289L1918.45 238.009L1916.53 240.479C1919.11 242.859 1921.8 241.249 1924.47 239.779C1922.11 245.639 1933.01 247.279 1924.7 251.039L1923.92 247.279L1922.3 248.109C1923.95 250.649 1919.29 250.069 1921.33 252.629L1924.15 253.219L1925.93 251.489C1926.16 251.529 1925.56 254.229 1928.06 255.359C1931.67 256.979 1929.5 253.099 1931.32 253.049C1934.53 255.979 1935.05 255.519 1939.21 254.489L1939.68 252.149C1940.18 255.339 1945.54 255.729 1945.74 256.059C1946.68 257.619 1945.51 262.099 1948.25 263.549L1939.94 265.489L1941.4 275.839C1940.58 278.409 1938.01 278.719 1936.7 280.759C1935.15 283.189 1935.61 285.549 1934.32 287.729C1931.72 292.129 1919.67 286.249 1923.57 297.799C1924.55 300.689 1929.82 301.329 1928.88 297.759L1933.07 296.739L1934.72 300.049L1935.98 298.399C1938.6 299.959 1932.88 310.219 1930.28 311.369L1931.24 314.479C1934.36 318.499 1966.06 304.079 1971.38 302.149C1978.1 299.709 1985.13 298.549 1991.48 294.689L2003.64 292.879C2000.52 295.239 1995.56 298.589 1992.06 299.979C1990.54 300.589 1987.79 299.879 1984.86 301.459C1982.31 302.829 1981.34 304.309 1979.66 306.459L1978.28 304.489C1972.78 305.069 1970.59 309.369 1967.04 312.499L1966.66 310.619L1964.98 311.429L1965.36 313.299C1963.56 312.559 1962.23 311.649 1960.79 313.339L1958.3 311.509L1958.26 313.619L1957.01 312.239L1949.04 316.999L1952.79 317.249L1952.71 319.359L1932.57 327.959L1933.85 326.319C1934.41 324.159 1926.43 328.039 1925.49 328.279L1930.8 327.809L1931.71 329.439L1909.86 338.839L1908.22 336.659C1905.45 338.319 1903.59 339.329 1902.3 342.469L1901.94 339.549L1898.37 340.729L1901.05 342.029C1898.91 342.799 1896.8 344.459 1894.72 345.149C1893.64 345.509 1887.79 342.799 1888.03 347.229L1891.79 346.459L1864.49 358.509C1861.87 355.269 1869.58 355.949 1869.17 353.179C1863.91 355.269 1859.95 355.869 1856.11 360.449C1856.02 358.099 1858.61 355.939 1860.28 354.589C1866.93 349.209 1884.75 337.789 1892.44 333.769C1905.85 326.759 1912.38 330.549 1905 311.619L1903.12 311.659C1902.04 296.219 1894.56 277.909 1882.53 266.909C1877.05 261.899 1868.76 257.769 1862.92 252.709C1851.7 242.999 1844.57 228.879 1828.76 224.619C1825.54 223.749 1802.7 220.149 1799.93 220.159C1795.97 220.179 1790.08 222.509 1785.85 221.359C1785.3 221.209 1776.16 216.699 1775.73 216.339C1773.31 214.329 1779.75 215.459 1777.44 213.479C1772.84 209.529 1767.86 204.999 1762.18 203.169L1764.3 201.129C1761.79 200.189 1759.73 201.999 1757.04 201.889C1756.5 201.869 1750.78 200.449 1750.1 200.199C1748.73 199.689 1748.49 197.359 1746.62 198.709L1746.22 197.899C1748.72 196.499 1748.15 194.619 1746.7 192.529C1743.94 193.639 1742.07 193.979 1740.06 191.529L1745.9 190.789C1740.59 186.619 1742.58 181.119 1738.21 176.879L1736.1 178.929L1734.07 174.729L1731.96 176.769L1732.06 170.529L1725.34 173.749L1730.2 181.749C1727.11 183.899 1724.75 181.259 1722.38 181.099C1720.59 180.979 1719.29 182.859 1718.86 182.919C1718.21 183.019 1717.72 180.739 1715.61 182.529C1715.32 182.779 1715.88 183.939 1715.6 184.279C1712.08 188.559 1712.08 187.439 1707.53 189.569C1704.84 190.829 1700.93 193.719 1703.26 196.749L1700.36 197.039L1700.38 195.019L1698.25 195.999V198.109L1695.33 197.399L1697.88 194.119L1694.96 192.759L1693.73 194.059C1691.11 190.959 1695.21 188.719 1692.58 187.369L1697.61 185.109L1699.26 186.229L1696.86 181.179L1699.73 182.899C1697.99 181.299 1699.85 179.679 1699.84 179.509C1699.77 178.219 1696.53 177.369 1700.9 174.469C1702.16 173.629 1705.37 174.189 1702.84 170.959C1701.56 169.329 1693.01 167.659 1700.85 165.819L1698.17 164.519C1700.63 161.859 1700.08 162.389 1700.23 158.979L1703.09 157.509L1703.03 159.589L1704.7 158.789C1703.99 156.539 1704.46 155.339 1706.89 154.659L1708.52 155.949L1707.49 151.689C1709.37 150.629 1711.25 150.979 1711.58 148.289L1714.48 151.009L1715.65 149.679C1716.88 151.289 1718.5 150.959 1720.29 150.319L1717.69 155.679L1721.89 153.819L1723.14 155.999L1727.92 155.469L1726 157.929L1727.61 161.279L1731.41 158.419L1733.46 160.549C1731.68 157.809 1735.78 157.879 1737.6 156.409C1739.17 153.669 1725.58 146.779 1723.51 146.159C1705.25 140.689 1693.06 141.439 1674.81 141.459C1671.92 141.459 1669.47 139.309 1666.67 139.769L1667.82 138.109L1665.92 133.939C1667.15 136.359 1670.02 139.169 1672.95 137.809L1667.35 123.949C1664.6 125.189 1665.61 130.679 1666.36 132.689C1665.19 133.519 1664.1 130.839 1663.64 129.989C1662.74 128.319 1662.47 126.339 1661.51 124.679L1663.96 127.639L1663.62 122.619L1665.7 122.669C1665.04 117.329 1657.81 116.949 1661.13 121.739L1656.97 121.669L1660.25 124.229L1655.65 124.379C1655.77 126.139 1654.9 128.059 1653.36 129.059C1650.36 131.009 1648.83 127.879 1647.38 134.019L1651.29 135.769C1648.15 136.349 1644.75 133.319 1642.17 135.879L1639.88 133.389C1637.01 135.809 1633.64 136.269 1629.96 135.669L1626.68 126.139L1628.36 122.439L1623.11 124.429L1622.82 117.329L1626.14 116.839L1626.18 114.629L1630.36 114.739C1629.87 110.289 1632.6 112.249 1634.05 109.969C1634.7 108.949 1634 107.199 1634.92 105.889C1636.25 103.979 1640.06 103.279 1638.54 100.499C1638.88 99.2092 1641.17 103.509 1641.85 100.969C1641.95 100.609 1639.64 98.2092 1639.35 98.1392C1639.17 98.0992 1638.77 99.2792 1638.16 99.3092C1637.83 99.3292 1637.3 97.0992 1636.04 99.6192L1634.83 97.0892L1637.75 96.7392L1636.54 94.1992L1640.92 93.9892L1643.7 89.7292L1645.74 91.8592C1644.46 88.1592 1647.98 84.4992 1650.39 88.5992L1649.12 90.2392L1653.28 91.3692L1650.84 87.3692L1655.82 86.0692L1655.08 83.2392C1657.67 83.5692 1656.58 83.0592 1656.78 81.3892L1658.82 83.5192C1660.4 78.7892 1653.01 78.2492 1656.28 72.8392L1651.53 71.5092C1654.63 70.4792 1653.26 66.8792 1657.03 65.7192L1655.43 62.3992L1652.47 64.8392L1650.86 61.4792C1654.11 59.9892 1653.66 65.1392 1654.24 58.8192L1655.89 60.0992L1655.49 58.2192L1660.54 55.7892L1661 58.5492L1662.78 58.3292L1662.51 62.0792C1664.28 61.1292 1666.26 62.0092 1666.51 59.6492L1664.24 59.1992C1668.16 59.3492 1670.46 52.8092 1673.46 55.8092L1675.59 52.7292L1679.31 56.1092L1680.98 55.3092C1676.75 52.1992 1685.71 53.4892 1686.82 54.5892L1684.15 51.2792L1685.64 49.9692C1682.62 48.4692 1679.46 52.6092 1674.87 50.8292L1673.26 43.4992L1675.31 45.6292L1676.91 43.7592C1678.84 46.0192 1680.94 45.0592 1678.59 43.2292C1680.9 41.5992 1676.99 40.3192 1679.19 37.5692C1683.42 39.8192 1684.73 38.8792 1688.31 36.3492L1690.24 37.9692L1689.95 41.6992L1690.87 37.1292C1696.08 35.8692 1697.95 43.3992 1702.23 43.5892L1699.91 45.2292L1702.38 46.0892C1696.45 52.4992 1694.19 40.7192 1687.75 47.9292L1687.8 45.8492L1684.43 47.4592L1686.08 50.7192C1691.13 51.2792 1695.02 45.2392 1696.87 51.8292C1699.06 49.9692 1700.64 48.2692 1703.8 49.0392L1700.64 51.0792L1703.94 51.6492L1704.34 54.4692L1707.73 50.7892L1707.07 53.5992C1709.26 56.5392 1711.83 53.8192 1713.42 54.5092C1714.42 54.9492 1721.07 61.1792 1721.72 62.7092C1724.27 62.2192 1722.67 60.5392 1723.45 58.7692L1724.68 60.2392L1725.11 57.9592L1727.58 57.9192V59.8892C1731.18 56.5692 1733.22 63.9792 1735.04 64.5992C1737.54 65.4592 1735.43 61.2992 1736.74 61.7292L1739.31 63.0592L1739.6 65.5092C1742.19 63.6992 1740.93 61.3792 1744.85 63.5292L1742.14 64.3092C1742.74 67.7092 1745.53 64.0892 1746.31 64.3792C1746.77 65.6092 1747.77 66.8092 1748.06 68.0392C1748.22 68.6992 1745.22 70.2192 1747.44 71.0792C1747.68 71.1692 1750.6 68.9192 1751.84 68.4792C1755.41 67.2192 1756.3 66.7792 1759.54 65.2992C1759.89 65.1392 1765.58 68.2792 1766.29 65.1492L1767.5 67.6692L1761.63 70.4992C1762.89 72.8292 1769.5 68.1592 1769.59 67.6992L1765.1 62.6192L1770.93 62.9292L1771.42 59.5792C1776.93 59.8392 1780.03 55.7392 1786.03 56.7292C1781.14 51.5092 1784.83 50.7092 1789.42 47.7992L1792.79 51.4192L1789.61 51.9892C1785.99 57.4192 1797.74 53.9392 1795.74 51.0592L1797.4 52.0792C1802.9 51.5992 1799.31 45.8192 1802.51 43.6592L1799.59 44.0292C1797.6 35.5592 1801.79 43.2392 1804.66 39.7892L1805.49 41.1892L1807.14 40.3792L1806.78 38.4792C1810.91 39.3392 1812.51 36.4992 1815.61 34.2792L1817.66 36.4092L1816.95 30.5592L1819.41 31.4292C1817.71 28.9192 1821.76 28.7792 1822.95 26.7492L1824.56 28.0192C1826.54 26.4692 1827.43 25.4392 1825.83 23.1892L1829.57 23.4792L1830.02 21.1892L1833.33 23.7192L1834.21 20.3292L1838.41 19.2292C1839.18 25.3992 1847.16 15.9392 1848.76 23.5792L1852.14 19.8892C1853.64 22.7292 1849.4 23.3292 1852.05 26.1392L1855.32 23.4692L1857.07 24.7692C1859.35 20.0792 1853.83 23.0692 1853.62 20.7592L1855.54 16.1992L1858.01 19.1592C1858.32 19.2092 1860.56 15.4592 1861.35 17.5392C1857.98 19.1992 1857.91 23.7692 1858.71 27.0992L1859.19 23.7792L1861.24 24.8592L1862.34 21.7492L1860.46 22.1292L1860.92 19.8592L1865.84 20.7092L1866.9 22.6492L1864.2 23.4392L1865.13 25.4792L1871.85 26.4892L1869.27 31.8892C1872.85 33.2492 1872.51 32.2692 1875.76 30.3192L1878.15 37.4392L1881.1 34.9992L1879.55 40.3992L1881.42 39.9892L1882.65 42.5392L1883.91 40.8792C1884.93 41.4592 1884.91 46.4292 1884.6 47.7792C1884.19 49.5992 1881.91 50.9092 1883.1 52.1192L1890.64 46.5192L1893.39 45.7492C1894.62 47.1992 1894.86 49.6092 1895.97 50.9992C1896.67 51.8692 1898.03 49.9992 1898.32 51.5492L1895.59 54.4192L1898.67 56.5592L1899.53 54.0892L1902.42 55.8192C1903.53 57.4492 1899.76 58.1492 1899.66 58.3492L1899.62 60.7892C1902.08 59.5392 1903.58 64.6192 1902.76 66.0592C1902.35 66.7892 1900.72 67.3892 1899.44 69.0692C1898.07 70.8592 1898.79 67.9492 1897.61 68.4392L1898.8 72.0192L1896.36 69.0592C1892.85 69.8492 1894.45 74.3592 1891.65 76.4892C1891.03 74.4592 1890.46 74.2692 1888.55 74.3492L1891.3 71.4592C1889.74 69.0492 1886.3 67.2092 1889.12 64.7692L1884.78 65.2292L1884.29 67.5992L1883.47 65.9192L1882.61 68.3992L1880.99 66.0892L1879.27 67.9292L1879.32 65.8492L1875.11 67.8492C1872.96 65.1692 1878.52 64.5092 1879.67 63.1792C1880.41 62.3192 1879.72 60.1392 1881.49 59.6092L1879.41 59.5692L1879.48 55.4092L1875.7 58.2592L1874.46 55.7292L1873.17 58.4192C1871.51 56.4992 1870.83 58.1192 1868.6 58.5392L1869.79 61.0792C1865.85 60.9192 1865.44 56.0492 1865.41 52.8392C1862.46 51.2492 1861.55 51.8092 1859.08 53.7892L1860.4 50.0792L1857.44 52.5192C1857.81 50.3792 1855.34 49.5192 1855.12 48.9792C1854.69 47.9292 1856.3 46.5792 1855.04 45.3892L1853.16 45.7892C1855.02 43.9992 1854.24 43.4092 1853.03 41.1892C1851.84 42.1892 1850.42 43.0592 1849.23 44.0392C1848.63 41.5892 1848.47 39.7692 1848.09 37.3492L1843.79 43.1392L1846.64 49.4092C1848.27 48.7792 1846.39 46.2692 1846.91 45.2892C1847.3 44.5492 1848.69 44.4792 1849.23 44.0292C1849.88 46.6692 1849.46 48.9592 1852.28 48.2492C1851.96 50.4192 1849 51.4592 1848.42 53.1992C1847.84 54.9292 1847.83 55.4192 1847.23 57.0592C1846.55 58.9292 1845.53 60.9792 1846.82 62.7592L1843.94 62.0892C1843.76 62.4792 1842.77 69.9992 1844.24 69.1892C1846.02 66.4392 1848.42 65.5792 1850.67 63.7692C1851.68 62.9492 1852.49 58.6892 1853.92 62.4592C1850.56 65.5592 1843.95 69.7092 1842.53 74.1892C1841.79 76.5292 1841.55 86.5092 1841.7 89.3692C1841.79 90.9892 1843.22 92.0892 1843.19 92.2892C1843.12 92.7992 1840.17 95.9692 1841.04 98.1492L1846.66 96.9792L1842.02 100.259L1844.46 103.209L1842.41 102.129L1840.4 109.819L1843.71 110.299C1843.4 111.849 1841.9 112.929 1841.54 114.419C1840.74 117.729 1839.03 130.599 1840.21 133.189C1835.3 135.709 1839.79 140.469 1839.67 141.699C1839.47 143.729 1835.63 147.239 1834.38 149.009C1833.92 149.659 1834.45 151.109 1834.28 151.349C1834.16 151.519 1832.08 151.599 1830.86 152.539C1828.02 154.719 1826.99 158.189 1826.11 160.299C1821.07 161.709 1827.36 161.619 1828.16 162.379C1829.87 164.009 1829.33 166.539 1833.23 166.029L1833.99 167.669C1830.84 171.239 1835.59 175.189 1836.72 177.699C1836.93 178.169 1835.57 178.739 1835.64 179.609C1836.32 187.689 1834.79 187.059 1834.25 192.999C1834.14 194.199 1835.34 195.649 1835.14 196.479C1835.03 196.949 1833.47 197.299 1833.28 197.839C1831.71 202.449 1834.62 214.349 1838.32 217.089C1839.64 218.069 1844.84 219.579 1845.76 220.229C1847.88 221.739 1848.93 225.259 1852.02 225.809C1855.59 225.809 1849.6 221.689 1849.38 221.339C1849.19 221.039 1850.59 220.399 1850.49 219.559C1850.34 218.229 1848.89 213.889 1848.04 212.879C1845.3 209.649 1840.95 210.969 1839.4 207.029L1846.85 209.659C1847.37 208.689 1845.28 191.919 1846.66 187.749C1847.66 184.699 1852 179.639 1853.49 175.979C1857.47 166.169 1853.64 166.269 1850.84 158.609C1850.56 157.829 1851.24 156.459 1850.85 155.429C1847.97 147.699 1843.66 140.719 1840.22 133.179L1840.3 133.129ZM1691.39 77.4692C1684.55 74.2692 1690.08 85.9992 1693.42 87.5992C1694.13 87.7592 1694.84 79.5992 1698.32 80.5992C1698.74 83.6492 1696.06 84.1192 1695.51 86.5992C1695.37 87.2392 1695.51 94.4192 1695.85 94.6292C1696 94.7192 1696.98 94.1192 1697.21 94.3092C1698.11 95.0692 1698.92 96.9392 1700.41 97.5492L1701.56 96.1692C1704.22 99.2692 1709.89 101.169 1713.86 102.239C1715.67 102.729 1716.37 101.469 1716.49 101.529C1719.41 102.989 1722.61 108.759 1721.78 112.289L1725.58 109.449C1726.55 111.389 1725.04 112.569 1726.05 114.849C1727.83 118.879 1735.25 124.669 1739.35 124.989C1740.26 125.059 1741.21 124.729 1742.02 124.349C1742.72 125.989 1739.93 126.059 1740.85 128.499C1741.36 129.849 1742.85 130.659 1743.57 131.859L1744.87 128.139C1748.26 130.989 1744.99 133.969 1745.17 134.629C1746.09 137.959 1754.96 145.479 1756.3 149.919L1761.4 149.709L1755.45 152.529C1755.19 156.869 1754.56 161.099 1754.6 165.489C1754.63 168.479 1754.77 174.989 1755.38 177.679C1755.57 178.489 1755.7 179.299 1756.2 179.999C1760.05 179.589 1757.35 180.519 1757.78 182.699C1758.63 187.019 1762.57 189.499 1764.63 193.149L1766.77 189.029C1768.58 193.719 1768.2 197.899 1772.01 201.979L1775.36 200.439C1775.85 203.939 1784.32 204.069 1787.67 205.179C1794.49 207.459 1801.66 211.749 1808.46 212.839C1810.31 213.139 1819.67 213.689 1820.86 213.359C1823.41 212.669 1824.46 210.819 1826.78 209.879L1828.97 210.949C1826.73 206.249 1827.3 200.869 1827.98 195.919C1822.47 196.769 1817.65 199.489 1812.48 201.189C1809.35 202.219 1806.34 200.849 1803.21 204.659L1799.89 204.179C1799.06 202.709 1801.71 202.559 1802.66 201.319C1805.28 197.889 1799.22 189.739 1796.85 187.019C1802.01 187.169 1800.22 181.059 1800.62 177.699C1800.76 176.539 1802.1 175.719 1802.16 173.879C1802.28 170.619 1800.45 168.449 1799.83 165.919C1798.85 161.909 1800.15 158.569 1795.72 154.439C1798.98 154.509 1798.02 152.159 1796.62 149.879C1795.23 150.249 1796.46 151.679 1795.89 152.749C1793.59 157.029 1789.23 155.229 1789.04 155.569C1789.7 160.849 1789.57 161.859 1784.36 160.899L1786.06 158.029C1785.75 156.479 1784.66 158.149 1783.97 157.519C1783.67 157.249 1783.16 155.199 1782.37 154.629C1778.66 156.569 1776.7 160.809 1772.31 158.429L1770.98 163.189L1769.35 159.829C1767 164.139 1763.71 158.429 1768.95 158.989L1766.11 156.239L1762.09 159.689L1761.54 154.249L1765.3 154.529L1765.18 152.779L1767.82 152.289L1767.76 156.439C1770.18 153.069 1777.56 152.579 1775.82 147.409L1774.34 148.619L1770.54 144.849C1773.51 143.579 1769.6 140.429 1770.46 137.819C1771.09 135.899 1773.4 135.249 1775.2 135.299C1774.54 132.199 1773.01 134.889 1771.88 134.769L1769.85 130.619L1770.58 136.469L1768.13 133.509L1765.18 135.949L1766.48 132.209L1763.59 130.519L1762.67 137.149C1758.34 134.869 1756.92 134.459 1757.55 128.729L1752.37 128.649C1757.36 126.639 1752.89 119.779 1758.67 118.249L1757.6 115.799L1760.12 114.589L1760.07 116.669L1763.88 113.809C1761.73 111.169 1761.06 110.259 1757.7 109.549C1762.22 108.989 1760.46 108.189 1761.14 107.269C1761.71 106.489 1762.77 106.159 1762.94 105.839C1763 105.719 1761.17 103.759 1762.4 103.169C1763.77 102.509 1765.98 103.729 1766.12 105.509C1768.61 101.469 1769.67 104.689 1770.45 104.489C1771.51 104.219 1773.05 102.129 1774.93 102.339L1776.13 104.859L1771.13 105.189L1775.65 109.209L1776.93 106.549C1777.79 108.699 1780.06 108.069 1781.89 107.349L1781.96 105.159C1783.83 106.209 1784.96 105.879 1786.15 104.179L1789.04 105.909L1780.51 92.4192C1778.79 92.8992 1780.93 94.1892 1780.62 95.2592C1780.54 95.5392 1777.28 99.5992 1776.64 99.4292L1776.27 96.5192L1772.96 99.0792L1770.37 97.3792L1768.8 99.0392L1764.87 97.8892L1761.19 101.629L1758.6 100.359L1757.9 97.0392L1756.19 99.9292C1751.75 91.7392 1750.34 99.8692 1753.18 104.469L1750.73 102.549L1750.54 105.679L1748.23 105.969C1748.81 108.679 1745.89 108.409 1745.4 109.429C1745.22 109.819 1746.09 110.979 1745.91 111.659C1744.73 116.149 1739.62 119.609 1737.86 124.219C1735.52 123.319 1741.39 115.979 1741.55 114.679L1739.68 115.079C1738.84 107.859 1732.37 110.509 1729.61 104.899L1732.34 104.109C1732.78 100.929 1729.8 98.8192 1729.25 96.9592C1728.98 96.0492 1728.62 88.8692 1728.03 88.5892L1724.78 89.1892C1724.65 94.2492 1723.05 91.9592 1720.64 93.4492C1719.8 93.9692 1719.44 95.2892 1718.57 95.8092C1715.73 97.4992 1714.95 93.3592 1713.27 92.7792C1711.97 92.3292 1709.93 93.7292 1708.86 93.3692C1708.14 93.1292 1705.94 90.1592 1704.07 90.0592C1702.7 88.0792 1705.14 86.7892 1703.07 83.9892L1699.93 86.0092C1700.87 83.8992 1701.58 81.9992 1700.14 79.8692L1696.04 79.1192L1694.78 81.7492C1693.9 80.6092 1692.57 77.9792 1691.4 77.4392L1691.39 77.4692ZM1685.87 83.2392C1684.91 82.9192 1682.91 82.9392 1682.36 84.0492L1683.37 88.2692L1681.73 86.9892C1679.12 88.8492 1684.01 91.6192 1683.71 93.2892L1680.4 92.8092L1682.45 94.9192C1678.41 95.4792 1678 101.699 1677.56 102.289C1677.38 102.539 1672.9 102.699 1672.35 103.969C1672.24 104.229 1675.27 108.489 1669.72 107.209C1668.36 106.889 1672.41 105.169 1670.2 103.889L1665.16 105.269C1664.49 107.479 1667.35 108.809 1664.7 109.629L1665.49 111.299L1667.36 110.919C1667.08 112.089 1665.9 112.819 1665.72 114.019C1664.83 119.809 1672.24 132.459 1674.31 138.449C1681.1 137.539 1689.82 142.769 1694.7 136.649C1696.33 136.479 1696.2 138.739 1696.38 138.779C1697.02 138.929 1698.98 137.949 1700.45 138.109C1703.71 138.469 1711.98 140.489 1715.3 141.769C1716.19 142.109 1715.89 143.369 1716.79 143.669C1717.94 144.059 1729.38 144.319 1729.59 143.709C1728.98 142.389 1728.69 139.589 1729.05 138.319C1729.32 137.359 1730.56 138.149 1730.74 137.809C1731.1 137.159 1731.18 128.729 1730.77 127.709C1730.1 126.059 1725.64 123.709 1725.06 122.569C1724.41 121.289 1725.21 118.029 1722.95 115.479C1718.28 110.209 1700.88 110.629 1697.85 106.169C1694.5 101.239 1692.79 85.4792 1685.88 83.1992L1685.87 83.2392ZM1734.96 74.8492L1733.3 71.6192C1731.77 71.9492 1733.38 72.8592 1732.75 73.6692C1732 74.6292 1729.7 76.2492 1728.24 76.1192L1730.54 77.6592C1734.21 74.2992 1733.35 82.5092 1735.76 75.6392L1737.38 77.9392C1739.19 77.5792 1738.66 75.5492 1740.17 74.9892C1743.34 73.8092 1748.62 77.6792 1751.59 73.1592L1750.43 70.6692L1749.98 72.9592C1748.33 74.1292 1748.15 71.8992 1745.52 71.7292C1743.67 71.6092 1736.21 75.4392 1734.98 74.8592L1734.96 74.8492ZM1698 98.3392C1697.16 98.0192 1697.2 96.8292 1696.17 97.6692C1698.07 108.439 1711.45 108.999 1720.12 111.019C1720.08 103.349 1712.03 104.489 1707.06 102.479C1704.36 101.389 1701.41 99.6192 1698 98.3292V98.3392ZM1759.17 71.6392C1757.08 73.7092 1755.76 74.0492 1752.88 73.5992L1753.67 76.3492C1752 74.1792 1750.65 76.4292 1748.24 76.8792L1749.83 80.2392L1747.38 78.3192L1751.81 85.5092L1754.35 85.3192L1753.57 82.5792L1756.46 83.2692L1755.78 80.4192L1758.55 79.0792L1757.56 76.6892L1761.21 73.7492L1759.21 73.5792L1759.18 71.6392H1759.17ZM1811.64 101.339C1811.5 106.419 1810.44 110.799 1817.8 107.709L1816.08 110.599L1819.4 111.089C1820.46 112.349 1817.86 112.309 1818.28 113.219C1819.83 116.629 1823.66 114.549 1826.42 114.959L1825.65 111.199L1829.94 114.349L1837.68 114.739L1836.71 110.709C1833.01 109.659 1832.27 110.689 1831.6 106.279C1839.9 104.909 1840.02 97.5392 1835.15 92.1592L1839.26 94.3192C1838.32 85.6392 1843.79 76.0192 1838.9 67.6092L1840.95 68.6892C1841.6 64.0292 1841.06 60.9992 1845.56 58.0692L1843.7 53.9192L1841.6 55.9692L1840.36 53.5592L1837.66 54.2092L1837.93 50.4892L1832.09 50.1692L1832.47 53.0992L1828.32 51.9692L1829.9 56.3792L1827.87 54.2692L1825.52 56.9292L1829 59.9092C1827.18 60.2292 1826.06 57.7092 1823.83 57.7492C1817.13 57.8792 1820.67 61.5292 1820.48 61.8192C1820.1 62.3892 1818.42 62.3392 1818.33 63.6092C1818.19 65.6192 1820.56 70.6692 1820.86 73.1092L1818.01 69.3092C1815.36 69.3592 1817.4 71.6992 1816.73 72.0292C1814.89 72.9092 1813.18 70.1092 1812.74 73.4192C1817.82 75.6692 1812.67 77.4492 1816.17 80.5392L1813.64 81.7592C1817.14 85.7192 1815.29 84.0692 1814.13 87.1492C1812.04 92.7292 1811.79 95.7492 1811.64 101.329C1811.78 100.569 1809.73 95.7892 1810.03 93.4192C1810.33 91.0492 1816.45 82.2292 1811.56 79.7192C1809.4 78.6092 1808.05 82.4892 1807.8 82.4692C1807.7 82.4692 1807.42 81.1492 1806.42 81.0292C1804.52 80.7992 1802.94 82.6492 1801.16 80.4892L1799.83 85.2592L1799.06 81.5092C1790.65 83.5692 1795.28 91.2792 1790.07 95.1092C1788.17 93.2592 1790.84 92.7292 1790.98 91.6192C1791.37 88.5792 1789.73 88.5892 1787.64 90.0692L1787.72 85.9092L1785.25 87.1192L1787.96 95.0892L1785.12 91.2892C1780.88 93.6592 1786.53 99.2192 1787.44 102.579L1793.72 98.6492L1796.19 103.569C1797.8 102.399 1798.41 100.669 1800.59 101.989C1798.3 105.059 1800.12 108.919 1804.01 109.129L1801.02 113.669L1803.8 113.249L1803.97 111.229C1804.88 115.779 1808.83 112.519 1807.56 110.019C1805.12 110.309 1805.99 109.349 1804.45 107.889L1806.96 107.609C1806.37 105.889 1811.27 103.349 1811.65 101.329L1811.64 101.339ZM1742.57 140.619L1735.59 133.629L1732.14 139.389L1733.77 143.809C1736.16 141.279 1740.13 143.779 1742.57 140.619ZM1802.93 147.929C1802.99 144.089 1804.82 143.609 1800.53 140.809L1798.87 141.609L1802.15 144.159L1798.39 144.939L1802.02 149.289C1802.48 149.019 1802.68 148.049 1802.92 147.939C1802.84 153.339 1801.18 156.269 1801.13 161.009C1801.08 165.749 1803.63 171.449 1803.33 176.409C1802.91 183.369 1798.26 189.559 1804.21 195.949L1805.69 194.719L1806.21 200.139L1828.31 193.319C1830.66 190.209 1830 186.709 1830.21 183.229C1830.34 181.009 1832.3 180.129 1829.73 176.219C1826.34 171.069 1822.17 175.909 1820.9 170.349C1817.92 172.429 1814.54 173.259 1813.91 177.329H1816.01C1817.43 180.439 1813.91 180.239 1817.77 183.219C1813.31 189.009 1811.51 183.929 1806.87 186.369C1805.92 185.179 1808.27 184.919 1808.17 183.069C1808.13 182.309 1806.12 179.839 1806.21 178.429L1810.37 176.419L1808.72 175.159C1811.37 172.699 1814.57 174.839 1816.34 170.459L1817.95 171.779L1819.44 169.309L1815.38 163.309L1817.95 159.879C1816.22 158.419 1812.34 157.209 1811.04 155.689C1809.26 153.609 1808.53 149.069 1807.88 148.619C1807.12 148.089 1803.86 147.499 1802.93 147.919V147.929ZM1836.23 126.809C1834.2 129.239 1832.24 127.889 1829.55 127.939L1834.07 130.949C1830.96 131.289 1829.62 132.539 1827 130.199L1825.76 130.799C1826.06 131.769 1826.08 135.659 1825.65 136.049C1823.43 138.059 1822.24 134.409 1821.92 135.739C1821.86 135.969 1822.49 137.289 1822.01 138.209C1820.62 140.879 1818.24 141.749 1817.92 145.169C1817.59 148.779 1818.75 152.759 1822.41 154.089L1821.56 156.589L1829.05 150.439C1826.75 146.539 1831.41 149.049 1833.84 145.529L1831.39 142.579C1835.87 142.919 1834.25 138.199 1836.15 135.369L1836.23 126.809ZM1749.56 172.499L1746.63 172.809L1747.83 175.359L1743.67 175.269L1744.88 177.819C1737.42 178.729 1746.21 187.939 1748.16 191.349C1749.35 193.439 1748.41 195.689 1750.79 197.699C1753.82 200.249 1758.51 198.199 1762.04 198.549C1754.19 191.619 1751.05 182.709 1749.57 172.499H1749.56ZM1819.06 155.709C1813.85 151.229 1818.77 143.019 1810.96 142.029C1809.4 144.059 1811.82 144.779 1811.81 145.529C1811.81 145.729 1810.61 146.239 1810.79 146.949C1811.87 151.349 1812.76 153.329 1816.67 155.509C1817.51 155.979 1817.28 157.159 1819.06 155.709ZM1783.3 213.549C1786.23 215.479 1786.07 216.379 1790.27 216.689C1791.98 216.819 1792.25 218.049 1792.82 215.359L1781.01 212.219C1781.07 214.629 1782.73 213.169 1783.3 213.549ZM1908.83 250.339C1907.02 250.939 1907.02 251.029 1907.79 252.729L1905.04 253.199L1911.62 258.309C1908.47 259.169 1905.7 258.789 1905 255.279C1903.31 254.469 1902.31 260.419 1905 261.239L1912.32 258.989L1914.51 260.029C1913.46 257.829 1913.46 255.729 1910.75 256.219L1908.84 250.339H1908.83Z" fill="#16043A"/>
<path d="M-325.2 436.279C-302.01 377.269 -275 328.859 -286.58 263.899C-287.52 258.629 -290.72 252.259 -286.31 242.039C-267.01 197.309 -138.97 209.069 -99.0801 213.789C-71.9601 216.499 -43.1701 226.999 -27.7801 249.169C-18.9601 261.879 -19.4901 276.009 -17.9101 287.819C-9.39014 351.259 39.1799 421.549 107.34 430.189C158.41 436.659 192.58 395.509 205.63 349.209C241.31 343.399 285.9 339.549 318.96 335.729C345.23 332.699 377.28 329.869 396.2 331.939C453.37 338.209 515.6 390.599 567.46 411.359C652.41 445.369 779.47 494.939 848.9 511.099C907.43 524.719 909.4 526.709 916.55 528.639C976.57 544.819 1044.54 569.229 1084.81 583.469C1131.33 599.919 1133.28 608.119 1167.81 618.669C1189.8 625.389 1213.67 625.349 1233.18 625.929C1262.52 626.799 1295.97 620.419 1313.82 605.369C1335.72 586.919 1347.12 566.429 1358.46 537.609C1374.6 496.569 1394.24 442.599 1414 376.989C1474.88 385.049 1546.37 389.509 1626 384.989C1793.18 375.489 1928.11 330.259 2020 289.989C2030.97 379.289 2034.47 492.019 2013 618.989C2005.51 663.309 1995.81 704.379 1985 741.989C867.54 751.259 401.91 762.869 252.27 774.149C233.72 775.549 160.46 784.139 61.2899 781.089C-42.9301 777.879 -167.32 765.279 -275.23 756.319C-314.12 667.399 -362.52 531.219 -325.21 436.269L-325.2 436.279Z" fill="url(#paint5_linear_56_3)"/>
<mask id="mask1_56_3" style="mask-type:luminance" maskUnits="userSpaceOnUse" x="-339" y="208" width="2368" height="574">
<path d="M-325.2 436.279C-302.01 377.269 -275 328.859 -286.58 263.899C-287.52 258.629 -290.72 252.259 -286.31 242.039C-267.01 197.309 -138.97 209.069 -99.0801 213.789C-71.9601 216.499 -43.1701 226.999 -27.7801 249.169C-18.9601 261.879 -19.4901 276.009 -17.9101 287.819C-9.39014 351.259 39.1799 421.549 107.34 430.189C158.41 436.659 192.58 395.509 205.63 349.209C241.31 343.399 285.9 339.549 318.96 335.729C345.23 332.699 377.28 329.869 396.2 331.939C453.37 338.209 515.6 390.599 567.46 411.359C652.41 445.369 779.47 494.939 848.9 511.099C907.43 524.719 909.4 526.709 916.55 528.639C976.57 544.819 1044.54 569.229 1084.81 583.469C1131.33 599.919 1133.28 608.119 1167.81 618.669C1189.8 625.389 1213.67 625.349 1233.18 625.929C1262.52 626.799 1295.97 620.419 1313.82 605.369C1335.72 586.919 1347.12 566.429 1358.46 537.609C1374.6 496.569 1394.24 442.599 1414 376.989C1474.88 385.049 1546.37 389.509 1626 384.989C1793.18 375.489 1928.11 330.259 2020 289.989C2030.97 379.289 2034.47 492.019 2013 618.989C2005.51 663.309 1995.81 704.379 1985 741.989C867.54 751.259 401.91 762.869 252.27 774.149C233.72 775.549 160.46 784.139 61.2899 781.089C-42.9301 777.879 -167.32 765.279 -275.23 756.319C-314.12 667.399 -362.52 531.219 -325.21 436.269L-325.2 436.279Z" fill="white"/>
</mask>
<g mask="url(#mask1_56_3)">
<path d="M85.4399 471.339C126.32 514.179 187.74 541.579 245.4 528.079C262.95 523.969 279.44 516.339 296.39 510.219C374.11 482.129 460.1 486.259 541.08 502.759C622.06 519.259 700.14 547.579 780.37 567.409C832.55 580.299 885.55 589.579 938.71 597.549C1030.99 611.389 1124.04 621.309 1217.34 621.659C1162.66 573.659 1089.67 553.529 1019.63 533.839C836.73 482.409 655.67 424.439 476.92 360.049C435.7 345.199 394.21 329.919 350.8 324.059C263.57 312.279 176.31 339.239 88.6999 347.759C62.4398 350.309 31.2899 352.779 6.55986 342.149C6.43986 342.169 9.71986 340.349 9.63986 340.409C34.7899 385.759 48.3499 432.469 85.4399 471.349V471.339Z" fill="url(#paint6_linear_56_3)"/>
</g>
<path d="M1424 699C1444.66 687.66 1455.11 672.12 1470 650C1488.31 622.8 1509.31 591.59 1509.83 550.82C1509.92 543.89 1508.28 504.78 1514.96 478.57C1516.63 472.03 1518.86 465.45 1523.14 460.25C1528.59 453.62 1536.76 449.92 1544.78 446.86C1634.33 412.58 1739.77 429.69 1823.87 383.64C1837.42 376.22 1850.12 367.29 1863.93 360.37C1892.7 345.95 1916.62 343.04 1926.61 340.88C1952.46 335.27 1989.16 318.91 2033.99 270.01C1872.94 337.83 1763.26 353.39 1690.99 354.01C1639.33 354.45 1587.8 362.68 1536.17 360.99C1536.17 360.99 1445.76 356.89 1391.8 381.67C1379.6 387.27 1367.81 394.29 1358.69 404.14C1345.41 418.49 1339.67 432.99 1336.85 440.29C1336.85 440.29 1318.67 487.39 1284.98 545.01C1278.15 556.7 1261.04 584.56 1232.98 615.01C1220.55 628.49 1197.88 652.79 1164.98 674.01C1107.27 711.23 1059.09 712.53 1059.98 719.01C1061.23 728.1 1154.86 716.32 1272.98 717.01C1294.23 717.13 1312.48 715.76 1348.98 713.01C1398.14 709.31 1410.97 706.15 1423.98 699.01L1424 699Z" fill="url(#paint7_linear_56_3)"/>
<defs>
<linearGradient id="paint0_linear_56_3" x1="886.89" y1="939.31" x2="914.1" y2="-552.36" gradientUnits="userSpaceOnUse">
<stop offset="0.15" stop-color="#F2F2F2"/>
<stop offset="0.51" stop-color="#16043A" stop-opacity="0"/>
</linearGradient>
<linearGradient id="paint1_linear_56_3" x1="934.33" y1="124.781" x2="919.81" y2="924.831" gradientUnits="userSpaceOnUse">
<stop offset="0.05" stop-color="#9F70FD"/>
<stop offset="0.68" stop-color="#16043A"/>
</linearGradient>
<linearGradient id="paint2_linear_56_3" x1="999.97" y1="123.571" x2="889.54" y2="1021.57" gradientUnits="userSpaceOnUse">
<stop stop-color="#9F70FD"/>
<stop offset="0.07" stop-color="#9165E9"/>
<stop offset="0.19" stop-color="#6E49B8"/>
<stop offset="0.36" stop-color="#371E69"/>
<stop offset="0.46" stop-color="#16043A"/>
</linearGradient>
<linearGradient id="paint3_linear_56_3" x1="1739.22" y1="165.7" x2="1833.07" y2="651.18" gradientUnits="userSpaceOnUse">
<stop offset="0.05" stop-color="#9F70FD"/>
<stop offset="0.12" stop-color="#9064E8"/>
<stop offset="0.25" stop-color="#6B47B3"/>
<stop offset="0.43" stop-color="#30185F"/>
<stop offset="0.51" stop-color="#16043A"/>
</linearGradient>
<linearGradient id="paint4_linear_56_3" x1="452.7" y1="52.1" x2="397.9" y2="710.23" gradientUnits="userSpaceOnUse">
<stop offset="0.04" stop-color="#9F70FD"/>
<stop offset="0.63" stop-color="#16043A"/>
</linearGradient>
<linearGradient id="paint5_linear_56_3" x1="844.31" y1="242.889" x2="847.23" y2="1149.86" gradientUnits="userSpaceOnUse">
<stop offset="0.04" stop-color="#421CA0"/>
<stop offset="0.63" stop-color="#16043A"/>
</linearGradient>
<linearGradient id="paint6_linear_56_3" x1="755.42" y1="-23.0413" x2="424.49" y2="1141.65" gradientUnits="userSpaceOnUse">
<stop offset="0.22" stop-color="#421CA0"/>
<stop offset="0.28" stop-color="#3A178D"/>
<stop offset="0.44" stop-color="#260D60"/>
<stop offset="0.56" stop-color="#1A0644"/>
<stop offset="0.63" stop-color="#16043A"/>
</linearGradient>
<linearGradient id="paint7_linear_56_3" x1="1428.25" y1="173.13" x2="1765.8" y2="1086.78" gradientUnits="userSpaceOnUse">
<stop offset="0.04" stop-color="#421CA0"/>
<stop offset="0.11" stop-color="#3A178D"/>
<stop offset="0.26" stop-color="#2A0F69"/>
<stop offset="0.4" stop-color="#1F094F"/>
<stop offset="0.53" stop-color="#18053F"/>
<stop offset="0.63" stop-color="#16043A"/>
</linearGradient>
</defs>
</svg>
