<?xml version="1.0" encoding="UTF-8"?><svg id="Layer_1" xmlns="http://www.w3.org/2000/svg" xmlns:xlink="http://www.w3.org/1999/xlink" viewBox="0 0 4356.6 3203.49"><defs><style>.cls-1{fill:url(#linear-gradient-2);}.cls-2{fill:#fff;}.cls-3{fill:url(#linear-gradient-3);}.cls-4{clip-path:url(#clippath-1);}.cls-5{fill:url(#linear-gradient);}.cls-6{clip-path:url(#clippath);}</style><clipPath id="clippath"><rect class="cls-2" x="338.6" y="44.49" width="1929" height="1085"/></clipPath><linearGradient id="linear-gradient" x1="1182.91" y1="524.38" x2="1185.83" y2="1431.35" gradientUnits="userSpaceOnUse"><stop offset=".04" stop-color="#421ca0"/><stop offset=".63" stop-color="#16043a"/></linearGradient><clipPath id="clippath-1"><path class="cls-5" d="M13.4,717.76c23.19-59.01,50.2-107.42,38.62-172.38-.94-5.27-4.14-11.64.27-21.86,19.3-44.73,147.34-32.97,187.23-28.25,27.12,2.71,55.91,13.21,71.3,35.38,8.82,12.71,8.29,26.84,9.87,38.65,8.52,63.44,57.09,133.73,125.25,142.37,51.07,6.47,85.24-34.68,98.29-80.98,35.68-5.81,80.27-9.66,113.33-13.48,26.27-3.03,58.32-5.86,77.24-3.79,57.17,6.27,119.4,58.66,171.26,79.42,84.95,34.01,212.01,83.58,281.44,99.74,58.53,13.62,60.5,15.61,67.65,17.54,60.02,16.18,127.99,40.59,168.26,54.83,46.52,16.45,48.47,24.65,83,35.2,21.99,6.72,45.86,6.68,65.37,7.26,29.34.87,62.79-5.51,80.64-20.56,21.9-18.45,33.3-38.94,44.64-67.76,16.14-41.04,35.78-95.01,55.54-160.62,60.88,8.06,132.37,12.52,212,8,167.18-9.5,302.11-54.73,394-95,10.97,89.3,14.47,202.03-7,329-7.49,44.32-17.19,85.39-28,123-1117.46,9.27-1583.09,20.88-1732.73,32.16-18.55,1.4-91.81,9.99-190.98,6.94-104.22-3.21-228.61-15.81-336.52-24.77-38.89-88.92-87.29-225.1-49.98-320.05Z"/></clipPath><linearGradient id="linear-gradient-2" x1="1094.02" y1="258.45" x2="763.09" y2="1423.13" gradientUnits="userSpaceOnUse"><stop offset=".22" stop-color="#421ca0"/><stop offset=".28" stop-color="#3a178d"/><stop offset=".44" stop-color="#260d60"/><stop offset=".56" stop-color="#1a0644"/><stop offset=".63" stop-color="#16043a"/></linearGradient><linearGradient id="linear-gradient-3" x1="1766.85" y1="454.62" x2="2104.4" y2="1368.27" gradientUnits="userSpaceOnUse"><stop offset=".04" stop-color="#421ca0"/><stop offset=".11" stop-color="#3a178d"/><stop offset=".26" stop-color="#2a0f69"/><stop offset=".4" stop-color="#1f094f"/><stop offset=".53" stop-color="#18053f"/><stop offset=".63" stop-color="#16043a"/></linearGradient></defs><rect class="cls-2" x="338.6" y="44.49" width="1929" height="1085"/><g class="cls-6"><path class="cls-5" d="M13.4,717.76c23.19-59.01,50.2-107.42,38.62-172.38-.94-5.27-4.14-11.64.27-21.86,19.3-44.73,147.34-32.97,187.23-28.25,27.12,2.71,55.91,13.21,71.3,35.38,8.82,12.71,8.29,26.84,9.87,38.65,8.52,63.44,57.09,133.73,125.25,142.37,51.07,6.47,85.24-34.68,98.29-80.98,35.68-5.81,80.27-9.66,113.33-13.48,26.27-3.03,58.32-5.86,77.24-3.79,57.17,6.27,119.4,58.66,171.26,79.42,84.95,34.01,212.01,83.58,281.44,99.74,58.53,13.62,60.5,15.61,67.65,17.54,60.02,16.18,127.99,40.59,168.26,54.83,46.52,16.45,48.47,24.65,83,35.2,21.99,6.72,45.86,6.68,65.37,7.26,29.34.87,62.79-5.51,80.64-20.56,21.9-18.45,33.3-38.94,44.64-67.76,16.14-41.04,35.78-95.01,55.54-160.62,60.88,8.06,132.37,12.52,212,8,167.18-9.5,302.11-54.73,394-95,10.97,89.3,14.47,202.03-7,329-7.49,44.32-17.19,85.39-28,123-1117.46,9.27-1583.09,20.88-1732.73,32.16-18.55,1.4-91.81,9.99-190.98,6.94-104.22-3.21-228.61-15.81-336.52-24.77-38.89-88.92-87.29-225.1-49.98-320.05Z"/><g class="cls-4"><path class="cls-1" d="M424.04,752.83c40.88,42.84,102.3,70.24,159.96,56.74,17.55-4.11,34.04-11.74,50.99-17.86,77.72-28.09,163.71-23.96,244.69-7.46,80.98,16.5,159.06,44.82,239.29,64.65,52.18,12.89,105.18,22.17,158.34,30.14,92.28,13.84,185.33,23.76,278.63,24.11-54.68-48-127.67-68.13-197.71-87.82-182.9-51.43-363.96-109.4-542.71-173.79-41.22-14.85-82.71-30.13-126.12-35.99-87.23-11.78-174.49,15.18-262.1,23.7-26.26,2.55-57.41,5.02-82.14-5.61-.12.02,3.16-1.8,3.08-1.74,25.15,45.35,38.71,92.06,75.8,130.94Z"/></g><path class="cls-3" d="M1762.6,980.49c20.66-11.34,31.11-26.88,46-49,18.31-27.2,39.31-58.41,39.83-99.18.09-6.93-1.55-46.04,5.13-72.25,1.67-6.54,3.9-13.12,8.18-18.32,5.45-6.63,13.62-10.33,21.64-13.39,89.55-34.28,194.99-17.17,279.09-63.22,13.55-7.42,26.25-16.35,40.06-23.27,28.77-14.42,52.69-17.33,62.68-19.49,25.85-5.61,62.55-21.97,107.38-70.87-161.05,67.82-270.73,83.38-343,84-51.66.44-103.19,8.67-154.82,6.98,0,0-90.41-4.1-144.37,20.68-12.2,5.6-23.99,12.62-33.11,22.47-13.28,14.35-19.02,28.85-21.84,36.15,0,0-18.18,47.1-51.87,104.72-6.83,11.69-23.94,39.55-52,70-12.43,13.48-35.1,37.78-68,59-57.71,37.22-105.89,38.52-105,45,1.25,9.09,94.88-2.69,213-2,21.25.12,39.5-1.25,76-4,49.16-3.7,61.99-6.86,75-14Z"/></g></svg>