<?xml version="1.0" encoding="UTF-8"?><svg id="Layer_1" xmlns="http://www.w3.org/2000/svg" xmlns:xlink="http://www.w3.org/1999/xlink" viewBox="0 0 4356.6 3203.49"><defs><style>.cls-1{fill:#16043a;}.cls-2{fill:#fff;}.cls-3{clip-path:url(#clippath);}</style><clipPath id="clippath"><rect class="cls-2" x="338.6" y="44.49" width="1929" height="1085"/></clipPath></defs><rect class="cls-2" x="338.6" y="44.49" width="1929" height="1085"/><g class="cls-3"><path class="cls-1" d="M1383.18,569.58c.42-1.72.83-7.57,1.27-8.24.15-.23,3.43,1.34,4.64-1.84-2.1-.57-6.44-10.58-2.93-11.26,5.98,1.28.79,9.04,5.2,10.03l-1.06,3,9.76-5.91c1.43-1.69,6.03-6.64.91-5.94l-1.18,2.35-1.36-4.57-5.17-.15.6-2.37-3.55,1.18,1.24-4.68c4.12,2.72,3.49-2.07,7.04-2.44-1.18-2.74-7.68.67-7.1-4.73,4.97,1.34,9.58.7,14.22-1.18l-2.36,2.38c5.05,5.48-.42,8.37-5.91,5.91l-1.22,2.99c2.71,1.84,7.19,7.61,4.75,1.77h3.58s-.58,2.37-.58,2.37c2.68-.82,3.8.71,4.72-2.38l2.97,2.97-4.71,2.36c5.31,4.56,3.04,11.23-2.38,13.67v2.34c3.6.02.19,5.11,7.09,3.56l-3.55-1.19,4.74-2.37-2.35-2.95,3.54-1.8-3.55-3.52c2.84-1.12,7.86.22,9.97-.01,1.11-.12.02-3.68,3.07-2.37,1.39,5.27,1.55,6.73-2.36,10.66,1.91-.07,3.39.37,4.82,1.72,5.77,5.45-1.75,6.21,1.12,10.15-.29.45-8.25.72-7.12,4.75,3.8-1.63,7.66-3.2,10.66.6l-6.49.58.58,2.37-4.58-1.08-1.95,3.45-4.14-2.35-1.19,7.11h3.56s-1.2-2.36-1.2-2.36h3.57s-.16,4.21-.16,4.21l6.1,2.32c-.87,5.48-7.74-1.14-10.66,3.55l14.81,3.64,3.24-2.68c3.21,1.61.95-2.17,3.85-1.55,1.94,3.15,3.53,4.74,7.15,5.87l1.77-7.07,5.93,7.11c4.43-2.09-2.62-3.77-1.19-5.92l8.29,1.2-1,2.22,2.17,1.31-3.56.02,2.38,5.34-1.18,2.38,7.11-4.18-2.36-2.34,4.73-.02c-1.1,6.33,1.44,3.84,3.51,5.38,2.3,1.71,4.3,7.3,2.29,9.9l-5.79.16,2.97,4.73,5.33-3.54-2.22,1.73.98,2.86-3.48,1.92c3.23,1.4,3.9,1.4,5.91,4.75l-2.37.59,2.36,4.73-4.74.02,3.55,3.53-5.92,1.79,4.63,1.89-1.07,7,5.92-2.36-2.38,2.96,2.38,1.77-2.36.6,4.74,7.7-10.19-1.08-1.66,2.27-.6-3.54-6.03,4.77-4.05-1.23c-.44,1.28-.8,5.25-1.44,5.74-1.04.81-3.7-.85-3.31,1.37,5.73.57,10,1.08,14.8,4.76l1.79-5.93c-3.32,1.43-6.46-.59-8.3-3.54,5.22,2.77,9.26-1.94,14.27-.39,2.45.76,3.59,3.5,4.1,3.66,2.07.64,8.16-.83,11.27,1.48l-2.37,1.75,4.75,4.16-3.54,1.18,7.1,1.21-2.37,3.54,3.55.58-1.18,6.53-7.11-.59,10.65,8.31-4.57,1.93c.66,4.81-2.12,8.39,4.59,7.55l-4.15,4.15-1.76-2.36v4.75c-3.43-.18-6.91-.78-7.15,3.55-3.69-4.74-6.71-.06-8.35-.5-.62-.16-9.19-4.43-8.22-5.41l2.38-2.38c3.14,3.07,6.31,2.32,9.44-.61-2.34-.32-4.92-4.13-5.26-4.1-5.48.62-6.46,6.41-10.73-3.59l-.73,3.43-3.43.71c-.84,2.25,3.15,1.88,4.46,5.03.61,1.47,1.87,6.59-.3,7.41-1.07-1.51-5.3-7.8-7.7-5.91l2.37,3.52-4.73,2.4-2.39-3.56.6,2.37-6.52,1.78v21.94l-3.63-1.99c.79-4.33,2.25-22.03-5.23-20.54-4.1.82-.74,16.38-.72,19.48,0,.97-.59,4.49-2.29,4.24v-18.39c0-.6-2.82-3.61-2.39-5.33l-1.3,2.26-5.25.06c-1.64,2.57-.16,12.19-.13,15.76.01,1.56,1.05,2.62-1.61,3.26v-17.2c0-3.46-8.93-2.74-9.36-3.16-.49-.47.59-4.05-2.49-3.39l4.73-5.32-3.39-.78-.17-3.36c-5.24-.23-7.29,2.23-7.1,7.11l3.54-2.37,1.17,2.97-5.91,1.78.6,26.08c-5.4-5.3-.79-21.21-3.53-26.2-.45-.82-2.45-.29-3.59-1.02-2.69-1.7-2.72-5.62-5.93-1.24l-1.17-2.37c-1.65.55-1.79,5-1.79,6.52v24.32c-2.32-1.51-3.11-2.88-5.92-1.18v-13.05s2.35,2.36,2.35,2.36c-1.93-2.5,1.36-7.69,1-8.89-.17-.56-1.88-.47-2.1-1.47-.66-3.09.19-6.39-1.19-9.2l-1.26,1.76c-2.72,1.09-8.02-3.43-10.67.61l3.55,1.17c-11.2,5.63-2.99,16.91-4.14,26.69-6.03-5.43-1.3-19.18-4.73-26.11-.99-2-8.54-5.45-5.37-9.47h-5.93s1.15-2.81,1.15-2.81l-2.35-3.11c-2.42.15-.37,3.85-1.75,5.98-.7,1.08-3.08.69-3.01,1.74.11,1.59,1.98,2.66,1.98,3.52,0,.73-1.65,1.98-1.74,3.53-.54,9.41.71,18.52.97,27.92-6.69-6.56-1.22-18.46-2.42-25.42-.88-5.1-5.51-10.09-6.72-12.77-.24-.54.79-4.2-.35-5.7l-1.16,2.35c-5.29-1.18-9.69,10.35-11.27,1.21l-8.93,9.13,2.39,30-4.78-1.99c-.17-5.53.17-26.35-2.95-29.99-.83-.96-4.69-2.52-5.81-2.46-.33.02-1.8,3.63-5.43,2.43.75,1.9,0,3.83,0,5.33v24.32h-2.37v-25.5c0-3.1.33-6.52-3.55-6.54l2.37-1.18c1.66-1.99-8.68-1.76-10.15-1.75-5.63.02-1.64-.07-6.14-1.55-.32-.1-6.33-.36-6.66-.3-1.48.31.05,2.92-1.95,2.41-.92-4.19,1.42-4.11,4.74-4.75-1.42-2.62-1.74-5.17-.11-7.8l-2.27-1.08,2.36-2.39-2.36-2.94,5.91,1.17-1.17-5.92,7.02-1.06,1.31,1.63-1.28-5.27c-.7-.47-3.48.27-4.43.74-1.85.91-.73,3.02-2.6,2.77v-7.1s6.5,1.19,6.5,1.19l.59-2.37c-4.57.39-2.31-5.24-2.65-5.74-.26-.38-1.83-.53-2.55-1.5-1.95-2.62.75-4.56-6.64-3.46l1.19-3.54c-3.5.72-4.63-1.42-4.75-4.74l6.51-2.41,1.78,2.39c.88-6.42,9.95-4.25,8.33-11.86l3.54,1.19v-3.56s-4.74,1.18-4.74,1.18l.54-2.42-2.91-1.16c.77-3.54,7.6-2.31,8.3-4.13-2.68-.31-5.1-8.74-3.43-9.97l4.62-.1-1.2,2.84c2.35,1.07,3.02,2.78,3.1,5.44.01.48-.84,6.66-1.04,6.95-.38.53-3.09-.59-2.04,2.56,9.16-.27,6.17-5.3,3.54-11.85,2.23.27,3.99.18,3.59-2.37l3.53,3.54c-.35-2.54-.97-5.34-.76-7.91.32-3.91,1.25-9.2,5.53-9.29l-4.75-1.77,8.28-1.2-1.19-8.3-4.72,5.93c.23-3.05.27-5.78-2.37-7.72l5.92-.59c-1.41-4.56-3.43-11.13,1.18-14.23l.02,4.75,2.35-1.2.02,8.31,4.12-2.38,1.82,3.57,2-2.34,12.2-4.76-5.69,5.53-7.35,2.8.95,1.76-2.12,1.18,3.53,1.78c.01-4.61,3.58-3.42,4.47-4,.39-.25.42-1.7,1.78-2.26,4.69-1.93,7.49-3.52,10.37,1.51-4.13-.65-7.42-2.57-9.48,2.37.25.22,6.09-2.22,5.9.6-.1,1.58-4.32,2.62-5.51,3.43-1.64,1.13,1.44,3.15-4.54-.51l-5.35,4.77,3.56.02-2.37,3.54,3.55-1.17-1.18,3.54,5.93-1.19-2.37-4.72,11.86-4.74-2.38,5.92,3.56,1.17c-3.63,2.18-8.59,1.24-9.48,5.93,7.26,4.91,16.07-12.39,18.97-1.17l-4.02-2.34c-1.92,1.2-3.16,2.59-1.89,4.7l-4.75.59c1.49,3.38,2.19,3.39,5.93,2.99l.57,3.32c3.16-1.58,5.99.08,8.91,1.41,1.75-4.02-6.93-5.35-2.95-8.3l2.97,4.74,1.19-3.55,2.52,3.45,4.57-1.1-2.38-1.76,3.56-.61-2.36-1.76,3.7-6.46,4.59,1.11-1.18-3.54,5.92,3.54-3.54-9.48c.3-.44,3.8,4.25,4.73.59.13-.53-9.99-6.25,2.37-4.15l-1.19-5.94-4.73,1.19,1.18-3.54c-3.03-.05-3.77,3.54-6.8.86-3.99-3.55,4.86-4.25-1.2-5.79,1.98-3.8-4.03-5.9.66-5.88l-.97-3.42,3.64.65,1.69-3.02,1.77,4.75-2.33-1.19-1.21,4.74c2.42-2.28,8.74,5.52,9.47,4.74l-3.54-5.34c2.95-3.8,7.45,7.48,9.48,5.33-4.83-4.9,3.51-7.45-2.92-9.42l.55-2.42-3.55,1.19c.06-7.01-6.91-4.73-10.66-8.91l4.64-2.41.07-6.48c-.56,4.37,3.72,2.77,1.19,7.1l5.94,2.38c-.14.55-1.59,2.1-1.19,2.36l5.34-3.54c3.44,6.36.54,3.88,5.07,3.87,1.91,0,3.23.54,5.01.86-.97-5.68-9.55-3.95-11.27-9.48.43,3.08-.08,4.24-2.96,5.93ZM1396.61,576.23c-.73-.38,0-2.29-.97-1.91-5.23,4.26,2.47,8.9,5.95,4.73l2.34,2.39,2.78-1.98.18-5.14-1.83,2.43-3.44-1.33c-1.12.02,1.02,3.96-5.01.8ZM1408.08,583.82l-8.29,2.35c4.89.32,6.62,5.91,11.85,4.75l-4.66-3.65,1.1-3.44ZM1401.47,596.32c-.51-.5-.55-1.73-1.03-1.7-.85.06-9.91,2.25-10.14,2.84l7.1,2.96c-1.26.27-2.71-1.67-3.54-.57-2.92,3.83,1.74,2.85,2.36,5.31l-5.91-1.18-1.2,5.93,15.42,2.37c-1.3-2.77-3.91-4.95-7.12-4.75-.83-3.9,4.86-.66,7.98-2.7.86-.57,1.37-3.09,2.69-3.82l-7.11.59,2.33-4.71c-.65-.02-1.35-.11-1.84-.58ZM1400.96,612.28h-10.67s1.17,5.38,1.17,5.38c2.55-1.07,6.62,4.43,8.32,2.91,1.29-1.15-2.36-3.91-2.35-4.15.05-1.35,4.83-.97,3.53-4.15ZM1326.36,620.49c1.32-2.51.94-4.88-2.49-4.64l1.09,3.44-3.47,1.89,2.37,1.18-3.57,2.38,5.94,4.14c-4.96-1.53-3.91,4.04-4.82,4.72-.15.12-1.44-1.09-2.01-.79-.26.14-.26,1.51-1.2,1.9-1.67.7-4.31.58-6.2,1.31-.07,2.45,3.43.17,5.15.35.97.1,2.03,1.9,3.53,1.8,1.66-.12,4.28-2.78,6.74-2.17l-3.56-4.72c6.44-1.31,5.5,6.45,2.01,9.1-2,1.52-6.48.11-5.56,3.93,5.74-1.69,6.39.03,9.02-5.79l8.26.94,1.15-2.33c5.04,4.1,13.49-2.47,5.85-2.35-3.44.05-6.52,2.13-9.89-.13l-.18-5.75-1.19,5.92-1.18-3.55-3.55,1.19-1.19-4.75,3.55-.59-3.55-2.96c5.12-2.57,2.86,1.08,5.46,2.15,1.57.65,6.25-2.36,8.75,1.39l1.21-3.55c-2.21.28-3.97.15-3.59-2.37l-1.18,2.36c-4.01-1.11-4.92-3.79-6.51-7.14l-2.96.03,1.17,4.73-3.43-1.28ZM1468.57,636c.62-3.64-.82-6.67-2.95-9.47l-4.16,3.54,3.57.6-2.4,1.2c-.06,2.64,3.44,4.7,5.94,4.14ZM1449.59,632.44c2.17-5.84-1.35-5.53-4.5-2.15l2.15,6.9c2.8.53,1.99-.43,2.86-2.29l4.23,1.1-.77-3.57-3.98.02ZM1395.02,647.86l1.19-3.55-5.78,1.39-.15,3.36-4.74-1.18,5.94,3.58-1.05,2.97,1.9.78-.86,2.15h11.86c-2.91-3.81,1.4-7.47,1.2-8.86-.12-.85-1.84-2.47-3-.62-.26.41.82,1.52-.12,2.41s-5.45,3.06-6.37,2.32l3.56-4.72-3.57-.02ZM1330.98,660.92l-4.45,3.77,1.01,3.82-2.48,1.28c4.14,3.4,11.19,3.53,10.66-2.96-3.93,2.57-7.1-1.98-4.74-5.92ZM1337.44,678.17c-.81-.93-.04-2.21-1.7-1.83l-1.06,3.42,2.23,1.3-2.98,1.21-1.75-2.38.57,4.46,1.21-.69.58,2.15-6.41,1.29-2.52-1.29.63,5.95c3.5-.77,6.92-.38,5.93-4.75l3.54,2.37c-.56-4.07.37-6.45,3.54-8.94l-.17-1.55c-.55-.17-1.26-.27-1.64-.72ZM1291.02,690.12c-.23-.12-.63-3.94-2.15-.74-.27.57.21,2.5-.57,3.47,4.95,1.08,7.8,3.32,13.03,1.21v-4.67c-5.1,1.82-4.86,3.55-10.31.73ZM1466.15,689.41l-3.5-.02,2.35,5.27c-5.1,2.11-1.36,4.11-4.72,7.76l6.53-2.36,1.09,2.31,11.36-3.52-2.39-3.53c-.47-.29-6.99,6.51-5.91-1.21l-3.54,1.21-1.25-5.91Z"/><path class="cls-1" d="M1211.18,579.07c-2.76.03-4.64-.15-6.53,2.37-1.11-4.61,7.63-6.21,10.08-10.67-.19,2.26-.2,4.02,2.37,3.58v1.15c-3.72-.3-4.14,1.45-5.92,3.57,4.63-.04,3.14,1.93,4.45,2.29,3.2.87,7.3.22,10.39,2.42,3.66-2.36-2.91-6.97,4.13-5.88l-2.37,1.76,3.55,5.35-3.02-1.08-1.22,2.29-4.07-.65-1.17,3,2.36,1.18-4.73,2.99,9.48-1.8-3.54-3.55h8.28s-4.74,9.48-4.74,9.48l4.74.02-3.62,4.14,4.8,5.33c-2.35,1.71-5.16.1-6.53.25-.36.04-1.41,3.32-4.14,2.15l2.99,7.1c2.17.47,7.83-3.46,7.71-5.92l3.52,2.36,1.14-4.26,4.13.74,1.85-2.4c.85,4.76-2.55,4.29-5.08,5.94-.8.52-.85,2.02-1.02,2.1-.37.16-6.32-1.09-8.12.27l1.19,2.33-7.04,2.34c.63-4.13-9.94-5.22-10.74-2.88-.79,2.31,5.36,2.88,4.83,6.44l3.45-1.11-2.36,3.54c5.27-1.01,4.64,4.32,4.75,8.31l5.33-10.66c1.7.77.55,5.56.77,5.75,1.09.92,7.39,2.67,9.3,2.56.38,2.13-2.06.65-3.19,1.5-1.87,1.4-1.42,3.68-6.04,4.22-4.02.47-4.92-2.4-8.55-2.17-.6,5.65,8.89,2.35,8.29,7.11-3.85-1.48-7.84-2.59-11.85-1.17l4.74,2.96-3.55,1.76,9.47,2.39c-.08-3.39.89-5.42,4.75-4.74.3,1.95-3.02,1.36-3.54,2.97-1.23,3.82,3.53,4.95,6.39,4.01l2.49-3.42c2.9,1.07,3.39,7.26,7.11,5.91l1.79-5.91-3.54,1.18,1.17-5.92-2.37,3.55h-3.56c2.22-2.83-.69-2.21-.89-2.95-1.69-6.43,4.99-5.98,7.36-1.72.85,1.53.55,3.94,1.73,5.38.28.35,6.61,5.02,7,5.23,2.42,1.3,5.94-.18,8.52,0,.47,2.36-.24,2.61-2.35,3.01-4.02.77-9.41-1.02-13.05-3.02l2.35,3.55-3.54,2.36,5.92,3.57-7.12-1.16,1.22,2.36-3.59.02c.57,7.58,12.15,6.06,17.73,5.84-.44-4.2.98-9.77,6.01-7.63l-2.37,1.77c-1.31,4.05,6.41,4.81,4.47-1.48-.5-1.64-2.67-2.3-2.1-4.45l2.36.59,1.08-4.83-2.26-2.86h3.55c2.33,5.94-1.01,5.98-1.19,6.65-.27.97.02,2.25-.01,3.31l2.4,1.3-2.4,3.57,2.42,2.36-4.82,4.82c2.73,2.88-.05,6.11,3.62,7.04-4.28,4-.41,10.27-2.51,15.48l2.48,2.27-2.36,9.44,2.38,1.87-2.37.02c-.49.54,1.72,1.74,1.85,2.89.61,5.18-.96,15.14-.71,21.46.16,4.07,2.01,8.1,1.22,12.4-1.81-.38-3.29-5.17-3.47-6.59-1.17-9.1-.19-21.35-.34-30.79l-3.27-.58c2.03-4.44-3.63-7.92-3.65-10.08-.03-3.36,4.24-1.73,3.62-4.73-1.31-2.94-9.72-2.95-7.11,1.75-1.39.71-6.37-3.39-7.81-4.68-2.27-2.05-.43-5.21-5.23-2.43-.69-3.66,1.19-1.8,2.81-2.46,1.15-.48,6.17-2.66,6.67-2.27l.27,5.67,6.84,1.42,1.17-3.54c.78,2.27,2.2,4.57,3.48,6.56.62.95-.66,2.45,2.47,1.72-2.68-5.5,1.39-11.54-.1-17.68l-4.63-.11,2.36-4.73-4.75-.64,1.21,2.38-1.21,2.99c-5.05.41-3.95-5.74-8.67-2.44-2.96,2.07.7,6.25-2.59,8.37l-2.5-3.5-6.38,1.12c-.45-3.12,2.54-3.61,4.75-3.57-1.33-5.34-3.81-7.51-9.5-7.11v-3.55s4.74,2.37,4.74,2.37c2.28-3.29-3.76-5.2-5.38-4.38-1.97,1-1.78,5.08-7.65,3.18l5.9-5.33c-2.44-3.41-6.22-1.25-9.47-.57l2.38,5.9c-1.27,1.38-4.46-4.85-7.11-2.35-2.5,2.35,3.67,3.64,2.36,5.92-5.9-2.1-12.32,2.72-17.2,5.93-2.15-3.02,4.41-3.74,5.34-6.52-1.97.39-4.12-4.88-3.55-5.32,2.79-2.15,1.73,2.9,3.54,2.35.61-4.61-3.68-6.06-7.08-5.92l-.03,3.57-4.12-1.21-.61,3.55-4.9.69-4.55,16.61,2.32,1.09c-2.61,1.9-2.66,4.67-2.36,7.71,1.8-.42,2.43-3.21,4.03-4.3.86-.59,2.61-.26,2.89-.56,1.24-1.34-2.34-10.8,5.54-10.67,2.45.04,4.09,2.64,6.51,1.3.93,5.45-1.45,2.7-5,3.85-3.72,1.2-7.29,4.03-4.48,8-3.91-2.55-7.39,3.13-7.11,7.12l8.29-.59c-4.01,2.81-11.08,2.5-11.85,8.9,4.49.59,8-.92,10.25-4.79l8.71,2.41c-2.86.82-4.45-.82-5.34,2.4-3.38.66-.29-2.21-.57-2.37-2.52-1.45-2.31,1.58-2.81,1.89-3.02,1.86-6.62,3.27-10.25,2.85l2.36,36.76c-8.19-1.29-4.66-6.28-4.98-11.26-.48-7.45-1.42-14.86-1.1-22.39l-10.51-3.16c4-7.08-5.77-8.25-5.94-8.87-1.01-3.74,6.45.01,7.54-.62l.77,3.59c3.41.41,9.58-4.37,7.7-8.39-.97-2.08-5.51-1.7-4.15-8.21l4.73,5.92,1.09-7.79-2.29-1.09,2.39-5.34c-9.71-.77-7.97,8.66-7.12,15.41h-3.56c1.02-2.96.83-4.02-1.78-5.93l-1.17,2.36c-2.94-4.35-4.55-3.01-8.9-2.96l10.67-4.76c-2.87.32-1.58-5.05-4.13-4.13-2.04.73-.25,4.41-2.97,4.73-.41-2.66.61-6.29-.01-8.71-.25-.95-2.45-.69-2.42-1.39.12-2.89,2.84-7.49,6.38-6.5.61.17,2.4,4.4,5.53,3.56l-2.98,1.19-.56,2.33,5.78,2.57-1.05,2.19,4.74-1.19-2.37-3.53,4.73,2.35v-4.75c.73-.75,5.93,1.86,4.75-2.36l-4.73,1.19-.61-3.57-2.94,2.37-2.38-4.15,3.55-.6-3.55-3.54,4.74-.02-2.45-1.83,3.64-8.83c-5.87,2.18-3.93,8.33-11.84,7.13l3.55,4.73c-.27.26-6.66-2.14-7.11-2.37.19,2.37,1.42,3.91,2.37,5.92l-3.58-.77-1.75-5.14c-3.43,2.75-4.17,8.69-8.85,8.42l-.07,5.81-4.72-2.39.74-2.45c6.91-1.62-1.06-10.96,8.73-10.56l-2.36,1.76,3.55,1.78,1.78-5.92c1.29,1.32,2.47,2.71,4.16,3.55-.08-.98,1.35-3.07,1.09-3.44l-3.46-2.48c6.19,2.84,5.47-.7,6.79-1.13,1.67-.54,3.9-.04,6.02-.86,1.53-.59,2.09-4.7,7.34-2.77l-8.3-2.35c1.14,7.34-5.51,2.33-2.54-3.04l-2.19-.54,4.73-2.35,1.18,3.56c-.2-5.81,2.55-9.24,8.31-9.51.67-5.81-5.7.34-5.92.02-1.03-6.38,3.46-3.34,6.39-3.59.71-.06,1.05-3.82,4.27-2.33l-1.19,3.54h3.57s.24,5.67.24,5.67c2.51,2.39,5.57-1.3,6.25,2.65l3.59-2.35,1.95,4.52,4.56.19-3.54-3.58v-2.35s2.35-1.17,2.35-1.17l-4.72-4.75,5.92-1.19-2.37,3.53,3.55.02,1.18-3.56c-1.07,8.01,1.02,5.03,5.08,7.15,1.33.69.21,2.77,2.04,2.33-.22-3.1-.73-4.4,2.38-5.33l-5.31-2.97-2.98,3.55,3.55-7.1c-3.57,1.45-4.18-3.1-5.25-3.3-3.4-.64-3.75,3.89-6.61,3.28l.71-3.59-4.27-1.15,8.29-5.37-2.36-3.58-3.57,1.33-2.35-5.4c4.18,2.32,7.19.27,8.9,4.73l.58-3.54,2.38,2.36,1.77-2.38,5.33,2.37-3.55-3.53c5.05,1.11,5.01-4.11,10.67-2.39.95-3.85-3.89-1.82-5.91-3.56l-1.21,4.75-3.52-1.78c1.55-1.38,9.14-6.47,7.09-8.87l-7.13-.64,3.58,4.17-3.58.6,2.38,1.77-2.98,1.21c-.9-5.09-7.3,1.27-7.7-4.75l-1.76,3.54-4-7.74,2.21-1.73c-3.75-1.46-4.92-5.51-9.54-1.79l-1.11,11.25,2.35-2.36,1.2,2.98-3.54,2.35,5.74.39,1.95-6.9c4.32,8.92-7.22,9.8-8.72,12.11-.8,1.23-.06,6.53,3.37,4.5l-3.56,1.18,1.19,7.11c-3.98,1.16-1.16-5.61-2.37-7.12-.28-.35-3.7,1.96-4.73-.6l4.74-1.75-.02-5.93-3.56.58,3.57-6.49-4.72-2.4-2.39,3.56c1.4-2.56.16-5.92.74-8.36.67-2.85,3.72-3.41,3.81-3.66.37-1.08-3.38-4.13,4.35-5.59,3.55-.67,9.71,5.43,10.64-.2l-2.94-1.15c1.76-.47,4.58-.74,5.94-1.84s.93-2.64,1.17-2.92ZM1199.08,638.77c-1.6-.84-2.86-.62-3.98.78l.67,3.56c-1.07.78-7.72-2.36-8.3,1.18l10.67.02c-.43,2.03-1.7,3.99,1.17,4.74l1.21-5.92,2.37,1.78-1.28-5.29c-2.81,2.08-2.11-.63-2.53-.85ZM1221.17,653.36c-.91-1-1.38-2.14-2.29-3.11l-1.18,4.62c-3.27-1.76-6.07,2.14-7.11-2.25l-1.65,5.15c1.7,3.09,5.71,3.43,8.48,1.91,1.36-.74.15-3,2.65-2.34l1.19,2.38c4.14-2.43-3.86-4.95,1.78-4.75.46-1.77-1.2-.88-1.86-1.62ZM1170.9,672.66l-.06-5.81c-6.57,4.61.59,10.07,5.94,10.66-.29-4.53-5.12-4.16-5.88-4.85Z"/><path class="cls-1" d="M1266.51,630.59c.42.31.51,1.27.44,1.85l5.9-3.55c-.82,3.74,1.93,3.84,4.17,5.93l2.38-4.73c5.67.99-2.6,2.77-.6,4.73l8.28-3.56c.16,3.04-2.17,4.86-4.72,3.56l1.17,4.74-6.53-2.33-1.19,1.16c.51,1.98.51,2.53-1.73,2.39l.53,2.37,4.18,1.17-1.21,4.73c-3.01,1.19-2.02-2.36-3.06-2.39-.76-.02-1.85,1.23-2.64.95-.14-.05,0-1.71-1.88-2.33-4.78-1.59-7.04,1.28-11.38.21l1.2-4.74,4.73,1.18-1.17-13.04c.22-.27,2.56,1.28,3.12,1.7Z"/><path class="cls-1" d="M1277.61,617.01l5.92-4.73c-.7,3.19-2.13,3.04,1.22,4.34l5.89,13.45-4.73-1.21,1.19-2.34-5.95.62-1.21-6.56-5.31,2.37-.78-2.07-2.17.9v-3.56s7.12.59,7.12.59l-8.3-4.17,5.93-2.36-.58-2.35-2.98,1.16.87-2.13c-4.56-2.2-2.28-6.18,2.11-1.45,2.8,3.02,3.92,5.67,1.76,9.5Z"/><path class="cls-1" d="M1211.12,564.74l-6.98,1.33-.62,4.78-5.37,1.1c-.29-5.9,3.93-8.77,9.48-8.31l-3.55-3.53,5.26-1.18,1.78,5.81Z"/><path class="cls-1" d="M1323.87,562.47l1.19,4.72-4.82.52c-1.41.92-.65,9.55-5.79,8.91l-2.43-3,.21-2.69c3.18-.12,3.73-3.77,4.77-4.6.4-.31,2.72.5,3.82-.19,1.7-1.06-.85-4.68,3.06-3.68Z"/><path class="cls-1" d="M1203.78,527.26c.97.45,3.64,4.17,2.66,5.54l-3.55,2.37,8.29.61-4.68.69-.06,3.46c-1.92.1-6.77-5.6-6.78-6.52-.01-.77,3.2-3.47.86-6.53,1.17-.08,2.13-.15,3.27.38Z"/><path class="cls-1" d="M1197.08,574.19l4.61-1.05-4.08,6.98c-2.62.42-8.78-6.53-7.76-8.17,3.78,1.23,5.62-3.98,7.24,2.24Z"/><path class="cls-1" d="M1459.08,594.5c-.47,1.84-7.33,6.56-8.24,5.91-1.39-2.42-1.59-6.56-2.48-8.62-.68-1.57-2.75-.12-2.31-2.04l3.56-.68c1.98,4.18,4.84,5.75,9.48,5.42Z"/><path class="cls-1" d="M1216.31,690.13c.38.56,5.26,4.41,4.36,5.17-2.67.48-4-2.08-6.02-2.94s-3.16,1.88-4.05-1.79c-1.49,3.74-3.49,2.83-6.52,4.74.97-7.2,6.35-6.56,11.84-8.31-.04,1.02-.18,2.27.39,3.12Z"/><path class="cls-1" d="M1331.12,584.87l5.18-1.06c4.53,7.16-3.54,3.53-3.96,3.75s-3.96,5.22-6.69,5.73l-1.77-3.54c3.22,1.52,7.03-3.8,5.93-7.11l1.31,2.23Z"/><path class="cls-1" d="M1482.75,646.75c-.07,2.81,2.41,3.21,4.82,3.51l-1.21,4.74-2.87-1.25c-2.55,7.53-8.84-7.66-.75-7Z"/><path class="cls-1" d="M1361.8,594.5c.24,3.02,3.41,4.47,4.26,7.1.41,1.27-.67,3.04-.45,3.39.49.8,5.54,1.62,4.51,4.93-5.58-1.06-4.54-7.7-9.47-4.75,4.61-4.84-1.2-6.36-1.2-10.06l2.36-.6Z"/><path class="cls-1" d="M1397.4,518.58c2.43,2.08-2.6,2.46-2.37,2.95l4.75,7.71c-3.64.53-5.25-3.49-8.9-4.72l-1.76,2.36c-.44-3.1-.07-2.93,2.12-4.38,1.18-.78,5.57-4.42,6.17-3.91Z"/><path class="cls-1" d="M1209.99,547.05c-.44,4.35-2.74,9.4-7.1,10.67l2.36-4.74-4.74-.59,2.97-2.97,1.76,2.36,4.75-4.73Z"/><path class="cls-1" d="M1319.13,579.08l3.54-1.2.04,2.96-4.77,5.34-.86-3.63-1.79.03c-3.6-2.94,2.88-4.07,2.65-7.05l1.18,3.56Z"/><polygon class="cls-1" points="1253.88 627.71 1253.87 637.19 1247.95 635.99 1251.51 632.45 1245.59 630.08 1252.71 630.06 1253.88 627.71"/></g></svg>