<?xml version="1.0" encoding="UTF-8"?><svg id="Layer_1" xmlns="http://www.w3.org/2000/svg" xmlns:xlink="http://www.w3.org/1999/xlink" viewBox="0 0 4356.6 3203.49"><defs><style>.cls-1{fill:#16043a;}.cls-2{fill:#fff;}.cls-3{clip-path:url(#clippath);}</style><clipPath id="clippath"><rect class="cls-2" x="338.6" y="44.49" width="1929" height="1085"/></clipPath></defs><rect class="cls-2" x="338.6" y="44.49" width="1929" height="1085"/><g class="cls-3"><path class="cls-1" d="M1811.04,849.75c-4.87-.88-2.47.79-6.32,3,1.35,2.08-2.83,2.79-2-.18.57-2.05,3.87-3.05,3.29-5.69-2.89-.66-3.5,1.9-4.85,2.87-1.83,1.31-6.58,3.79-4.69-.55.81-1.85,2.8-1.06,3.71-1.7.17-.12.4-3.48.81-4.21-1.64,1.23-6.63,7.67-6.12,2.85l4.68-2.86-1.07-2.12c-3.15,3.25-6.32,1.9-10.06,2.84l-.35-1.41,25.84-4.32-2.14-1.79c1.18-2.01,4.25-1.96,3.58-4.66-.57-.58-7.04.57-6.46-2.15,7.78.67,15.37,1.33,23.11-.22,3.73-.75,6.42-1.11,8.47-4.8l-4.3,1.42c-.75-3.29,2.63-2.22,3.58-4.3-3.68.95-1.45-3.19-3.94-3.59-2.09,5.8-6.86,5.8-5.39-.72-2.07-.26-2.41,2.05-3.59,3.15-.21.2-1.69-.6-2.51,2.58l-2.87-3.57c-.81.65-1.02,1.8-1.85,2.44-1.01.77-4.25,1.78-2.81-.64,1.1-1.85,3.4-2.83,2.13-5.38-3.05-.81-3.66,2.04-6.02,2.83-1.18-.25-1.64-2.54-2.01-2.76-.55-.33-2.59,1.83-3.15-2.22-.41-2.93,2.3-3.2,2.58-5.76-2.22.15-4.99.68-7.19.33-1.29-.21-2.56.06-2.13-1.76l16.83-.76c4.21-1.04,6.09-6.56,10.44-5.7.86.8-3.42,7.95-1.07,7.88l2.85-7.85,6.12-1.47-3.58-1.42c4.81.99,2.26-3.39,5.01-3.61l-1.03-1.4-4.67,2.1-1.47-3.55,7.16-3.67-.7-2.08,4.26-.77c-.53-2.91-.41-4.03.8-6.7l-2.54-2.57c-1.81,1.76-1.56,3.57-4.68,2.86v2.87s-4.29-2.87-4.29-2.87c-.11,2.28-2.45,2.42-3.97,3.57-2.72-1.69,3.66-4.07,2.51-5.71l-3.17-1.44-3.74,4.22-5.28-2.09,1.44-2.86h-2.16c-.39-2.26,1.53-3.22,2.86-4.67-.9-1.39-1.14-.78-2.14-.74-2.28.1-4.77.74-7.18.38v-2.15c7.94-.43,18.29.2,26-1.64,2.96-.71,6.6-2.87,7.42-5.59l4.62.04-5.02-1.42c2.75.52,3.83-1.61,5.29-2.28,1.94-.89,4.2.38,4.76-2.75l-4.55.74-1.54-1.45c-1.56.95-.34,2.15-.37,3.58h-2.15c1.21-5.65-4.62-1.33-4.32,1.44l-3.13-1.39-2.96,2.81-2.33-2.29.55-1.28c-3.55.64-3.3-1.68-4.91-3.96l3.45-3.58c-.09-1.88-7.87.56-8.59-1.78l22.45-2.32c2.78-.96,5.63-2.86,8.26-3.93.95-.38,4.07-.55,4.45-.94,1.16-1.2-3.12-2.59-3.62-2.52-4.22.56-4.56,4.41-7.86,5.4l.37-2.15c-6.8-1.35,2.74-5.2,1.05-7.17l-2.86,2.15.68-5.28,4.34-1.17h-6.45c-.6-3.18,3.11-2.99,3.58-5.74-.28-.2-5.55.83-6.79.71-1.01-.1-2.1-.39-1.1-1.43,12.36-1.69,23.58-3.37,34.4-9.74.94-.55,1.62-1.77,2.64-2.38,2.53-1.5,7.1-.55,3.5-5.81l-5.74,4.28-1.09-3.06-2.13-.51.71,2.14-3.58-.71v2.15s-2.04-.18-2.04-.18l-.83-1.26v2.86s-3.22-2.78-3.22-2.78l-7.18,2.06-1.09-1.79c.87-1.7,4.12-.95,3.58-3.23-1.87.17-4.17-.38-5.95.14-1.58.46-2.12,2.98-4.09,2.72-.36-.35,3.28-3.81,1.79-5.02-.25,1.16-6.69,6.49-7.18,6.45s-1.45-1.58-1.07-2.12l4.3-2.18-1.43-1.42,6.45-3.59-4.3.72-.71-2.16c-.1,3.55-2.05,4.07-4.68,5.72-2.83-1.89,1.53-3.59,3.04-4.81.58-.47,1.85-.32.56-1.64-2.12-2.17-7.86.28-10.42-.71,3.21-3.55,9.37.35,13.63-.7l.35,2.13c2.03-.1,1.86-3.28,2.93-3.51.61-.13,1.85.71,2.82.65,8.34-.5,18.11-2.14,24.75-7.54l-3.23-2.47-3.91,5.32-6.08,1.07c-3.79-3.05,2.17-3.84,3.17-5.01.4-.47.13-1.9-1.07-1.43-1.07,1.2-3.57.88-4.33,1.39-1.17.78-3.2,4.23-4.43,5.6-.42.47.05,1.38-1.63.92l-.73-4.31-2.51,1.42c-2-1.94,1.41-3.2-2.51-4.65l2.87-3.22-7.88,1.43.41-2.22c7.43-.78,13.62-4.15,20.42-6.72,1.68-.64,4.46-.73,5.7-1.48.55-.33,3.73-4.77,2.53-5.36l-4.66,3.58c-1.45-2.83,1.87-2.93,1.42-5.74-2.06,1.05-5.47-.22-6.71-.06-.62.08-.78,1.62-1.51,2.21-2.13,1.7-4.57,1.78-5.77,4.29-1.63-1.31-.87-1.01,0-2.13,1.25-1.62,2.34-2.43,4.3-2.85l2.52-4.33c-3.36-.87-4.08,1.52-6.47,3.2-1.07.76-.75,1.76-2.12.02,1.11-1.28,2.5-2.31,3.6-3.59,1-1.16-.04-3.16,2.84-2.52l-2.11-.74-.05-2.84c-.39-.47-4.29,2.31-3.58-.71,3.75.47,4.97-2.91,6.9-4.23,2.72-1.86,5.61-.3,5.29-5.82l-3.58,1.43-.36-2.18-6.1,1.46c1.51-2.32,3.5-4.46,6.45-4.31l-1.41-.74c.49-2.81,3.5-2.47,4.99-4.63-5.22-1.88-5.46,3.9-10.04,4.66-.03-2.23,2.48-3.05,3.88-4.4.37-.36.25-1.51.6-1.88.74-.77,3.13-.25,4.28-.4.65-.08,1.31-1.09,2.23-1.08.58.01,5.82,1.01,4.81,1.97l1.4.03c.31-2.5,3.89-3.79,5.31-1.43.48.8-1.48,1.86,1.88,1.43l-2.15-3.56c1.25-.19,2.44-.64,2.15-2.16-3.78-2.44-10.22-3.2-10.76-8.62.17-.18,4.07,1.05,4.53,1.38,1.12.82,3.41,7.58,5.87,2.92l2.52,2.57-.73,3.88c.29.28,6.97.48,8.11.74.62.14.51,1.26,1.37,1.64,3.86,1.71,7.21-.74,11.33.5l-2.15,2.14,3.21.74.36-1.82,2.83-.29c-.34,2.82,3.6,3.09,2.57,4.97l-2.51-1.43,2.14,4.3c-3.46.39-4.56-2.18-7.17-3.58l2.86,7.17-4.98-3.56c-.39,2.59-2.85,2.92-5.06,2.85l2.15,1.44c-1.96.69-.17,4.91.44,5.07,2.39.62,9.32-1.34,12.1-1.52.68-.04,3.12-.5,2.53,1.09l-7.9,1.09,1.4,3.51-2.82,1.86c.75,1.99,2.76.93,2.85,1.08.88,1.48-3.37,7.83-4.66,2.87-2,1.63-1.69,3.43-1,5.66l2.79.08-2.86,2.14,2.86,1.1c.74,1.55-2.41.64-2.16,3.53.22,2.54,3.36,2.84,2.88,5.43-3.32.73-3.16-4.37-5.35-4.32-1.84.84-3.83,1.26-3.26,3.61l2.83.08.47,2.15c2.65-.7,3.27,1.29,3.48,1.28.64-.02,1.67-.83,2.91-.71,1.83.18,3.55.82,5.4.79l-.35,1.42-2.52-.7c.85,2.75,2.24,3.24,5.02,2.86l-1.43-3.58c1.91-.77,1.19,1.45,1.85,1.45.72,0,1.21-.83,2.46-.39,2.33.82-1.73.98-.72,2.53l2.17.37c-1.49,2.57.83,5.06,1.82,7.44l13.95-1.35c-.42,3.93-7.09,1.52-10.05,2.15l-1.43,1.44c.09,1.32,1.95.43,3.28,1.37.6.42,2.18,3.1,1.73,3.65-.6-.91-5.54-2.4-5.73-2.15-1.05,1.44,3.32,2.31,2.97,4.22l1.32-.64c.62,1.85-2.66,4.25-3.95,4.13-.94-.09-2.33-4.29-3.93-2.69-1.44,1.44,4.21,4.14,2.86,6.45l-5.02-2.86c.68,1.84-.07,4.48.16,6.11.06.42,1.01.24,1.1.7.13.61-.46,2.21.17,3.23l-5.74-2.14c-1.72,4.72,5.94,3.6,6.87,4.97l1.01,4.73,9.34,1.79-2.15,2.86,3.58-.73-.71-1.41,5.01,1.07-2.13,1.42c1.25,3.43,3.16,4.04,5.73,6.11-2.79-.15-5.32.04-6.8-2.91-.43-.85.59-2.11-.75-2.82l-.33,1.42-2.15.02c-1.14,4.73,6.66,6.12,4.29,10.03h5.02s-1.43-2.14-1.43-2.14h5.02c-2.46,2.52,4.43,4.84,4.3,5.37-.63,2.67-3.46-2.27-5.02-1.07l2.86,3.95c-.2,3-4.92-.71-5.71-1.5-.62-.62-.97-3.34-2.54-3.16-3.25.37,3.17,6.52,2.51,7.16l-5.74-2.86c.53,1.95,1.54,2.77,3.59,2.87l-.72,1.08-9.32,1.06,12.08,2.28,2.98,5.99-1.43,1.06c1.49-.54,7.77,2.93,6.45,4.31-1.74-1.87-4.33-1.73-6.13-2.85-2.07-1.28-.44-4.2-5.34-3.61l2.87,6.45-4.3-2.54c-.67-3.16-3.44-.13-6.11.38l-.72-2.86c-5.38.26,1.17,3.89,2.3,6.47l12.6.81c2.56,1.79,1.11,3.79,5.21,4.18l-.18-1.43-1.62-1.43c5.07,1.82,9.48-.68,14.74.28.81.15,1.59-.08,1.76,1.15h-10.05c-.64,2.56,2.57,3.19,4.29,4.32l-.35,1.43-3.92-.37c2.48,1.04,2.05,2.4,2.86,4.66-3.54-.49-4.92-3.06-7.17-5.38,1.21-1.25,4.09,2.01,3.59-1.07l-6.46-1.44,4.3,7.88c-2.29.35-2.87-2.85-4.15-3.56-1.5-.83-5.67-.66-5.86,1.05-.19,1.72,4.31,2.38,1.76,3.94-1.81-2.58-4.39-1.46-6.09-4.29,1.68,3.95,1.17,3.35-1.44,6.45,1.27,0,3.16.25,2.86,2.16l-3.58-1.43.08,2.07c3.3-.07,3.12,3.43,4.71,4.26,7.02,3.66,22.39,2.88,30.2,4.95,1.29.34,1.93-.25,1.6,1.64l-10.04-1.09c-1.99,3.11,4.76,2.66,2.15,6.83l-3.58-1.43,2.86,4.3-5.02-.71c-.31,1.17,1.02.46,1.24.85.46.8.12,1.84.18,2.74-2.33-.57-2.83-2-2.87-4.31l-1.79,3.57-3.35-4.2-4.16.61c-.03-2.04-.54-3.27-2.89-2.85l1.08,3.56c-4-3.82-5.66,1.12-6.22,1.3-1.49.48-2.88-2.79-3.48,3.03-13.2-2.19-5.64,3.87,2.16,2.87.68,3.04-3.08.2-3.58.71-.2.99.06,1.18.74,1.77.89.77,10,5,11.27,5.24,2.25.42,4.5-.2,6.71.47l.67,2.57,3.95-2.87.76,1.47,1.74-.76c1.26,2.79-.99,4.48-2.87,6.46,2.96-1.44,3.81.76,6.13,1.41,3.01.84,6.49.57,8.58,2.91l.36-1.43h1.42c.12.08-.19,1.13.34,1.3,1.9.63,8.46-1.2,10.42,1.21.28,1.94-1.2.82-2.15.72-2.07-.22-7.09-1.6-8.61-.74-1.83,1.03,2.04,2.29,2.48,3.2.08.17.07,3.4-.02,3.71-1.33,4.61-4.83-.41-6.04.65-1.55,1.35,2.53,1.23,1.43,2.86-5.45.88-3.64-5.7-6.82-7.89l1.08,2.86-2.15.36,2.15,3.23c-4.14-1.3-4.07-5.85-9.32-3.58l-.1-2.76c-2.11-1.68-3.16.46-4.6.6-.95.1-5.93-1.95-5.35,1.07.32,1.65,3.9.7,4.87,1.25.83.47,1.89,3.78,5.18,2.71-1.05,4.18.12,4.32,3.37,6.32,6.81,4.18,14.32,3.44,19.96,9.47l.71-1.43c1.26,2.3,12.39.82,12.55,3.23-1.06,1.62-1.38.6-2.56.44-3.23-.43-6.33-1.59-9.62-1.51l4.18,3.93-2.05,2.18,1.45,2.14-2.14,1.78c2.87.04,1.47,2.17,1.89,2.89.98,1.71,3.18,3.33,3.13,5.73l-5.7-3.99-2.89.76c.86.62,1.66,2.09,2.46,2.55,1.92,1.1,5.7.25,5.41,2.83l-4.29-1.43-1.79,2.14c-1.2-.26-2.37-3.3-2.68-3.49-.42-.25-1.48.6-2.03.28-.64-.38-.95-2.15-1.79-2.51-3.96-1.69,1.65,4.94-2.13,5.6l-3.73-3.5-4.53.04v1.79c1.06,1.22,2.16.39,3.7,1.27,1.61.91,4.29,4.14,6.34,5.21l-.35,1.06-6.45-4.3c-3.22,3.31.71,2.93,1.58,3.79.45.44.34,1.82,1.22,2.72,1.64,1.67,7.98,2.94,10.47,3.55l-.74,2.46c2.27.44,1.08,2.74,1.5,3.22.13.15,2.43.16,3.38.55,2.98,1.24,2.4,1.09,5.91,2.01,2.15.57,4.2,2.05,6.26,1.99,1.47-.04,1.3.34.9,1.6-.1.31-5.67-1.04-6.11-1.78l-.36,1.43-4.29-2.87c-1.13,2.73,3.32,3.19,2.86,4.65-.86,2.71-3.53-1.47-3.73-1.57-.13-.06-3.41-.47-2.72.85l2.16.83c.34,1.03,3.19,4.65,2.85,5.63-.36,1.05-4.05,1.44-3.92-.36l-2.51,1.44-1.46-4.31-2.14.74-4.32-8.25-.72,1.78c-2.4-.57-2.66-1.95-2.94-4.22l-2.79-.07,1.43,4.3c-2.29-.42-2.05-2.06-3.23-3.58l-.34,1.42-4.31-.71c.25,1.52,1.29,2.5-.37,3.58-.57-2.24-1.22-.64-2.51-1.05-1.72-.55-2.76-1.08-4.31-1.82,1.81-.05,3.32.66,5.02.36-1.36-1.41-5.75-5.86-7.53-5.86-1.39,0-3.19,2.53-5.39,1.18-.07,1.68-.39,3.39-.72,5.03-.47.34-.77.83-.73,1.43l-3.48-1.55c.57-1.06,1.21-1.5-.44-1.32-.94.57-2.18,4.12-1.97,4.91l-1.26.12c-.1,1.5,1.59-.24,1.43,1.78-.07.91-1.82-1.43-1.44.72l2.55,1.05-.39-2.83,1.8-.73c.43,2.03,1.33.74,1.62.92.32.2.36,1.3,1.37,1.81,1.61.82,3.57.57,5.25.16-.78,1.92-3.59,1.78-2.88,4.3l-4.3-2.87.75,3.83-1.47,1.54c2.38.63,1.29,2.54,1.44,4.67l-2.87-1.79c.61,3.13,4.13,2.72,2.15,6.09-1.28.24-.4-1.24-.92-1.91-.46-.6-3.05-2.33-3.16-2.55-.15-.31.58-1.2.51-1.25-.17-.13-1.07.16-1.5-.1-.97-.59-1.61-1.82-3.17-2.06l1.08-1.44-2.86-1.09c2.16-.9,2.65-2.68,3.59-4.65-3.13.06-4.6-3.28-6.82-5.02l-1.78,1.78,3.58,4.66c-2.49-.24-3.77.17-3.6,2.88-2.92.01-2.43-3.07-1.43-5-4.14-1.28-6.24-4.06-10.76-4.33-.32.41,2.77,5.2.34,6.45-2.1.32-.49-2.21-1.22-3.44-.23-.38-2-.76-2.36-1.58-.91,2.43-2.51,2.05-4.65,1.43-.16,3.01,2.83,3.79,4.3,5.38.69.75,1.04,1.83,1.77,2.56,4.76,4.75,10.65,8.49,15.45,13.23-4.7,2.32,2.18.86,1.43,2.49l-1.43,2.16-1.79-2.14-1.78,1.42-4.31-4.3c-.19.24,1.31,5.12,1.61,5.91.25.65,1.52,3.98,1.65,4.17.52.79,3.64.73.68,3.53l-3.23-2.85.35,3.58c-2.74-3.32-6.53-4-6.11-9.32l-1.02,1.4-3.27-2.12c.16,2.73,2.86,5.27,4.29,7.54l-2.15.36c-.32,1.15,1.07.52,1.21.84.19.44-.16,1.98.22,2.74-2.87.71-1.37-1.92-3.58-1.43l-1.81,3.59c-1.4-4.13-2.36,3.33-2.61,3.51-.68.5-3.2-.8-2.79,1.51-.62.48-2.04-2.87-2.86-3.26-1.05-.5-2.72,1.1-3.56-.73l.69-3.89-1.71.72-1.83-1.47,2.84-4.98,2.13,1.43,2.15-4.3c1.98,4.24-3.53,9.86,2.05,12.29l-.61,2.05c2.5,2.53,3.71-6.26,3.58-7.5-.15-1.32-2.02-2.22-.7-3.97h-2.88c-.55-3.02,1.13-6.41-2.14-7.54,1.12-1.15,3.2-4.17,2.85-5.71-.31-1.37-2.59-1.36-2.83,0-.13.73,1.78,3.68-.03,3.9-2.07-2.51-1.14-4.88-2.17-7.88-1.37-.09-.36,1.79-1.06,2.9-.54.85-2.56.22-1.77,2.1l1.4.37c-3.63,1.22-.54,4.44-2.16,7.54-2.53.64-.83-1.96-1.52-2.77-.24-.28-1.9-.07-2.82-1.12-.72-.82-.6-2.57-1.74-3.27-2.09-.15-3.07,6.82-6.1,5.72.93-1.85.32-4.39.7-5.95.21-.87,1.81-.39,2.11-2.24.13-.81-1.23-7.75-2.81-6.15.59,4.76-3.27,9.67-2.87,14.7l-1.43-.36c.72,2.42,2.06,3,.7,5.74-.86-.89-2.77-1.11-3.39-1.67-.32-.29-.16-1.31-.46-1.61-2.39-2.36-3.31-3.28-6.9-3.93l.7-3.56-1.43-1.43-1.44,2.15-1.98-1.6c-.87-2.97,3.08-2.95,3.42-3.79.65-1.6-.24-2.14-1.79-1.81-3.41,3.25-3.87,4.62-3.05,9.53.51,3.06,3.73,6.09.18,8.42-.9-4.18-.68-8.92-5.37-10.04,1.05,2.41-1.48,2.84-1.52,3.92-.06,1.61.9,3.08.79,4.69l-5.73-2.87.71,5.02-2.86,1.44-.1-3.86-2.05-.44c.66-1.79.46-2.82-1.42-3.59-2.78,4.12-5.64,5.63-.11,9.06l-.63,2.42c-3.16-1.09-1.98-3.68-5.74-2.14l.79,3.12-2.21,1.18c-.18-3.18.43-4.5-2.87-5.74l-3.61,7.17c-1.1.21-2.18-.53-2.07-1.69.17-1.78,4.78-6.85,4.85-9.39.02-.58-.49-4.37-.65-4.9-.24-.82-4.51-3.92-3.55-5.54l1.42,1.43c.14-.63-.18-1.72,0-2.15-.71.21-1.91-.18-2.57.68l.42,2.9h-2.15s3.95-9.32,3.95-9.32l-1.08,3.58c.73.76,4.49-3.86,4.29-1.07-.02.26-2.36,2.09-2.86,3.23.67-.2,2.49-.88,2.79-.67l3.31,5.69c1.43-1.07,1.97-2.13,1.87-3.94-.15-2.73-4.67-4.52-.08-5.38-.97,2.64,2.92,4.39,2.91,4.69-.07,2.08-5.44,9.08-1.1,11.81,2.16.35.17-1.33.7-2.19.25-.4,1.43-.53,1.83-1.2,2.62-4.4,3.59-6.73,1.05-11.68-1.18-2.29-.94,2.15-2.51.71,1.07-3.01,2.55-2.89,1.43-6.45l-5.02,2.15.71-3.58c-3.73,1.73-5.43-.83-8.6,2.87l2.15-3.96-1.44-.7c.46-1.09,4.75-2.31,4.3-4.66-1.64-.42-2.14,1.8-3.31,1.98-.91.14-2.17-.97-3.17-.26-.6.42-.75,2.14-1.41,2.94-.76.92-5.36,5.62-6.46,4.66l5.74-7.17-7.17,6.1c-.46,1.49,1.39.99,1.43,1.07.33.62-.93,2.62,1.59,2.19l.56,1.4c-2.62-.65-3.09.53-5,1.45v1.42s2.48-.73,2.48-.73l.37,1.44c-2.18-.66-5.5,4.06-5.85,4.18-.52.18-1.88-.85-2.76-.59-.13,1.62-.16,3.73-2.14,3.6v1.42s1.42,0,1.42,0l-1.32.84c-.34.35.43,1.49.22,2.1-.22.65-3.64,8.24-3.91,4.61l2.12-6.83-7.52,7.17-1.82-2.51c2.14-.45,1.06-2.09,1.67-3.01,1.72-2.61,5.74-4.08,7.08-6.6l2.03.65.05-2.08c3.31-.14,8.44-1.78,7.13-5.82-1.71.97-2.44.37-3.57-1.07l4.29-3.6-2.14-2.13c1.75-4.2,4.53-5.85,7.17-9.32l-2.09-.43-.78-1.74c-.44,2.07-2.02,2.65-2.8,4.35-1,2.17-.37,4.66-2.59,6.06-3.35-.16-.51-4.42-1.07-5.01l-3.17-.75-3.28,4.33.7-5.74c-.76.32-2.25,1.54-2.54,2.18-.77,1.71,1.29,3.01-.68,4.26-1.19-.44-.34-1.92-.49-2.03-1.04-.71-3.17.24-2.74-2.98-1.69,1.2-2.52,7.52-4.31,2.88l-1.78,1.42c-3.09-2.16,2.67-4.44,3.22-6.11v-1.04c-1.49-.22-2.48-.77-2.17-2.51l5.01-1.85.04-3.55-4.75,1.4-.26,2.18c-2.07-.87-5.51,1.3-5.48,3.25,0,.45.96,1.06.94,1.42-.08,1.48-2.58,2.09-3.41.61-.44-1.7,2.12-6.11,3.3-7.4,1.11-1.21,2.91-.87,3.2-2.17-3.32-1.02-3.23.98-4.46,1.66-2.29,1.27-4.64,2.33-6.67,4.05l-1.08-2.41c1.28-.75,1.43-2.33,2.83-1.18l.75-3.56-2.14,1.81c-5.07.58,1.81-3.64.7-4.67-1.56-.15-2.45,1.31-4,1.44-2.07.18-3.91-1.49-6.04,0-.34-1.95.36-1.24,1.56-1.63,3.04-.98,9.86-2.09,13.24-2.45.94-.1,1.97.64,2.7.55.85-.11-.07-1.81,1.15-1.49l.41,2.16c-.46.8-4.28,1.73-2.92,3.58.84-1.69,2.93-1.77,3.96-2.55.68-.51.17-1.41.44-1.77,1.97-2.67,6.98-.98,9.09-1.41.53-.11.48-1.19,1.06-1.39,3.31-1.13,6.75-2.48,10.21-2.93l-1.48-3.17,3.52-3.03-1.33-3.84-4.29,4.3,1.44-4.65-1.43-.36c.08,1.48-1.79,2.36-2.06,3.37-.35,1.34,1.48,2.64-.47,3.79-1.08-2.33-3.91-2.29-2.51-5.01-4.42-1.12-4.09,4.6-7.9,4.3l4.31-4.31-2.86-2.87,2.14-2.13c-3.21-.43-5.63.2-7.89,2.51l1.44.71-.72,1.79c-1.19.23-2.95-.07-2.79-1.68l2.78-5.48-7.89,3.58v-2.87s1.06.54,1.06.54l.52-1.01c2.11,1.01.85-.66,1.94-2.09.69-.9,2.31-.57,2.21-1.73l-6.08,2.86c-.87-.9-1.48-.75-.33-1.74.65-.56,4.09-2.75,1.06-3.18-1.61-.22-7.02,2.05-8.99.25l30.54-4.62,8.93-3.64c-.21-3.1-3.25-.89-4.3-4.29,2,.36,3.03.5,5.02,1.43l-1.43-2.13c1.54.15,2.19-1.5,2.15-2.88l-5.26-.07c-1.25.79-.84,2.48-.48,3.65ZM1890.48,635.4c-.9-.75-2.27-1.24-3.38-.63l-2.86,3.62c3.61,4.88,11.1,1.05,6.24-3ZM1881.37,637.34l-5.74-.72c1.89,3.99-.23,3.68-.84,5.28-.55,1.45-.63,3.22-.59,4.76,3.09-1.94,8.65-1.26,7.88-6.46l-3.58,1.43,2.87-4.29ZM1875.05,653.24c.28-.49,4.94-2.53,4.16-5.15l-6.55,3.19.09,2.55c-2.45-1.6-3.87,3.83-1.82,4.14l6.85-.55c-.17-2.88-4.27-1.54-2.73-4.17ZM1894.78,659.81c-.29-.36-3.62-3.64-4.08-3.1-.21,2.87,1.54,6.29,4.29,7.17.07-1.59.87-2.71-.21-4.07ZM1888.54,668.19l-2.81.78.7,3.84-1.35.49c-1.06,1.42,2.24,3.47,3.3.09.32-1.03-.35-3.84.16-5.21ZM1893.88,689.43c-.43-.4-.63-1.01-1.12-1.38l-3.87-1.93-.34,2.89,1.3-.58c.59,2.38,2.79,2.06,4.78,2.74,1.52-1.3-.31-1.31-.76-1.73ZM1912.66,689.29l-1.86.05c1.67,2.77,3.47,5.42,7.16,4.67l-5.3-4.73ZM1914.37,708.37c1.58-4.49-4.21-6.53-7.16-8.61-1.23,4.46,3.45,7.44,7.16,8.61ZM1892.73,706.83l.52-2.75-3.64-2.88-.36,2.41,1.44.81-1.09,1.08-3.2-1.44c-.45,2.91,4.95,3.64,6.34,2.76ZM1866.3,731.33l1.43-2.86-2.85,2.54,2.14,3.2-3.59,2.16c5.28.31,11.33-3.7,2.87-5.03ZM1858.77,732.95l-3.23,2.34,4.58,1.76,1.13-1.75-2.49-2.35ZM1925.87,737.09l-1.09-2.87-1.47,1.47-3.18-.76c-.83,4.85,6.34,1.94,6.47,5.01h.7c-.29-2.14,1.18-.38,2.15-1.79l-1.13-1.79-2.44.71ZM1920.83,758.61c-2.1.69-2.62,1.46-5.01,1.07,2.31,1.53,3.5,3.99,6.45,2.51l-1.44-3.58ZM1829.7,811.01c-1.75-1.26-7.26,5.64-6.45,6.45,3.33.25,3.06-3.95,6.43-3.63l.02-2.82ZM1848.36,814.59c-.01-1.35.17-3.19-1.43-3.59l-2.17,3.24,1.49.74-.76,2.47,4.21-1.52.09-2.06-1.42.73ZM1861.98,828.94c-1.06-1.05-3.02,3.12-3.58,3.58,1.76-.57,2.57-.56,3.55,1.16l-1.4,3.15h3.58s-2.16-7.89-2.16-7.89ZM1850.5,839.71c-.21-.22-4.79,2.45-5.42,2.85-1.05.67-.95,2.54-3.9,2.53,2.3,2.37,6-1.82,8.29-3.15,1.04-.6,1.9-1.29,1.03-2.23ZM1950.98,859.07c-1.1-.88-5.95-6.91-7.17-5.73.62,3.93,3.07,5.9,7.17,5.73ZM1938.77,860.52v-2.16c-2.94.7-2.32,2.13-3.14,4.07-.11.25-1.13.23-1.15.66-.06,1.27.98,3.39-.01,5.31,2.19.65.88-.29,1.12-1.07.75-2.45,1.13-5.05,1.76-7.54l1.42.72ZM1957.99,858.59c-.69-.31-1.28-.25-1.98-.23l-.33,2.92c-.58.93-4.31-.54-2.54,1.75l15.78,4.66c-1.12-4.53-5.7-4.61-9.04-6.76-.63-.4-1.75-2.28-1.89-2.34ZM1813.19,861.96c-3.32-.6-3.24,2.63-4.53,4.08-.5.56-1.55.74-2.25,1.67-.93,1.24-3.61,5.17-1.83,6.43,2.4,1.7,4.75-5.41,7.17-4.31l-1.46-5.31,2.89-2.57ZM1887.1,869.85l.72-7.9c-2.52,2.14-2.77,6.65-3.58,9.7.18,2.75,3.14-2.34,1.42-2.16l1.44.35ZM1875.62,870.57c-2.95-.24-2.86,5.04-5.73,3.58-.72,2.04,1.01,2.05,1.16,2.38.81,1.77.52,3.52,2.78,4.79.97-2.07-2.01-4.08-1.84-6.02.03-.3,4.19-2.98,3.63-4.73ZM1917.81,879.01l-2.71-6.3-1.45,2.52c2.37.62,1.08,2.51,1.78,4.67.1.32,1.18,1.25,1.07.23l1.31-1.12ZM1903.46,880.02c-.13-.21-1.43-.5-1.99-1.18-1.18-1.44-2.1-3.66-3.59-4.68l-4.31,12.91c2.57-.93,3.67-.08,4.25-3.28l-1.4-1.29,1.46-5.47,3.23,2.85.36,2.89c1.42-.51,3.07-1,2-2.75ZM1867.71,884.17l-.69-7.15-7.9,18.65,1.98-.34c.78-1.84,3.29-9.64,4.1-10.45.81-.8,2.38-.59,2.5-.72ZM1905.77,886.34c1.68,1.8,5.04-7.41,4.3-8.6-2.63,2.01-2.65,5.96-4.3,8.6ZM1926.55,890.71l-1.39.3c.89,1.69,1.14,5.49,3.57,4.32l-1.43-1.79,5.37,1.44c1.02-.16-.72-3.24,1.8-1.44-.5-3.32-5.39-3.22-7.53-1.42l-.39-1.41ZM1818.93,898.56l-2.58-.69c1.77-10.69-5.66-5.57-6.03,1.4,1.64-.74,5.46,2.31,5.72,2.14.05-.03-.11-.9.25-1.15.9-.6,2.39-.35,2.64-1.7ZM1806.66,895.76c-1.02-.46-2.48-.79-3.34.1-.3.31-4.24,7.06-4.31,7.49-.13.82.62,1.56.55,2.39,3.19-.23,3.8-2.87,5.26-4.12.41-.35,1.6-.05,1.8-.26.21-.22.29-5.18.04-5.6ZM1904.33,896.4h-3.58s.72,5.02.72,5.02c2.78-.05,3.14-2.78,2.86-5.02ZM1852.67,899.99c-2.06.5-3.39-1.42-5.21-1.31-3.3.19-3.06,4.58,1.82,4.04.53-.06,4.7-1.67,3.39-2.73ZM1895.72,907.88c.76-.7-2.07-6.18-4.3-5.02l1.52,4.93,2.78.09ZM1902.69,913.11c-.99-1.08-3.52-2.15-4.47-3.79-1.51-.3-1.18.69-1.02,1.75.12.82,2.53,4.78,3.14,5.45,1.32,1.46,2.85,2.81,4.7,3.56.29-2.48-.76-5.24-2.35-6.97ZM1851.23,915.77c-.35-.47,3.43-4.22,1.06-5.01-1.64-.48-1.03,1.82-2.18,2.08-.74.16-2.16-.92-3.18-.64l4.27,6.81-2.11,1.79c-.28-1.24-4.69-4.58-6.1-4.3-2.02,1.51,1.07,4.26.34,6.47l4.58-.03.8-1.41c2.13,2.35,5.07-.87,8.25,1.43,1.75-4.16,1.74-6.56,0-10.76l-2.2,4.26-3.53-.68ZM1911.79,922c-.59-.56-5.01-6.1-5.3-3,2.86.67,2.09,3.47,2.34,3.81,1.27,1.72,5.76,2.62,4.22,7.22l2.76.81c-.65-2.66-.62-5.67-2.14-8.12-.48-.77-1.48-.34-1.88-.72ZM1851.94,924.39c-2.94.23-3.94,1.9-6.81-.02l-.35,1.43,2.75,1.59-.61,2.01,4.31-.71c-.66-1.82-.28-2.73.71-4.3ZM1905.19,935.72c-.31-.42.62-8.4-3.73-9.18-.74,1.77,2.03,2.91,2.13,3.37.3,1.36-.3,7.09.02,7.39h2.86c.62-1.94-1-1.2-1.29-1.59Z"/><path class="cls-1" d="M1949.54,899.99c-3.89.1-4.39,2.46-7.89,2.88l1.43,2.86-3.58-1.44c-.29-1.18,1.16-.28,1.44-1.23.22-.75-.14-1.71-.01-2.35.36-.26,1.46.12,1.79-1.43l2.52,1.43-1.43-3.58c.72-.76,4.9,2.46,5.74,2.87Z"/><path class="cls-1" d="M1822.52,924.39l-.76,8.16,2.91,2.59-6.35-1.3-.83,1.67,1.48.77-.04,1.31-2.15,4-.71-7.17c.29,1.51-3.23,8.41-4.66,7.88-1.26-.46-.86-1.02-.5-1.9.83-2.01,3.11-4.5,4.42-6.35-.01-1.39-9.57-1.75.01-4.66l-.36,2.14c2.42-1.5,3.5-2.65,3.24-5.74l2.86.73,1.44-2.15Z"/><path class="cls-1" d="M1844.05,728.48c-.8,1.84-.36,4.1-.87,5.94-1.08,3.89-3.99,3.64-6.94,5.26-1.32.73-2.96,3.26-2.62-.46,2.23-1.31,3.85-3.19,5.68-4.77.67-.59,2.52.43,1.88-2.4l1.43.73-.36-2.16-5.05,3.56-1.03-1.39c1.49-.66,4.76-2.58,3.57-4.31h4.3Z"/><path class="cls-1" d="M1887.82,605.76c.7,1.91-2.54,4.2-2.66,4.45-.15.31-.18,5.14-.72,6.91-.37,1.24.26,1.87-1.64,1.55,2.13-2.98-1.03-6.87-.38-8.96.29-.94,1.28-1.38,1.53-2.16.23-.7-.46-1.77-.09-2.51,1.06-2.14,1.64,3.05,3.96.72Z"/><path class="cls-1" d="M1908.64,668.91l-2.02,2.5,4.18,6.1c-1.18.81-5.74-3-5.76-3.34-.1-1.44,1.23-3.31.02-5.26h3.59Z"/><polygon class="cls-1" points="1889.22 622.32 1888.21 628.73 1886.39 629.43 1885.68 628.01 1884.96 630.15 1887.12 621.54 1889.22 622.32"/><path class="cls-1" d="M1948.83,851.44c-6.69-1.21-3.4,1.08-8.68,4.13,1.85,2.86-3.88,3.83-2.75-.25.78-2.81,5.31-4.19,4.52-7.81-3.97-.91-4.81,2.61-6.67,3.95-2.52,1.8-9.04,5.2-6.45-.75,1.11-2.55,3.85-1.46,5.09-2.34.24-.17.55-4.78,1.12-5.78-2.26,1.69-9.11,10.53-8.4,3.91l6.44-3.93-1.47-2.92c-4.32,4.47-8.69,2.6-13.83,3.9l-.48-1.94,35.5-5.93-2.94-2.46c1.62-2.76,5.84-2.69,4.92-6.4-.79-.8-9.68.78-8.87-2.96,10.69.93,21.12,1.83,31.75-.3,5.13-1.03,8.83-1.52,11.63-6.6l-5.91,1.96c-1.03-4.52,3.61-3.05,4.92-5.9-5.06,1.31-2-4.38-5.41-4.93-2.87,7.98-9.42,7.96-7.41-.99-2.84-.36-3.31,2.82-4.94,4.33-.29.27-2.32-.82-3.44,3.55l-3.94-4.91c-1.12.9-1.4,2.48-2.55,3.35-1.39,1.06-5.83,2.45-3.85-.88,1.51-2.54,4.67-3.89,2.93-7.4-4.19-1.12-5.03,2.8-8.27,3.89-1.62-.34-2.26-3.49-2.76-3.79-.75-.45-3.56,2.51-4.33-3.05-.56-4.03,3.17-4.39,3.54-7.91-3.05.21-6.86.93-9.88.45-1.77-.28-3.52.09-2.93-2.42l23.12-1.04c5.79-1.42,8.36-9.02,14.34-7.83,1.19,1.1-4.7,10.92-1.47,10.82l3.91-10.79,8.41-2.02-4.92-1.95c6.61,1.36,3.11-4.66,6.88-4.96l-1.41-1.92-6.41,2.88-2.02-4.87,9.84-5.04-.97-2.86,5.86-1.06c-.73-4-.57-5.54,1.1-9.2l-3.49-3.54c-2.49,2.41-2.15,4.9-6.42,3.93v3.95s-5.89-3.94-5.89-3.94c-.16,3.13-3.37,3.32-5.45,4.91-3.73-2.32,5.03-5.6,3.45-7.84l-4.36-1.98-5.14,5.8-7.25-2.87,1.98-3.93h-2.97c-.54-3.1,2.1-4.43,3.93-6.42-1.23-1.91-1.57-1.07-2.94-1.01-3.13.13-6.55,1.02-9.87.52v-2.95c10.91-.59,25.13.27,35.72-2.26,4.07-.97,9.07-3.95,10.19-7.68l6.35.06-6.89-1.95c3.78.72,5.26-2.21,7.26-3.13,2.66-1.23,5.77.52,6.54-3.77l-6.25,1.01-2.11-2c-2.15,1.31-.47,2.95-.51,4.92h-2.95c1.66-7.76-6.34-1.82-5.93,1.98l-4.3-1.91-4.07,3.86-3.2-3.14.75-1.76c-4.88.88-4.53-2.31-6.74-5.45l4.74-4.92c-.13-2.59-10.81.77-11.81-2.45l30.84-3.19c3.82-1.32,7.74-3.94,11.36-5.4,1.3-.53,5.6-.76,6.11-1.29,1.6-1.64-4.29-3.56-4.97-3.46-5.8.77-6.26,6.06-10.8,7.41l.51-2.96c-9.35-1.86,3.76-7.15,1.45-9.85l-3.92,2.95.93-7.25,5.96-1.61h-8.86c-.82-4.36,4.27-4.1,4.93-7.89-.38-.28-7.63,1.14-9.33.98-1.39-.13-2.89-.53-1.51-1.96,16.98-2.32,32.4-4.62,47.26-13.39,1.28-.76,2.22-2.44,3.63-3.27,3.48-2.06,9.75-.76,4.81-7.99l-7.89,5.88-1.5-4.2-2.93-.7.98,2.94-4.92-.98v2.96s-2.8-.24-2.8-.24l-1.13-1.72-.02,3.93-4.41-3.81-9.86,2.84-1.5-2.46c1.19-2.34,5.66-1.31,4.92-4.44-2.57.23-5.73-.52-8.17.2-2.17.64-2.91,4.09-5.62,3.73-.5-.48,4.5-5.24,2.46-6.9-.35,1.6-9.2,8.91-9.86,8.86s-2-2.16-1.47-2.91l5.9-2.99-1.96-1.95,8.86-4.93-5.9.99-.98-2.96c-.14,4.87-2.81,5.59-6.43,7.86-3.89-2.59,2.1-4.94,4.18-6.61.8-.64,2.55-.43.77-2.26-2.91-2.98-10.8.38-14.31-.98,4.41-4.88,12.87.47,18.73-.97l.48,2.93c2.8-.14,2.56-4.51,4.02-4.82.84-.18,2.54.98,3.88.9,11.46-.68,24.89-2.94,34-10.35l-4.43-3.39-5.37,7.31-8.35,1.47c-5.21-4.19,2.98-5.28,4.36-6.88.56-.64.17-2.61-1.47-1.97-1.47,1.64-4.91,1.21-5.95,1.91-1.61,1.07-4.4,5.81-6.09,7.69-.58.64.06,1.9-2.24,1.26l-1.01-5.92-3.45,1.95c-2.75-2.66,1.94-4.4-3.44-6.39l3.94-4.42-10.83,1.97.56-3.05c10.2-1.08,18.72-5.71,28.06-9.24,2.31-.87,6.13-1,7.83-2.03.76-.46,5.12-6.56,3.48-7.37l-6.4,4.92c-2-3.89,2.57-4.02,1.96-7.88-2.83,1.44-7.52-.3-9.22-.08-.85.11-1.07,2.22-2.08,3.03-2.93,2.34-6.29,2.44-7.92,5.9-2.25-1.8-1.19-1.39,0-2.93,1.71-2.23,3.21-3.34,5.9-3.92l3.46-5.94c-4.62-1.19-5.6,2.09-8.89,4.4-1.48,1.04-1.03,2.42-2.91.03,1.53-1.75,3.43-3.17,4.95-4.93,1.37-1.59-.06-4.34,3.9-3.46l-2.89-1.02-.06-3.9c-.53-.65-5.9,3.17-4.93-.97,5.15.64,6.83-3.99,9.48-5.81,3.74-2.56,7.71-.41,7.27-8l-4.92,1.97-.5-3-8.38,2c2.07-3.19,4.8-6.13,8.87-5.92l-1.93-1.02c.67-3.86,4.8-3.39,6.86-6.37-7.17-2.59-7.5,5.36-13.79,6.41-.04-3.06,3.41-4.19,5.33-6.04.51-.49.34-2.07.82-2.58,1.01-1.06,4.3-.35,5.89-.54.9-.11,1.8-1.5,3.06-1.48.8.02,8,1.38,6.61,2.71l1.93.04c.42-3.44,5.35-5.21,7.3-1.96.66,1.09-2.03,2.56,2.58,1.96l-2.96-4.9c1.72-.26,3.36-.87,2.95-2.96-5.19-3.36-14.04-4.4-14.78-11.85.23-.25,5.6,1.44,6.23,1.9,1.54,1.12,4.69,10.42,8.06,4.02l3.47,3.53-1,5.34c.4.39,9.57.66,11.15,1.01.85.19.7,1.74,1.88,2.26,5.31,2.34,9.91-1.02,15.57.69l-2.95,2.94,4.42,1.01.49-2.51,3.89-.4c-.46,3.87,4.95,4.25,3.53,6.82l-3.45-1.97,2.94,5.91c-4.75.54-6.26-3-9.84-4.92l3.93,9.85-6.85-4.89c-.53,3.55-3.91,4.01-6.95,3.92l2.96,1.98c-2.7.95-.23,6.75.61,6.96,3.28.85,12.81-1.84,16.62-2.09.93-.06,4.29-.68,3.48,1.5l-10.85,1.5,1.92,4.83-3.88,2.56c1.03,2.73,3.8,1.28,3.92,1.48,1.21,2.03-4.63,10.75-6.4,3.95-2.75,2.24-2.32,4.71-1.38,7.78l3.83.11-3.93,2.94,3.93,1.5c1.02,2.13-3.31.89-2.97,4.84.3,3.49,4.61,3.91,3.96,7.46-4.56,1-4.35-6.01-7.36-5.94-2.53,1.16-5.27,1.73-4.48,4.96l3.88.12.65,2.95c3.65-.97,4.49,1.77,4.78,1.76.88-.03,2.3-1.14,4-.98,2.51.24,4.88,1.13,7.42,1.09l-.48,1.95-3.47-.96c1.16,3.78,3.08,4.45,6.9,3.93l-1.96-4.92c2.62-1.05,1.64,1.99,2.54,1.99.99,0,1.66-1.15,3.38-.54,3.2,1.12-2.37,1.35-.99,3.47l2.98.51c-2.04,3.53,1.14,6.95,2.5,10.22l19.17-1.85c-.58,5.4-9.75,2.09-13.81,2.96l-1.96,1.97c.13,1.82,2.68.59,4.51,1.88.82.58,3,4.26,2.38,5.01-.82-1.25-7.62-3.3-7.87-2.96-1.45,1.97,4.56,3.18,4.08,5.8l1.82-.87c.85,2.55-3.66,5.84-5.43,5.68-1.3-.12-3.2-5.89-5.4-3.7-1.98,1.97,5.78,5.69,3.93,8.86l-6.89-3.93c.93,2.52-.09,6.15.22,8.39.08.58,1.38.32,1.52.96.18.83-.63,3.04.23,4.44l-7.88-2.95c-2.37,6.49,8.16,4.94,9.43,6.82l1.38,6.51,12.84,2.45-2.95,3.93,4.91-1.01-.98-1.94,6.89,1.47-2.92,1.95c1.71,4.72,4.35,5.56,7.87,8.39-3.83-.2-7.31.06-9.34-4-.59-1.17.81-2.9-1.03-3.87l-.46,1.96-2.96.03c-1.57,6.49,9.15,8.41,5.9,13.78h6.9s-1.97-2.94-1.97-2.94h6.9c-3.38,3.47,6.08,6.65,5.91,7.38-.86,3.67-4.75-3.12-6.9-1.46l3.94,5.43c-.27,4.13-6.75-.98-7.85-2.06-.85-.85-1.33-4.59-3.49-4.34-4.46.51,4.35,8.95,3.45,9.83l-7.88-3.93c.72,2.68,2.12,3.8,4.93,3.95l-.98,1.48-12.81,1.45,16.6,3.13,4.09,8.23-1.96,1.46c2.05-.74,10.68,4.02,8.86,5.93-2.39-2.56-5.95-2.38-8.43-3.91-2.84-1.75-.6-5.77-7.34-4.95l3.94,8.86-5.9-3.48c-.91-4.35-4.73-.18-8.4.52l-.99-3.92c-7.4.35,1.61,5.34,3.17,8.89l17.32,1.11c3.52,2.46,1.53,5.2,7.16,5.75l-.25-1.96-2.23-1.96c6.97,2.5,13.02-.94,20.25.38,1.11.2,2.19-.11,2.42,1.59h-13.8c-.88,3.51,3.54,4.39,5.89,5.94l-.48,1.97-5.39-.51c3.41,1.43,2.82,3.3,3.92,6.4-4.86-.68-6.76-4.21-9.85-7.39,1.67-1.72,5.62,2.76,4.93-1.46l-8.87-1.97,5.91,10.83c-3.15.48-3.94-3.92-5.7-4.9-2.06-1.15-7.79-.91-8.05,1.44s5.92,3.28,2.42,5.42c-2.49-3.54-6.03-2-8.37-5.9,2.3,5.43,1.6,4.61-1.98,8.86,1.74,0,4.34.34,3.93,2.97l-4.92-1.97.11,2.84c4.54-.09,4.28,4.71,6.47,5.85,9.65,5.03,30.77,3.96,41.49,6.8,1.77.47,2.65-.34,2.2,2.25l-13.8-1.5c-2.73,4.28,6.54,3.65,2.95,9.38l-4.92-1.96,3.93,5.91-6.89-.97c-.42,1.61,1.4.64,1.7,1.16.63,1.1.17,2.53.25,3.76-3.2-.79-3.89-2.74-3.94-5.91l-2.45,4.91-4.6-5.77-5.72.84c-.04-2.8-.74-4.49-3.98-3.91l1.48,4.9c-5.49-5.25-7.78,1.54-8.54,1.78-2.05.67-3.95-3.83-4.78,4.17-18.14-3.01-7.75,5.32,2.96,3.95.94,4.18-4.23.28-4.92.98-.28,1.36.09,1.63,1.01,2.43,1.22,1.06,13.73,6.87,15.48,7.2,3.09.57,6.19-.28,9.21.65l.92,3.52,5.42-3.94,1.04,2.02,2.39-1.04c1.73,3.84-1.36,6.15-3.94,8.88,4.07-1.98,5.24,1.05,8.42,1.93,4.13,1.15,8.91.79,11.8,3.99l.49-1.96h1.96c.16.11-.26,1.55.47,1.79,2.62.87,11.62-1.65,14.32,1.66.38,2.67-1.65,1.13-2.96.99-2.84-.3-9.74-2.19-11.83-1.01-2.51,1.41,2.81,3.15,3.41,4.39.11.23.1,4.67-.02,5.09-1.83,6.33-6.63-.56-8.3.89-2.13,1.85,3.47,1.69,1.96,3.93-7.49,1.2-5-7.83-9.37-10.84l1.48,3.93-2.95.5,2.95,4.44c-5.68-1.79-5.6-8.04-12.81-4.92l-.13-3.8c-2.91-2.31-4.34.63-6.32.83-1.31.13-8.15-2.68-7.35,1.47.43,2.27,5.35.96,6.69,1.72,1.14.65,2.59,5.19,7.12,3.72-1.44,5.74.16,5.94,4.63,8.68,9.35,5.74,19.68,4.73,27.42,13.01l.97-1.97c1.73,3.16,17.02,1.12,17.24,4.44-1.45,2.22-1.9.82-3.52.61-4.43-.59-8.69-2.18-13.22-2.08l5.74,5.39-2.81,2.99,1.99,2.95-2.94,2.44c3.95.05,2.02,2.98,2.59,3.98,1.34,2.35,4.37,4.58,4.31,7.87l-7.83-5.48-3.97,1.04c1.18.85,2.28,2.87,3.38,3.5,2.64,1.51,7.84.34,7.44,3.89l-5.89-1.97-2.46,2.94c-1.65-.36-3.26-4.54-3.68-4.79-.58-.35-2.03.82-2.79.38-.88-.52-1.3-2.95-2.45-3.44-5.44-2.33,2.27,6.79-2.93,7.7l-5.12-4.81-6.22.05v2.45c1.45,1.68,2.96.54,5.08,1.74,2.21,1.26,5.9,5.68,8.71,7.16l-.48,1.46-8.86-5.91c-4.43,4.55.97,4.02,2.17,5.2.62.61.47,2.5,1.68,3.73,2.25,2.29,10.97,4.05,14.38,4.88l-1.02,3.37c3.12.6,1.49,3.76,2.07,4.43.18.21,3.34.21,4.65.75,4.1,1.7,3.3,1.49,8.12,2.76,2.96.78,5.78,2.82,8.6,2.74,2.02-.06,1.79.46,1.24,2.2-.13.42-7.79-1.43-8.4-2.45l-.49,1.96-5.9-3.94c-1.56,3.76,4.57,4.38,3.92,6.39-1.19,3.72-4.84-2.02-5.12-2.15-.18-.09-4.68-.65-3.73,1.17l2.97,1.14c.47,1.41,4.38,6.39,3.91,7.74-.5,1.44-5.57,1.98-5.39-.49l-3.45,1.98-2-5.93-2.93,1.01-5.94-11.34-.98,2.45c-3.3-.79-3.65-2.68-4.04-5.8l-3.83-.1,1.96,5.91c-3.15-.58-2.82-2.83-4.44-4.92l-.47,1.96-5.92-.98c.34,2.09,1.78,3.43-.51,4.92-.78-3.08-1.68-.87-3.44-1.44-2.36-.75-3.79-1.48-5.92-2.5,2.49-.06,4.57.91,6.9.5-1.87-1.94-7.9-8.05-10.34-8.05-1.91,0-4.39,3.48-7.4,1.62-.09,2.31-.54,4.66-.99,6.91-.64.47-1.05,1.15-1,1.97l-4.79-2.12c.79-1.46,1.67-2.06-.61-1.81-1.3.78-2.99,5.66-2.71,6.74l-1.73.17c-.14,2.06,2.18-.33,1.97,2.44-.1,1.26-2.5-1.97-1.98.98l3.51,1.45-.54-3.89,2.48-1.01c.6,2.79,1.82,1.01,2.23,1.26.45.28.49,1.78,1.88,2.49,2.22,1.13,4.91.78,7.21.22-1.07,2.64-4.93,2.45-3.95,5.91l-5.91-3.94,1.03,5.26-2.02,2.12c3.28.87,1.78,3.5,1.97,6.42l-3.94-2.46c.84,4.3,5.68,3.74,2.96,8.36-1.75.32-.55-1.7-1.27-2.63-.64-.83-4.2-3.2-4.35-3.51-.2-.42.79-1.65.7-1.72-.23-.18-1.46.23-2.07-.14-1.34-.81-2.21-2.49-4.36-2.83l1.49-1.97-3.93-1.49c2.97-1.23,3.64-3.68,4.93-6.39-4.3.08-6.32-4.5-9.37-6.9l-2.45,2.45,4.91,6.4c-3.42-.33-5.18.24-4.94,3.96-4.01.02-3.33-4.22-1.96-6.87-5.69-1.76-8.57-5.58-14.78-5.95-.43.56,3.8,7.14.47,8.86-2.89.45-.67-3.04-1.68-4.72-.31-.52-2.75-1.04-3.24-2.17-1.26,3.34-3.46,2.81-6.39,1.97-.23,4.13,3.89,5.21,5.91,7.39.95,1.03,1.42,2.51,2.43,3.51,6.55,6.52,14.63,11.66,21.23,18.18-6.46,3.19,3,1.18,1.97,3.43l-1.97,2.97-2.47-2.95-2.44,1.96-5.92-5.91c-.27.33,1.8,7.04,2.21,8.12.34.9,2.09,5.47,2.27,5.73.72,1.08,4.99,1,.93,4.86l-4.44-3.91.49,4.92c-3.77-4.56-8.98-5.49-8.39-12.81l-1.4,1.93-4.49-2.92c.22,3.76,3.94,7.24,5.9,10.35l-2.95.5c-.44,1.58,1.47.72,1.66,1.15.26.6-.22,2.72.31,3.77-3.94.98-1.89-2.63-4.92-1.97l-2.48,4.93c-1.92-5.68-3.25,4.57-3.58,4.82-.93.69-4.39-1.09-3.83,2.08-.85.66-2.8-3.94-3.93-4.48-1.44-.69-3.74,1.52-4.9-1.01l.95-5.35-2.35.99-2.51-2.02,3.91-6.84,2.93,1.96,2.96-5.91c2.72,5.83-4.85,13.55,2.82,16.88l-.83,2.82c3.44,3.48,5.1-8.6,4.91-10.31-.2-1.81-2.77-3.06-.96-5.46h-3.96c-.75-4.15,1.55-8.81-2.94-10.35,1.55-1.58,4.4-5.73,3.92-7.85-.43-1.89-3.56-1.87-3.89,0-.18,1.01,2.44,5.06-.03,5.36-2.84-3.45-1.57-6.7-2.98-10.83-1.88-.12-.49,2.46-1.46,3.99-.74,1.17-3.52.3-2.43,2.88l1.92.51c-4.99,1.67-.74,6.09-2.97,10.35-3.47.87-1.14-2.69-2.09-3.81-.33-.39-2.61-.1-3.88-1.53-1-1.13-.83-3.53-2.39-4.5-2.87-.21-4.21,9.37-8.38,7.86,1.27-2.54.44-6.04.96-8.18.29-1.19,2.48-.54,2.9-3.07.18-1.11-1.7-10.65-3.86-8.45.81,6.54-4.5,13.28-3.94,20.2l-1.96-.49c.98,3.32,2.83,4.12.97,7.89-1.19-1.23-3.81-1.52-4.65-2.29-.44-.4-.21-1.81-.63-2.22-3.28-3.24-4.55-4.5-9.48-5.4l.97-4.89-1.97-1.97-1.98,2.96-2.72-2.19c-1.19-4.08,4.23-4.06,4.69-5.2.89-2.2-.33-2.94-2.46-2.48-4.69,4.47-5.32,6.35-4.19,13.09.7,4.21,5.12,8.36.25,11.57-1.24-5.75-.93-12.25-7.38-13.8,1.44,3.31-2.04,3.9-2.09,5.39-.09,2.22,1.24,4.23,1.09,6.45l-7.87-3.94.98,6.89-3.93,1.97-.14-5.3-2.82-.61c.91-2.45.64-3.88-1.96-4.93-3.82,5.66-7.75,7.74-.15,12.45l-.87,3.33c-4.34-1.5-2.73-5.05-7.89-2.95l1.09,4.29-3.04,1.62c-.24-4.37.6-6.19-3.94-7.89l-4.96,9.85c-1.51.29-3-.73-2.84-2.32.23-2.45,6.56-9.42,6.66-12.91.02-.79-.67-6-.89-6.73-.33-1.13-6.2-5.39-4.88-7.61l1.95,1.96c.19-.86-.25-2.36.01-2.95-.97.29-2.63-.25-3.53.94l.57,3.98h-2.95s5.42-12.81,5.42-12.81l-1.48,4.92c1,1.04,6.17-5.31,5.89-1.47-.03.36-3.25,2.87-3.92,4.44.92-.27,3.41-1.21,3.83-.92l4.55,7.82c1.97-1.47,2.71-2.92,2.57-5.42-.21-3.75-6.42-6.21-.11-7.4-1.33,3.63,4.01,6.03,3.99,6.44-.1,2.86-7.47,12.48-1.51,16.23,2.96.48.23-1.83.96-3,.34-.55,1.96-.72,2.51-1.65,3.6-6.04,4.93-9.24,1.44-16.05-1.62-3.15-1.3,2.96-3.45.98,1.47-4.13,3.51-3.97,1.96-8.86l-6.89,2.95.98-4.92c-5.13,2.37-7.46-1.14-11.82,3.94l2.96-5.44-1.98-.97c.63-1.5,6.53-3.17,5.91-6.41-2.26-.58-2.94,2.47-4.54,2.72-1.25.2-2.98-1.33-4.36-.35-.83.58-1.03,2.95-1.93,4.04-1.04,1.26-7.36,7.72-8.88,6.4l7.89-9.85-9.85,8.39c-.64,2.05,1.91,1.36,1.97,1.46.45.85-1.27,3.6,2.19,3.01l.77,1.92c-3.6-.89-4.24.73-6.88,2v1.95s3.41-1,3.41-1l.51,1.98c-3-.9-7.56,5.58-8.04,5.75-.71.25-2.58-1.17-3.79-.81-.17,2.22-.22,5.13-2.95,4.95v1.95s1.95.01,1.95.01l-1.81,1.15c-.46.49.59,2.05.31,2.88-.31.89-5,11.32-5.37,6.33l2.92-9.38-10.34,9.86-2.5-3.45c2.95-.62,1.46-2.88,2.29-4.14,2.36-3.59,7.89-5.6,9.73-9.06l2.79.89.07-2.86c4.55-.19,11.59-2.44,9.79-8-2.35,1.33-3.35.51-4.91-1.47l5.89-4.95-2.94-2.93c2.4-5.77,6.23-8.04,9.85-12.81l-2.87-.59-1.07-2.4c-.6,2.84-2.77,3.64-3.84,5.97-1.37,2.98-.5,6.41-3.56,8.33-4.6-.21-.7-6.07-1.46-6.89l-4.35-1.03-4.51,5.95.96-7.89c-1.04.44-3.09,2.12-3.49,3-1.06,2.35,1.77,4.14-.94,5.86-1.64-.61-.47-2.64-.68-2.78-1.43-.98-4.36.33-3.77-4.1-2.32,1.65-3.46,10.33-5.92,3.95l-2.45,1.95c-4.24-2.97,3.66-6.1,4.42-8.39v-1.43c-2.05-.3-3.4-1.06-2.98-3.45l6.88-2.55.05-4.87-6.52,1.92-.36,3c-2.84-1.19-7.57,1.79-7.53,4.46,0,.61,1.32,1.46,1.3,1.95-.11,2.03-3.55,2.87-4.68.84-.6-2.33,2.91-8.39,4.54-10.17,1.53-1.67,4-1.2,4.4-2.99-4.56-1.4-4.44,1.35-6.12,2.29-3.15,1.75-6.38,3.21-9.16,5.57l-1.48-3.31c1.76-1.03,1.96-3.2,3.89-1.63l1.04-4.9-2.93,2.48c-6.97.8,2.49-5,.97-6.42-2.15-.21-3.36,1.8-5.5,1.98-2.84.24-5.37-2.05-8.29-.01-.46-2.68.49-1.7,2.14-2.24,4.18-1.35,13.55-2.86,18.19-3.37,1.29-.14,2.71.88,3.71.75,1.17-.15-.09-2.49,1.58-2.04l.57,2.96c-.64,1.09-5.87,2.37-4.01,4.91,1.16-2.32,4.02-2.43,5.44-3.5.93-.71.24-1.93.6-2.43,2.7-3.67,9.59-1.34,12.49-1.94.73-.15.65-1.63,1.46-1.91,4.54-1.56,9.28-3.41,14.03-4.03l-2.04-4.36,4.84-4.16-1.83-5.27-5.89,5.91,1.98-6.39-1.97-.5c.11,2.04-2.46,3.24-2.83,4.63-.49,1.84,2.03,3.63-.64,5.21-1.48-3.2-5.37-3.14-3.45-6.88-6.07-1.54-5.62,6.33-10.85,5.9l5.92-5.93-3.92-3.94,2.93-2.93c-4.41-.59-7.73.27-10.84,3.45l1.98.98-.99,2.46c-1.63.32-4.05-.1-3.84-2.31l3.83-7.53-10.83,4.92v-3.95s1.45.74,1.45.74l.71-1.39c2.9,1.39,1.17-.91,2.67-2.87.95-1.23,3.17-.79,3.04-2.38l-8.36,3.93c-1.2-1.24-2.03-1.03-.45-2.4.89-.77,5.63-3.78,1.45-4.36-2.21-.31-9.65,2.82-12.36.35l41.95-6.35,12.26-5c-.29-4.26-4.46-1.22-5.91-5.9,2.75.5,4.16.68,6.9,1.96l-1.96-2.93c2.12.2,3.01-2.06,2.95-3.95l-7.23-.09c-1.72,1.08-1.16,3.41-.66,5.01ZM2057.98,556.93c-1.23-1.03-3.12-1.7-4.64-.86l-3.93,4.98c4.95,6.71,15.26,1.44,8.57-4.12ZM2045.45,559.59l-7.88-.99c2.59,5.48-.32,5.05-1.16,7.25-.75,1.99-.87,4.43-.81,6.55,4.25-2.67,11.89-1.73,10.83-8.87l-4.92,1.96,3.94-5.89ZM2036.77,581.45c.39-.67,6.78-3.47,5.72-7.07l-9,4.38.13,3.51c-3.36-2.2-5.31,5.27-2.5,5.68l9.41-.76c-.23-3.95-5.87-2.12-3.76-5.74ZM2063.88,590.47c-.39-.49-4.98-5-5.61-4.26-.29,3.94,2.11,8.65,5.9,9.85.1-2.18,1.2-3.72-.29-5.6ZM2055.31,601.99l-3.86,1.08.96,5.27-1.85.68c-1.46,1.95,3.08,4.76,4.53.12.44-1.41-.48-5.27.22-7.15ZM2062.64,631.16c-.59-.55-.87-1.39-1.54-1.89l-5.31-2.65-.47,3.97,1.79-.8c.81,3.28,3.84,2.83,6.57,3.76,2.09-1.78-.43-1.8-1.04-2.38ZM2088.45,630.97l-2.55.07c2.3,3.8,4.76,7.44,9.84,6.42l-7.29-6.49ZM2090.8,657.19c2.16-6.17-5.78-8.97-9.84-11.83-1.69,6.13,4.74,10.22,9.84,11.83ZM2061.07,655.08l.71-3.78-5-3.95-.5,3.31,1.98,1.11-1.5,1.49-4.4-1.97c-.62,4,6.8,5,8.71,3.8ZM2024.75,688.74l1.96-3.93-3.91,3.49,2.94,4.39-4.93,2.96c7.25.42,15.57-5.08,3.94-6.91ZM2014.41,690.96l-4.43,3.21,6.3,2.42,1.56-2.4-3.43-3.23ZM2106.6,696.64l-1.5-3.94-2.02,2.02-4.37-1.04c-1.15,6.67,8.71,2.67,8.88,6.89h.96c-.4-2.94,1.62-.53,2.95-2.45l-1.55-2.45-3.35.98ZM2099.67,726.21c-2.89.95-3.6,2-6.89,1.48,3.17,2.1,4.81,5.48,8.87,3.44l-1.98-4.92ZM1974.46,798.2c-2.41-1.73-9.98,7.75-8.87,8.86,4.57.35,4.21-5.43,8.83-4.98l.03-3.88ZM2000.11,803.13c-.02-1.86.23-4.38-1.96-4.93l-2.99,4.45,2.04,1.02-1.05,3.4,5.78-2.09.13-2.84-1.96,1ZM2018.82,822.84c-1.46-1.45-4.14,4.29-4.92,4.92,2.41-.79,3.53-.77,4.88,1.6l-1.92,4.32h4.92s-2.97-10.85-2.97-10.85ZM2003.05,837.64c-.29-.31-6.58,3.36-7.45,3.92-1.44.92-1.31,3.5-5.36,3.47,3.17,3.26,8.24-2.51,11.4-4.33,1.43-.83,2.61-1.77,1.41-3.06ZM2141.1,864.24c-1.51-1.21-8.17-9.49-9.86-7.87.85,5.4,4.22,8.1,9.86,7.87ZM2124.33,866.23v-2.96c-4.04.97-3.19,2.93-4.31,5.6-.14.34-1.55.31-1.57.91-.08,1.75,1.35,4.66-.02,7.29,3.01.89,1.21-.4,1.54-1.48,1.03-3.36,1.55-6.94,2.42-10.35l1.95,1ZM2150.73,863.57c-.94-.43-1.76-.34-2.72-.31l-.46,4.02c-.8,1.27-5.92-.74-3.49,2.4l21.69,6.41c-1.54-6.22-7.83-6.34-12.42-9.29-.86-.56-2.41-3.14-2.59-3.22ZM1951.79,868.21c-4.57-.82-4.45,3.61-6.22,5.61-.68.77-2.13,1.02-3.09,2.3-1.28,1.71-4.96,7.11-2.51,8.84,3.3,2.34,6.53-7.43,9.85-5.92l-2.01-7.3,3.98-3.53ZM2053.34,879.05l.98-10.86c-3.46,2.94-3.8,9.13-4.92,13.33.24,3.77,4.32-3.21,1.95-2.96l1.98.48ZM2037.56,880.03c-4.06-.33-3.93,6.93-7.87,4.93-.99,2.8,1.38,2.81,1.59,3.27,1.11,2.43.72,4.84,3.83,6.58,1.33-2.84-2.76-5.61-2.53-8.28.04-.42,5.76-4.1,4.99-6.5ZM2095.53,891.64l-3.72-8.65-1.99,3.46c3.25.85,1.49,3.45,2.45,6.42.14.44,1.61,1.71,1.46.31l1.79-1.54ZM2075.81,893.02c-.18-.28-1.97-.68-2.74-1.62-1.63-1.98-2.89-5.03-4.93-6.43l-5.92,17.74c3.53-1.27,5.04-.11,5.84-4.5l-1.92-1.78,2-7.52,4.44,3.92.49,3.97c1.95-.7,4.22-1.37,2.74-3.77ZM2026.7,898.73l-.95-9.82-10.85,25.62,2.73-.47c1.07-2.52,4.52-13.25,5.64-14.35s3.27-.81,3.44-.99ZM2078.98,901.71c2.31,2.48,6.92-10.18,5.91-11.82-3.62,2.76-3.64,8.18-5.91,11.82ZM2107.53,907.71l-1.91.41c1.22,2.32,1.57,7.55,4.91,5.94l-1.97-2.46,7.38,1.98c1.4-.21-.99-4.46,2.47-1.98-.69-4.56-7.41-4.43-10.34-1.94l-.54-1.94ZM1959.67,918.49l-3.54-.95c2.44-14.68-7.78-7.66-8.29,1.92,2.26-1.02,7.51,3.18,7.86,2.94.07-.04-.16-1.24.35-1.58,1.23-.83,3.29-.48,3.62-2.34ZM1942.82,914.64c-1.4-.63-3.41-1.09-4.59.13-.41.43-5.83,9.7-5.92,10.29-.17,1.13.85,2.14.75,3.28,4.38-.31,5.22-3.94,7.22-5.65.57-.49,2.2-.07,2.48-.35.29-.31.39-7.12.05-7.69ZM2077,915.53h-4.91s.98,6.9.98,6.9c3.82-.06,4.32-3.82,3.93-6.9ZM2006.02,920.46c-2.83.69-4.65-1.95-7.15-1.8-4.54.27-4.21,6.29,2.49,5.55.73-.08,6.46-2.3,4.66-3.75ZM2065.17,931.3c1.05-.96-2.84-8.49-5.91-6.89l2.09,6.77,3.82.12ZM2074.75,938.49c-1.36-1.48-4.84-2.96-6.14-5.21-2.08-.41-1.61.95-1.4,2.41.16,1.12,3.48,6.56,4.31,7.48,1.81,2.01,3.91,3.86,6.46,4.89.39-3.41-1.04-7.19-3.23-9.57ZM2004.05,942.13c-.48-.65,4.71-5.8,1.46-6.88-2.25-.66-1.42,2.5-3,2.85-1.01.22-2.97-1.27-4.37-.88l5.87,9.36-2.9,2.45c-.39-1.7-6.45-6.29-8.38-5.91-2.78,2.07,1.47,5.85.47,8.88l6.29-.04,1.1-1.93c2.93,3.24,6.96-1.2,11.33,1.97,2.4-5.71,2.4-9.01,0-14.78l-3.03,5.85-4.84-.94ZM2087.25,950.7c-.8-.76-6.89-8.38-7.28-4.13,3.93.92,2.87,4.77,3.22,5.24,1.74,2.36,7.92,3.6,5.8,9.92l3.79,1.11c-.89-3.66-.85-7.8-2.94-11.15-.66-1.06-2.04-.47-2.59-.99ZM2005.03,953.99c-4.03.31-5.41,2.62-9.35-.02l-.49,1.97,3.78,2.18-.84,2.76,5.93-.98c-.91-2.5-.38-3.75.97-5.9ZM2078.19,969.55c-.43-.58.85-11.54-5.12-12.62-1.02,2.43,2.78,3.99,2.93,4.64.41,1.86-.41,9.74.03,10.16h3.93c.85-2.66-1.37-1.64-1.77-2.18Z"/><path class="cls-1" d="M2139.12,920.45c-5.34.13-6.04,3.38-10.84,3.95l1.96,3.93-4.91-1.98c-.4-1.62,1.6-.39,1.98-1.69.31-1.03-.2-2.35-.02-3.23.5-.36,2.01.17,2.46-1.97l3.46,1.96-1.97-4.92c.98-1.04,6.73,3.38,7.88,3.94Z"/><path class="cls-1" d="M1964.6,953.99l-1.04,11.22,4,3.56-8.72-1.78-1.15,2.3,2.03,1.06-.05,1.8-2.95,5.5-.98-9.85c.4,2.07-4.44,11.55-6.4,10.83-1.74-.64-1.18-1.4-.68-2.61,1.14-2.77,4.28-6.19,6.07-8.72-.01-1.91-13.15-2.41.02-6.4l-.5,2.94c3.32-2.06,4.81-3.64,4.45-7.89l3.93,1,1.98-2.96Z"/><path class="cls-1" d="M1994.18,684.81c-1.1,2.53-.5,5.63-1.2,8.16-1.48,5.34-5.48,5.01-9.53,7.23-1.82,1-4.06,4.48-3.6-.64,3.07-1.8,5.3-4.38,7.8-6.55.93-.8,3.46.59,2.59-3.29l1.96,1.01-.5-2.97-6.94,4.9-1.41-1.91c2.05-.91,6.54-3.54,4.91-5.93h5.91Z"/><path class="cls-1" d="M2054.32,516.2c.96,2.62-3.5,5.77-3.66,6.11-.21.43-.25,7.06-.98,9.5-.51,1.7.36,2.57-2.25,2.13,2.92-4.09-1.42-9.43-.52-12.31.4-1.29,1.76-1.9,2.11-2.97.31-.96-.63-2.44-.13-3.45,1.45-2.93,2.25,4.19,5.43.99Z"/><path class="cls-1" d="M2082.92,602.98l-2.78,3.43,5.74,8.38c-1.62,1.12-7.88-4.12-7.92-4.59-.14-1.98,1.68-4.55.03-7.23h4.93Z"/><polygon class="cls-1" points="2056.25 538.96 2054.85 547.76 2052.36 548.73 2051.38 546.77 2050.39 549.72 2053.35 537.89 2056.25 538.96"/></g></svg>