<?xml version="1.0" encoding="UTF-8"?><svg id="Layer_1" xmlns="http://www.w3.org/2000/svg" xmlns:xlink="http://www.w3.org/1999/xlink" viewBox="0 0 4356.6 3203.49"><defs><style>.cls-1{fill:url(#linear-gradient-2);}.cls-2{fill:#fff;}.cls-3{clip-path:url(#clippath-1);}.cls-4{fill:url(#linear-gradient);}.cls-5{clip-path:url(#clippath);}</style><clipPath id="clippath"><rect class="cls-2" x="338.6" y="44.49" width="1929" height="1085"/></clipPath><linearGradient id="linear-gradient" x1="1625.1" y1="437.38" x2="1635.6" y2="989.8" gradientUnits="userSpaceOnUse"><stop offset=".05" stop-color="#7f27ff"/><stop offset=".16" stop-color="#7022e3"/><stop offset=".4" stop-color="#4a159c"/><stop offset=".7" stop-color="#16043a"/></linearGradient><clipPath id="clippath-1"><path class="cls-4" d="M1465.07,429.1c15.51-17.9,26.11-11.11,52.81-28.55,23.51-15.36,46.83-41.22,63.19-86.03,8.85-.15,21.72.51,36.41,4.66,15.03,4.25,20.66,8.98,37.34,16.82,37.25,17.52,43.42,10.07,54.84,21.18,14.55,14.15,4.99,26.71,16.47,67.72,10.68,38.16,28.72,62.16,33.3,68.05,14.87,19.13,31.04,31.53,42.52,39.04,30.14,12.6,61.85,27.19,94.66,44.14,20.7,10.69,40.33,21.54,58.91,32.4,37.55,13.09,47.38,26.82,48.81,37.45,1.95,14.42-9.49,20.09-18.26,44.34-7.25,20.07-2.52,42.61,5.98,62.19,8.5,19.57,20.59,37.44,28.89,57.09,1.11,2.64,2.07,5.95.22,8.13-1.25,1.47-3.35,1.84-5.26,2.1-135.37,18.8-271.18,34.21-406.97,49.62-33.05,3.75-66.3,7.51-99.5,5.54-37.69-2.23-74.54-11.79-110.91-21.94-47.53-13.26-94.75-27.61-141.62-43.03-5.62-1.85-12.23-4.9-12.74-10.8-.49-5.58,7.79-7.63,12.16-13.62,13.28-18.23-24.6-51.29-13.82-77.63,5.69-13.9,18.75-10.83,33.6-29.65,12.43-15.75,15.78-33.74,16.76-45.87,20.64-13.54,41.42-27.36,62.33-41.47,18.21-12.28,36.18-24.55,53.92-36.81,4.16-5.02,10.41-13.11,16.72-23.81,27.3-46.3,16.43-74.93,39.26-101.28Z"/></clipPath><linearGradient id="linear-gradient-2" x1="1845.95" y1="487.95" x2="1546.55" y2="833.82" gradientUnits="userSpaceOnUse"><stop offset=".05" stop-color="#4b09b2"/><stop offset=".51" stop-color="#16043a"/></linearGradient></defs><rect class="cls-2" x="338.6" y="44.49" width="1929" height="1085"/><g class="cls-5"><path class="cls-4" d="M1465.07,429.1c15.51-17.9,26.11-11.11,52.81-28.55,23.51-15.36,46.83-41.22,63.19-86.03,8.85-.15,21.72.51,36.41,4.66,15.03,4.25,20.66,8.98,37.34,16.82,37.25,17.52,43.42,10.07,54.84,21.18,14.55,14.15,4.99,26.71,16.47,67.72,10.68,38.16,28.72,62.16,33.3,68.05,14.87,19.13,31.04,31.53,42.52,39.04,30.14,12.6,61.85,27.19,94.66,44.14,20.7,10.69,40.33,21.54,58.91,32.4,37.55,13.09,47.38,26.82,48.81,37.45,1.95,14.42-9.49,20.09-18.26,44.34-7.25,20.07-2.52,42.61,5.98,62.19,8.5,19.57,20.59,37.44,28.89,57.09,1.11,2.64,2.07,5.95.22,8.13-1.25,1.47-3.35,1.84-5.26,2.1-135.37,18.8-271.18,34.21-406.97,49.62-33.05,3.75-66.3,7.51-99.5,5.54-37.69-2.23-74.54-11.79-110.91-21.94-47.53-13.26-94.75-27.61-141.62-43.03-5.62-1.85-12.23-4.9-12.74-10.8-.49-5.58,7.79-7.63,12.16-13.62,13.28-18.23-24.6-51.29-13.82-77.63,5.69-13.9,18.75-10.83,33.6-29.65,12.43-15.75,15.78-33.74,16.76-45.87,20.64-13.54,41.42-27.36,62.33-41.47,18.21-12.28,36.18-24.55,53.92-36.81,4.16-5.02,10.41-13.11,16.72-23.81,27.3-46.3,16.43-74.93,39.26-101.28Z"/><g class="cls-3"><path class="cls-1" d="M1653.18,414.43c-1.33,27.15-2.66,54.29-3.99,81.44-.42,8.54-.79,17.41,2.42,25.34,3.41,8.45,10.85,16.13,9.45,25.14-1.81,11.67-18.01,20.51-13.25,31.31,2.07,4.7,7.44,6.9,12.41,8.17,29.19,7.47,60.41-1.63,90.02,3.92,29.48,5.53,54.41,25.02,75.47,46.38,21.06,21.36,39.7,45.33,63.4,63.72,3.05,2.37,6.35,4.71,10.17,5.28,7.98,1.19,14.74-4.22,16.06-5.18,8.37-6.09,52.19-19.36,169.26-46.45-70.74-21.44-127.52-46.33-169-67-30.88-15.39-64.59-39.26-132-87-21.15-14.98-42.94-31.02-46.52-54.72-1.19-7.9-3-20.77-6.19-42.89-1.15-7.99-3-10.93-5.82-20.67-3.32-11.48-7.82-28.31-12.23-49.72-28.57-10.66-57.13-21.33-85.7-31.99,9.17,17.18,20.02,42.64,24.18,74.93,2.15,16.68,2.3,30.97,1.85,40.01Z"/></g></g></svg>