<?xml version="1.0" encoding="UTF-8"?><svg id="Layer_1" xmlns="http://www.w3.org/2000/svg" xmlns:xlink="http://www.w3.org/1999/xlink" viewBox="0 0 4356.6 3203.49"><defs><style>.cls-1{fill:#fff;}.cls-2{fill:url(#linear-gradient);}.cls-3{clip-path:url(#clippath);}</style><clipPath id="clippath"><rect class="cls-1" x="338.6" y="44.49" width="1929" height="1085"/></clipPath><linearGradient id="linear-gradient" x1="1303.64" y1="157.86" x2="1300.43" y2="1094.19" gradientUnits="userSpaceOnUse"><stop offset=".05" stop-color="#4b09b2"/><stop offset=".51" stop-color="#16043a"/></linearGradient></defs><rect class="cls-1" x="338.6" y="44.49" width="1929" height="1085"/><g class="cls-3"><path class="cls-2" d="M654.43,310.75c25.68-26.65,60.54-61.46,92.78-43.3,12.66,7.13,20.22,21.15,32.7,28.6,16.19,9.67,37.18,6.2,54.36-1.58,46.42-21.02,74.74-67.49,106.13-107.63,31.39-40.14,76.02-78.84,126.61-72.72,37.73,94.97,90.88,183.8,156.74,261.94,25.9,30.73,54.83,60.6,91.72,76.56,38.74,16.76,82.33,16.59,124.02,23.22,170.09,27.06,302.78,166.5,536.72,204.69,61.55,10.05,156.4,15.24,280.24-20-3.1,62.68-5.14,127.28-5.93,193.7-.49,41.58-.48,82.44,0,122.55-112.31,1.81-283.56,3.68-493.49,2.29-236.21-1.56-354.36-1.77-466.12-9.08-215.05-14.05-428.78-51.05-644.29-50.34-100.26.33-200.29,8.83-300.19,17.33,3.69-116.07,7.37-232.14,11.06-348.21,58.9-80.77,117.16-139.15,161.67-178.72,60.17-53.5,50.42-11.29,135.25-99.32Z"/></g></svg>