<?xml version="1.0" encoding="UTF-8"?><svg id="Layer_1" xmlns="http://www.w3.org/2000/svg" xmlns:xlink="http://www.w3.org/1999/xlink" viewBox="0 0 4356.6 3203.49"><defs><style>.cls-1{fill:#16043a;}.cls-2{fill:#fff;}.cls-3{clip-path:url(#clippath);}</style><clipPath id="clippath"><rect class="cls-2" x="338.6" y="44.49" width="1929" height="1085"/></clipPath></defs><rect class="cls-2" x="338.6" y="44.49" width="1929" height="1085"/><g class="cls-3"><path class="cls-1" d="M2178.9,414.62c2.33-1.19,4.85,6.03,4.89,7.85l3.09.22c-.53,1.08-.73,2.15-.4,3.34,1.58,5.84,4.7,12,7.17,17.22,1.01,2.14,0,6.17,3.05,4.24l.39.82c-2.06,1.58-1.25,4.77-2.39,7.9-1.88,5.16-7.46,10.96-8.46,16.26-.16.86.91,2.01.87,3.09-.27,7.82-.33,15.45,3.51,23.22,1.17,2.37,3.93,7.48,6.79,6.31l-1.1,2.12c3.78,2.23,3.04,7.06,4.9,9.74,3.04,4.38,14.8,14.83,19.63,16.93.78.34,4.51.71,4.86.06-2.05-3.66.8-10.51,4.43-7.21l3.25-2.67c2.32,2.82-.64,4.35-1.06,6.46-.65,3.2.47,10.86,3.69,11.94,3.03,1.01-.4-3.41-.17-4.46.24-1.13,1.96-1.27,2.13-1.79.29-.9-1.8-3.16-.52-4.75,2.22,1.83,3.91-1.16,5.22-1s2.09,2.99,5.22.11c-3.5-1.42-4.23-4.38-5.7-7.6l4.56.91-1.18-4.59,2.44,3.99c2.58-2.4-.9-4.72,3.02-5.58l-2.85-3.8,4.61-1.17c1.94,2.39-1.08,1.87-1.44,2.98-.18.54.64,1.51.52,2.29s-1.84.62-.87,1.78l6.05-.28-1.92,2.47c2.58,2.38,5.27.77,7.94-.7-2.36,5.86,8.54,7.5.23,11.26l-.78-3.76-1.62.83c1.65,2.54-3.01,1.96-.97,4.52l2.82.59,1.78-1.73c.23.04-.37,2.74,2.13,3.87,3.61,1.62,1.44-2.26,3.26-2.31,3.21,2.93,3.73,2.47,7.89,1.44l.47-2.34c.5,3.19,5.86,3.58,6.06,3.91.94,1.56-.23,6.04,2.51,7.49l-8.31,1.94,1.46,10.35c-.82,2.57-3.39,2.88-4.7,4.92-1.55,2.43-1.09,4.79-2.38,6.97-2.6,4.4-14.65-1.48-10.75,10.07.98,2.89,6.25,3.53,5.31-.04l4.19-1.02,1.65,3.31,1.26-1.65c2.62,1.56-3.1,11.82-5.7,12.97l.96,3.11c3.12,4.02,34.82-10.4,40.14-12.33,6.72-2.44,13.75-3.6,20.1-7.46l12.16-1.81c-3.12,2.36-8.08,5.71-11.58,7.1-1.52.61-4.27-.1-7.2,1.48-2.55,1.37-3.52,2.85-5.2,5l-1.38-1.97c-5.5.58-7.69,4.88-11.24,8.01l-.38-1.88-1.68.81.38,1.87c-1.8-.74-3.13-1.65-4.57.04l-2.49-1.83-.04,2.11-1.25-1.38-7.97,4.76,3.75.25-.08,2.11-20.14,8.6,1.28-1.64c.56-2.16-7.42,1.72-8.36,1.96l5.31-.47.91,1.63-21.85,9.4-1.64-2.18c-2.77,1.66-4.63,2.67-5.92,5.81l-.36-2.92-3.57,1.18,2.68,1.3c-2.14.77-4.25,2.43-6.33,3.12-1.08.36-6.93-2.35-6.69,2.08l3.76-.77-27.3,12.05c-2.62-3.24,5.09-2.56,4.68-5.33-5.26,2.09-9.22,2.69-13.06,7.27-.09-2.35,2.5-4.51,4.17-5.86,6.65-5.38,24.47-16.8,32.16-20.82,13.41-7.01,19.94-3.22,12.56-22.15l-1.88.04c-1.08-15.44-8.56-33.75-20.59-44.75-5.48-5.01-13.77-9.14-19.61-14.2-11.22-9.71-18.35-23.83-34.16-28.09-3.22-.87-26.06-4.47-28.83-4.46-3.96.02-9.85,2.35-14.08,1.2-.55-.15-9.69-4.66-10.12-5.02-2.42-2.01,4.02-.88,1.71-2.86-4.6-3.95-9.58-8.48-15.26-10.31l2.12-2.04c-2.51-.94-4.57.87-7.26.76-.54-.02-6.26-1.44-6.94-1.69-1.37-.51-1.61-2.84-3.48-1.49l-.4-.81c2.5-1.4,1.93-3.28.48-5.37-2.76,1.11-4.63,1.45-6.64-1l5.84-.74c-5.31-4.17-3.32-9.67-7.69-13.91l-2.11,2.05-2.03-4.2-2.11,2.04.1-6.24-6.72,3.22,4.86,8c-3.09,2.15-5.45-.49-7.82-.65-1.79-.12-3.09,1.76-3.52,1.82-.65.1-1.14-2.18-3.25-.39-.29.25.27,1.41-.01,1.75-3.52,4.28-3.52,3.16-8.07,5.29-2.69,1.26-6.6,4.15-4.27,7.18l-2.9.29.02-2.02-2.13.98v2.11s-2.92-.71-2.92-.71l2.55-3.28-2.92-1.36-1.23,1.3c-2.62-3.1,1.48-5.34-1.15-6.69l5.03-2.26,1.65,1.12-2.4-5.05,2.87,1.72c-1.74-1.6.12-3.22.11-3.39-.07-1.29-3.31-2.14,1.06-5.04,1.26-.84,4.47-.28,1.94-3.51-1.28-1.63-9.83-3.3-1.99-5.14l-2.68-1.3c2.46-2.66,1.91-2.13,2.06-5.54l2.86-1.47-.06,2.08,1.67-.8c-.71-2.25-.24-3.45,2.19-4.13l1.63,1.29-1.03-4.26c1.88-1.06,3.76-.71,4.09-3.4l2.9,2.72,1.17-1.33c1.23,1.61,2.85,1.28,4.64.64l-2.6,5.36,4.2-1.86,1.25,2.18,4.78-.53-1.92,2.46,1.61,3.35,3.8-2.86,2.05,2.13c-1.78-2.74,2.32-2.67,4.14-4.14,1.57-2.74-12.02-9.63-14.09-10.25-18.26-5.47-30.45-4.72-48.7-4.7-2.89,0-5.34-2.15-8.14-1.69l1.15-1.66-1.9-4.17c1.23,2.42,4.1,5.23,7.03,3.87l-5.6-13.86c-2.75,1.24-1.74,6.73-.99,8.74-1.17.83-2.26-1.85-2.72-2.7-.9-1.67-1.17-3.65-2.13-5.31l2.45,2.96-.34-5.02,2.08.05c-.66-5.34-7.89-5.72-4.57-.93l-4.16-.07,3.28,2.56-4.6.15c.12,1.76-.75,3.68-2.29,4.68-3,1.95-4.53-1.18-5.98,4.96l3.91,1.75c-3.14.58-6.54-2.45-9.12.11l-2.29-2.49c-2.87,2.42-6.24,2.88-9.92,2.28l-3.28-9.53,1.68-3.7-5.25,1.99-.29-7.1,3.32-.49.04-2.21,4.18.11c-.49-4.45,2.24-2.49,3.69-4.77.65-1.02-.05-2.77.87-4.08,1.33-1.91,5.14-2.61,3.62-5.39.34-1.29,2.63,3.01,3.31.47.1-.36-2.21-2.76-2.5-2.83-.18-.04-.58,1.14-1.19,1.17-.33.02-.86-2.21-2.12.31l-1.21-2.53,2.92-.35-1.21-2.54,4.38-.21,2.78-4.26,2.04,2.13c-1.28-3.7,2.24-7.36,4.65-3.26l-1.27,1.64,4.16,1.13-2.44-4,4.98-1.3-.74-2.83c2.59.33,1.5-.18,1.7-1.85l2.04,2.13c1.58-4.73-5.81-5.27-2.54-10.68l-4.75-1.33c3.1-1.03,1.73-4.63,5.5-5.79l-1.6-3.32-2.96,2.44-1.61-3.36c3.25-1.49,2.8,3.66,3.38-2.66l1.65,1.28-.4-1.88,5.05-2.43.46,2.76,1.78-.22-.27,3.75c1.77-.95,3.75-.07,4-2.43l-2.27-.45c3.92.15,6.22-6.39,9.22-3.39l2.13-3.08,3.72,3.38,1.67-.8c-4.23-3.11,4.73-1.82,5.84-.72l-2.67-3.31,1.49-1.31c-3.02-1.5-6.18,2.64-10.77.86l-1.61-7.33,2.05,2.13,1.6-1.87c1.93,2.26,4.03,1.3,1.68-.53,2.31-1.63-1.6-2.91.6-5.66,4.23,2.25,5.54,1.31,9.12-1.22l1.93,1.62-.29,3.73.92-4.57c5.21-1.26,7.08,6.27,11.36,6.46l-2.32,1.64,2.47.86c-5.93,6.41-8.19-5.37-14.63,1.84l.05-2.08-3.37,1.61,1.65,3.26c5.05.56,8.94-5.48,10.79,1.11,2.19-1.86,3.77-3.56,6.93-2.79l-3.16,2.04,3.3.57.4,2.82,3.39-3.68-.66,2.81c2.19,2.94,4.76.22,6.35.91,1,.44,7.65,6.67,8.3,8.2,2.55-.49.95-2.17,1.73-3.94l1.23,1.47.43-2.28,2.47-.04v1.97c3.6-3.32,5.64,4.09,7.46,4.71,2.5.86.39-3.3,1.7-2.87l2.57,1.33.29,2.45c2.59-1.81,1.33-4.13,5.25-1.98l-2.71.78c.6,3.4,3.39-.22,4.17.07.46,1.23,1.46,2.43,1.75,3.66.16.66-2.84,2.18-.62,3.04.24.09,3.16-2.16,4.4-2.6,3.57-1.26,4.46-1.7,7.7-3.18.35-.16,6.04,2.98,6.75-.15l1.21,2.52-5.87,2.83c1.26,2.33,7.87-2.34,7.96-2.8l-4.49-5.08,5.83.31.49-3.35c5.51.26,8.61-3.84,14.61-2.85-4.89-5.22-1.2-6.02,3.39-8.93l3.37,3.62-3.18.57c-3.62,5.43,8.13,1.95,6.13-.93l1.66,1.02c5.5-.48,1.91-6.26,5.11-8.42l-2.92.37c-1.99-8.47,2.2-.79,5.07-4.24l.83,1.4,1.65-.81-.36-1.9c4.13.86,5.73-1.98,8.83-4.2l2.05,2.13-.71-5.85,2.46.87c-1.7-2.51,2.35-2.65,3.54-4.68l1.61,1.27c1.98-1.55,2.87-2.58,1.27-4.83l3.74.29.45-2.29,3.31,2.53.88-3.39,4.2-1.1c.77,6.17,8.75-3.29,10.35,4.35l3.38-3.69c1.5,2.84-2.74,3.44-.09,6.25l3.27-2.67,1.75,1.3c2.28-4.69-3.24-1.7-3.45-4.01l1.92-4.56,2.47,2.96c.31.05,2.55-3.7,3.34-1.62-3.37,1.66-3.44,6.23-2.64,9.56l.48-3.32,2.05,1.08,1.1-3.11-1.88.38.46-2.27,4.92.85,1.06,1.94-2.7.79.93,2.04,6.72,1.01-2.58,5.4c3.58,1.36,3.24.38,6.49-1.57l2.39,7.12,2.95-2.44-1.55,5.4,1.87-.41,1.23,2.55,1.26-1.66c1.02.58,1,5.55.69,6.9-.41,1.82-2.69,3.13-1.5,4.34l7.54-5.6,2.75-.77c1.23,1.45,1.47,3.86,2.58,5.25.7.87,2.06-1,2.35.55l-2.73,2.87,3.08,2.14.86-2.47,2.89,1.73c1.11,1.63-2.66,2.33-2.76,2.53l-.04,2.44c2.46-1.25,3.96,3.83,3.14,5.27-.41.73-2.04,1.33-3.32,3.01-1.37,1.79-.65-1.12-1.83-.63l1.19,3.58-2.44-2.96c-3.51.79-1.91,5.3-4.71,7.43-.62-2.03-1.19-2.22-3.1-2.14l2.75-2.89c-1.56-2.41-5-4.25-2.18-6.69l-4.34.46-.49,2.37-.82-1.68-.86,2.48-1.62-2.31-1.72,1.84.05-2.08-4.21,2c-2.15-2.68,3.41-3.34,4.56-4.67.74-.86.05-3.04,1.82-3.57l-2.08-.04.07-4.16-3.78,2.85-1.24-2.53-1.29,2.69c-1.66-1.92-2.34-.3-4.57.12l1.19,2.54c-3.94-.16-4.35-5.03-4.38-8.24-2.95-1.59-3.86-1.03-6.33.95l1.32-3.71-2.96,2.44c.37-2.14-2.1-3-2.32-3.54-.43-1.05,1.18-2.4-.08-3.59l-1.88.4c1.86-1.79,1.08-2.38-.13-4.6-1.19,1-2.61,1.87-3.8,2.85-.6-2.45-.76-4.27-1.14-6.69l-4.3,5.79,2.85,6.27c1.63-.63-.25-3.14.27-4.12.39-.74,1.78-.81,2.32-1.26.65,2.64.23,4.93,3.05,4.22-.32,2.17-3.28,3.21-3.86,4.95-.58,1.73-.59,2.22-1.19,3.86-.68,1.87-1.7,3.92-.41,5.7l-2.88-.67c-.18.39-1.17,7.91.3,7.1,1.78-2.75,4.18-3.61,6.43-5.42,1.01-.82,1.82-5.08,3.25-1.31-3.36,3.1-9.97,7.25-11.39,11.73-.74,2.34-.98,12.32-.83,15.18.09,1.62,1.52,2.72,1.49,2.92-.07.51-3.02,3.68-2.15,5.86l5.62-1.17-4.64,3.28,2.44,2.95-2.05-1.08-2.01,7.69,3.31.48c-.31,1.55-1.81,2.63-2.17,4.12-.8,3.31-2.51,16.18-1.33,18.77-4.91,2.52-.42,7.28-.54,8.51-.2,2.03-4.04,5.54-5.29,7.31-.46.65.07,2.1-.1,2.34-.12.17-2.2.25-3.42,1.19-2.84,2.18-3.87,5.65-4.75,7.76-5.04,1.41,1.25,1.32,2.05,2.08,1.71,1.63,1.17,4.16,5.07,3.65l.76,1.64c-3.15,3.57,1.6,7.52,2.73,10.03.21.47-1.15,1.04-1.08,1.91.68,8.08-.85,7.45-1.39,13.39-.11,1.2,1.09,2.65.89,3.48-.11.47-1.67.82-1.86,1.36-1.57,4.61,1.34,16.51,5.04,19.25,1.32.98,6.52,2.49,7.44,3.14,2.12,1.51,3.17,5.03,6.26,5.58,3.57,0-2.42-4.12-2.64-4.47-.19-.3,1.21-.94,1.11-1.78-.15-1.33-1.6-5.67-2.45-6.68-2.74-3.23-7.09-1.91-8.64-5.85l7.45,2.63c.52-.97-1.57-17.74-.19-21.91,1-3.05,5.34-8.11,6.83-11.77,3.98-9.81.15-9.71-2.65-17.37-.28-.78.4-2.15.01-3.18-2.88-7.73-7.19-14.71-10.63-22.25ZM2029.99,358.95c-6.84-3.2-1.31,8.53,2.03,10.13.71.16,1.42-8,4.9-7,.42,3.05-2.26,3.52-2.81,6-.14.64,0,7.82.34,8.03.15.09,1.13-.51,1.36-.32.9.76,1.71,2.63,3.2,3.24l1.15-1.38c2.66,3.1,8.33,5,12.3,6.07,1.81.49,2.51-.77,2.63-.71,2.92,1.46,6.12,7.23,5.29,10.76l3.8-2.84c.97,1.94-.54,3.12.47,5.4,1.78,4.03,9.2,9.82,13.3,10.14.91.07,1.86-.26,2.67-.64.7,1.64-2.09,1.71-1.17,4.15.51,1.35,2,2.16,2.72,3.36l1.3-3.72c3.39,2.85.12,5.83.3,6.49.92,3.33,9.79,10.85,11.13,15.29l5.1-.21-5.95,2.82c-.26,4.34-.89,8.57-.85,12.96.03,2.99.17,9.5.78,12.19.19.81.32,1.62.82,2.32,3.85-.41,1.15.52,1.58,2.7.85,4.32,4.79,6.8,6.85,10.45l2.14-4.12c1.81,4.69,1.43,8.87,5.24,12.95l3.35-1.54c.49,3.5,8.96,3.63,12.31,4.74,6.82,2.28,13.99,6.57,20.79,7.66,1.85.3,11.21.85,12.4.52,2.55-.69,3.6-2.54,5.92-3.48l2.19,1.07c-2.24-4.7-1.67-10.08-.99-15.03-5.51.85-10.33,3.57-15.5,5.27-3.13,1.03-6.14-.34-9.27,3.47l-3.32-.48c-.83-1.47,1.82-1.62,2.77-2.86,2.62-3.43-3.44-11.58-5.81-14.3,5.16.15,3.37-5.96,3.77-9.32.14-1.16,1.48-1.98,1.54-3.82.12-3.26-1.71-5.43-2.33-7.96-.98-4.01.32-7.35-4.11-11.48,3.26.07,2.3-2.28.9-4.56-1.39.37-.16,1.8-.73,2.87-2.3,4.28-6.66,2.48-6.85,2.82.66,5.28.53,6.29-4.68,5.33l1.7-2.87c-.31-1.55-1.4.12-2.09-.51-.3-.27-.81-2.32-1.6-2.89-3.71,1.94-5.67,6.18-10.06,3.8l-1.33,4.76-1.63-3.36c-2.35,4.31-5.64-1.4-.4-.84l-2.84-2.75-4.02,3.45-.55-5.44,3.76.28-.12-1.75,2.64-.49-.06,4.15c2.42-3.37,9.8-3.86,8.06-9.03l-1.48,1.21-3.8-3.77c2.97-1.27-.94-4.42-.08-7.03.63-1.92,2.94-2.57,4.74-2.52-.66-3.1-2.19-.41-3.32-.53l-2.03-4.15.73,5.85-2.45-2.96-2.95,2.44,1.3-3.74-2.89-1.69-.92,6.63c-4.33-2.28-5.75-2.69-5.12-8.42l-5.18-.08c4.99-2.01.52-8.87,6.3-10.4l-1.07-2.45,2.52-1.21-.05,2.08,3.81-2.86c-2.15-2.64-2.82-3.55-6.18-4.26,4.52-.56,2.76-1.36,3.44-2.28.57-.78,1.63-1.11,1.8-1.43.06-.12-1.77-2.08-.54-2.67,1.37-.66,3.58.56,3.72,2.34,2.49-4.04,3.55-.82,4.33-1.02,1.06-.27,2.6-2.36,4.48-2.15l1.2,2.52-5,.33,4.52,4.02,1.28-2.66c.86,2.15,3.13,1.52,4.96.8l.07-2.19c1.87,1.05,3,.72,4.19-.98l2.89,1.73-8.53-13.49c-1.72.48.42,1.77.11,2.84-.08.28-3.34,4.34-3.98,4.17l-.37-2.91-3.31,2.56-2.59-1.7-1.57,1.66-3.93-1.15-3.68,3.74-2.59-1.27-.7-3.32-1.71,2.89c-4.44-8.19-5.85-.06-3.01,4.54l-2.45-1.92-.19,3.13-2.31.29c.58,2.71-2.34,2.44-2.83,3.46-.18.39.69,1.55.51,2.23-1.18,4.49-6.29,7.95-8.05,12.56-2.34-.9,3.53-8.24,3.69-9.54l-1.87.4c-.84-7.22-7.31-4.57-10.07-10.18l2.73-.79c.44-3.18-2.54-5.29-3.09-7.15-.27-.91-.63-8.09-1.22-8.37l-3.25.6c-.13,5.06-1.73,2.77-4.14,4.26-.84.52-1.2,1.84-2.07,2.36-2.84,1.69-3.62-2.45-5.3-3.03-1.3-.45-3.34.95-4.41.59-.72-.24-2.92-3.21-4.79-3.31-1.37-1.98,1.07-3.27-1-6.07l-3.14,2.02c.94-2.11,1.65-4.01.21-6.14l-4.1-.75-1.26,2.63c-.88-1.14-2.21-3.77-3.38-4.31ZM2024.46,364.73c-.96-.32-2.96-.3-3.51.81l1.01,4.22-1.64-1.28c-2.61,1.86,2.28,4.63,1.98,6.3l-3.31-.48,2.05,2.11c-4.04.56-4.45,6.78-4.89,7.37-.18.25-4.66.41-5.21,1.68-.11.26,2.92,4.52-2.63,3.24-1.36-.32,2.69-2.04.48-3.32l-5.04,1.38c-.67,2.21,2.19,3.54-.46,4.36l.79,1.67,1.87-.38c-.28,1.17-1.46,1.9-1.64,3.1-.89,5.79,6.52,18.44,8.59,24.43,6.79-.91,15.51,4.32,20.39-1.8,1.63-.17,1.5,2.09,1.68,2.13.64.15,2.6-.83,4.07-.67,3.26.36,11.53,2.38,14.85,3.66.89.34.59,1.6,1.49,1.9,1.15.39,12.59.65,12.8.04-.61-1.32-.9-4.12-.54-5.39.27-.96,1.51-.17,1.69-.51.36-.65.44-9.08.03-10.1-.67-1.65-5.13-4-5.71-5.14-.65-1.28.15-4.54-2.11-7.09-4.67-5.27-22.07-4.85-25.1-9.31-3.35-4.93-5.06-20.69-11.97-22.97ZM2073.56,356.34l-1.66-3.23c-1.53.33.08,1.24-.55,2.05-.75.96-3.05,2.58-4.51,2.45l2.3,1.54c3.67-3.36,2.81,4.85,5.22-2.02l1.62,2.3c1.81-.36,1.28-2.39,2.79-2.95,3.17-1.18,8.45,2.69,11.42-1.83l-1.16-2.49-.45,2.29c-1.65,1.17-1.83-1.06-4.46-1.23-1.85-.12-9.31,3.71-10.54,3.13ZM2036.6,379.83c-.84-.32-.8-1.51-1.83-.67,1.9,10.77,15.28,11.33,23.95,13.35-.04-7.67-8.09-6.53-13.06-8.54-2.7-1.09-5.65-2.86-9.06-4.15ZM2097.77,353.13c-2.09,2.07-3.41,2.41-6.29,1.96l.79,2.75c-1.67-2.17-3.02.08-5.43.53l1.59,3.36-2.45-1.92,4.43,7.19,2.54-.19-.78-2.74,2.89.69-.68-2.85,2.77-1.34-.99-2.39,3.65-2.94-2-.17-.03-1.94ZM2150.24,382.83c-.14,5.08-1.2,9.46,6.16,6.37l-1.72,2.89,3.32.49c1.06,1.26-1.54,1.22-1.12,2.13,1.55,3.41,5.38,1.33,8.14,1.74l-.77-3.76,4.29,3.15,7.74.39-.97-4.03c-3.7-1.05-4.44-.02-5.11-4.43,8.3-1.37,8.42-8.74,3.55-14.12l4.11,2.16c-.94-8.68,4.53-18.3-.36-26.71l2.05,1.08c.65-4.66.11-7.69,4.61-10.62l-1.86-4.15-2.1,2.05-1.24-2.41-2.7.65.27-3.72-5.84-.32.38,2.93-4.15-1.13,1.58,4.41-2.03-2.11-2.35,2.66,3.48,2.98c-1.82.32-2.94-2.2-5.17-2.16-6.7.13-3.16,3.78-3.35,4.07-.38.57-2.06.52-2.15,1.79-.14,2.01,2.23,7.06,2.53,9.5l-2.85-3.8c-2.65.05-.61,2.39-1.28,2.72-1.84.88-3.55-1.92-3.99,1.39,5.08,2.25-.07,4.03,3.43,7.12l-2.53,1.22c3.5,3.96,1.65,2.31.49,5.39-2.09,5.58-2.34,8.6-2.49,14.18.14-.76-1.91-5.54-1.61-7.91s6.42-11.19,1.53-13.7c-2.16-1.11-3.51,2.77-3.76,2.75-.1,0-.38-1.32-1.38-1.44-1.9-.23-3.48,1.62-5.26-.54l-1.33,4.77-.77-3.75c-8.41,2.06-3.78,9.77-8.99,13.6-1.9-1.85.77-2.38.91-3.49.39-3.04-1.25-3.03-3.34-1.55l.08-4.16-2.47,1.21,2.71,7.97-2.84-3.8c-4.24,2.37,1.41,7.93,2.32,11.29l6.28-3.93,2.47,4.92c1.61-1.17,2.22-2.9,4.4-1.58-2.29,3.07-.47,6.93,3.42,7.14l-2.99,4.54,2.78-.42.17-2.02c.91,4.55,4.86,1.29,3.59-1.21-2.44.29-1.57-.67-3.11-2.13l2.51-.28c-.59-1.72,4.31-4.26,4.69-6.28ZM2081.17,422.1l-6.98-6.99-3.45,5.76,1.63,4.42c2.39-2.53,6.36-.03,8.8-3.19ZM2141.53,429.41c.06-3.84,1.89-4.32-2.4-7.12l-1.66.8,3.28,2.55-3.76.78,3.63,4.35c.46-.27.66-1.24.9-1.35-.08,5.4-1.74,8.33-1.79,13.07s2.5,10.44,2.2,15.4c-.42,6.96-5.07,13.15.88,19.54l1.48-1.23.52,5.42,22.1-6.82c2.35-3.11,1.69-6.61,1.9-10.09.13-2.22,2.09-3.1-.48-7.01-3.39-5.15-7.56-.31-8.83-5.87-2.98,2.08-6.36,2.91-6.99,6.98h2.1c1.42,3.11-2.1,2.91,1.76,5.89-4.46,5.79-6.26.71-10.9,3.15-.95-1.19,1.4-1.45,1.3-3.3-.04-.76-2.05-3.23-1.96-4.64l4.16-2.01-1.65-1.26c2.65-2.46,5.85-.32,7.62-4.7l1.61,1.32,1.49-2.47-4.06-6,2.57-3.43c-1.73-1.46-5.61-2.67-6.91-4.19-1.78-2.08-2.51-6.62-3.16-7.07-.76-.53-4.02-1.12-4.95-.7ZM2174.83,408.3c-2.03,2.43-3.99,1.08-6.68,1.13l4.52,3.01c-3.11.34-4.45,1.59-7.07-.75l-1.24.6c.3.97.32,4.86-.11,5.25-2.22,2.01-3.41-1.64-3.73-.31-.06.23.57,1.55.09,2.47-1.39,2.67-3.77,3.54-4.09,6.96-.33,3.61.83,7.59,4.49,8.92l-.85,2.5,7.49-6.15c-2.3-3.9,2.36-1.39,4.79-4.91l-2.45-2.95c4.48.34,2.86-4.38,4.76-7.21l.08-8.56ZM2088.16,453.99l-2.93.31,1.2,2.55-4.16-.09,1.21,2.55c-7.46.91,1.33,10.12,3.28,13.53,1.19,2.09.25,4.34,2.63,6.35,3.03,2.55,7.72.5,11.25.85-7.85-6.93-10.99-15.84-12.47-26.05ZM2157.66,437.2c-5.21-4.48-.29-12.69-8.1-13.68-1.56,2.03.86,2.75.85,3.5,0,.2-1.2.71-1.02,1.42,1.08,4.4,1.97,6.38,5.88,8.56.84.47.61,1.65,2.39.2ZM2121.9,495.04c2.93,1.93,2.77,2.83,6.97,3.14,1.71.13,1.98,1.36,2.55-1.33l-11.81-3.14c.06,2.41,1.72.95,2.29,1.33ZM2247.43,531.82c-1.81.6-1.81.69-1.04,2.39l-2.75.47,6.58,5.11c-3.15.86-5.92.48-6.62-3.03-1.69-.81-2.69,5.14,0,5.96l7.32-2.25,2.19,1.04c-1.05-2.2-1.05-4.3-3.76-3.81l-1.91-5.88Z"/></g></svg>