<?xml version="1.0" encoding="UTF-8"?><svg id="Layer_1" xmlns="http://www.w3.org/2000/svg" xmlns:xlink="http://www.w3.org/1999/xlink" viewBox="0 0 4356.6 3203.49"><defs><style>.cls-1{fill:url(#linear-gradient-2);}.cls-2{fill:#fff;}.cls-3{fill:url(#linear-gradient-4);}.cls-4{fill:url(#linear-gradient-3);}.cls-5{clip-path:url(#clippath-1);}.cls-6{fill:url(#linear-gradient);}.cls-7{clip-path:url(#clippath);}</style><clipPath id="clippath"><rect class="cls-2" x="338.6" y="44.49" width="1929" height="1085"/></clipPath><linearGradient id="linear-gradient" x1="1272.93" y1="406.27" x2="1258.41" y2="1206.31" gradientUnits="userSpaceOnUse"><stop offset=".05" stop-color="#9f70fd"/><stop offset=".68" stop-color="#16043a"/></linearGradient><clipPath id="clippath-1"><path class="cls-6" d="M220.6,538.98c105.12-91.74,192.07-150,227.27-152.61,8.13-.6,28.06-2.08,41.55,10.29,10.12,9.28,11.91,22.06,12.85,26.68,7.7,38.17,72.15,94.36,128.66,94.18,55.05-.17,118.71-53.9,160.91-65.52,5.95-1.64,11.86-2.96,11.86-2.96,17.15-7.03,36.98-13.96,59.3-19.77,17.3-4.5,33.55-7.66,48.43-9.88,25.41,16.9,33.63,33.64,36.57,45.46,6.9,27.75-9.09,53.3,5.93,68.19,4.07,4.04,11.39,8.24,17.28,18.91,1.87,3.38,2.39,5.65,5.47,13.36,5.09,12.72,8.23,21.39,9.71,25.13,31.07,78.23,214.93,106.24,253.14,111.6,183.29,25.7,242.52-17.37,306.36,39.69,36.52,32.63,42.62,69.87,92.19,86.94,39.29,13.54,76.2,4.62,116.34-5.07,56.89-13.74,107.5-25.96,128.37-65.83,26.19-50.05-17.12-100.46,10.98-127.88,20.02-19.53,46.77,1.39,91.7-9.43,62.66-15.09,54.01-78.31,124.74-114.11,40.82-20.66,49.35-4.14,95.86-28.66,53.46-28.19,85.01-72.59,88.94-69.18,4.23,3.67-36.03,51.56-25.7,63.25,2.32,2.62,5.95,1.92,8.5,2.58,24.28,6.21,6.24,149.11,4.62,173.61-9.98,150.84,32.3,300.99,27.8,452.09-.55,18.51-3.74,40.2-20.05,48.96-5.82,3.13-12.54,4.05-19.1,4.88-279.94,35.43-563.13-4.89-843.55-36.4-369.77-41.54-741.26-67.79-1113.2-78.64,10.4-54.97-20.11-108.95-25.6-164.63-4.19-42.47,8.57-49.92,10.72-108.52,2.28-62.22,3.35-103.66-16.84-148.22-16.57-36.55-41.42-61.91-62-78.51Z"/></clipPath><linearGradient id="linear-gradient-2" x1="1338.57" y1="405.06" x2="1228.14" y2="1303.06" gradientUnits="userSpaceOnUse"><stop offset="0" stop-color="#9f70fd"/><stop offset=".07" stop-color="#9165e9"/><stop offset=".19" stop-color="#6e49b8"/><stop offset=".36" stop-color="#371e69"/><stop offset=".46" stop-color="#16043a"/></linearGradient><linearGradient id="linear-gradient-3" x1="2077.82" y1="447.19" x2="2171.67" y2="932.66" gradientUnits="userSpaceOnUse"><stop offset=".05" stop-color="#9f70fd"/><stop offset=".12" stop-color="#9064e8"/><stop offset=".25" stop-color="#6b47b3"/><stop offset=".43" stop-color="#30185f"/><stop offset=".51" stop-color="#16043a"/></linearGradient><linearGradient id="linear-gradient-4" x1="791.3" y1="333.59" x2="736.49" y2="991.72" gradientUnits="userSpaceOnUse"><stop offset=".04" stop-color="#9f70fd"/><stop offset=".63" stop-color="#16043a"/></linearGradient></defs><rect class="cls-2" x="338.6" y="44.49" width="1929" height="1085"/><g class="cls-7"><path class="cls-6" d="M220.6,538.98c105.12-91.74,192.07-150,227.27-152.61,8.13-.6,28.06-2.08,41.55,10.29,10.12,9.28,11.91,22.06,12.85,26.68,7.7,38.17,72.15,94.36,128.66,94.18,55.05-.17,118.71-53.9,160.91-65.52,5.95-1.64,11.86-2.96,11.86-2.96,17.15-7.03,36.98-13.96,59.3-19.77,17.3-4.5,33.55-7.66,48.43-9.88,25.41,16.9,33.63,33.64,36.57,45.46,6.9,27.75-9.09,53.3,5.93,68.19,4.07,4.04,11.39,8.24,17.28,18.91,1.87,3.38,2.39,5.65,5.47,13.36,5.09,12.72,8.23,21.39,9.71,25.13,31.07,78.23,214.93,106.24,253.14,111.6,183.29,25.7,242.52-17.37,306.36,39.69,36.52,32.63,42.62,69.87,92.19,86.94,39.29,13.54,76.2,4.62,116.34-5.07,56.89-13.74,107.5-25.96,128.37-65.83,26.19-50.05-17.12-100.46,10.98-127.88,20.02-19.53,46.77,1.39,91.7-9.43,62.66-15.09,54.01-78.31,124.74-114.11,40.82-20.66,49.35-4.14,95.86-28.66,53.46-28.19,85.01-72.59,88.94-69.18,4.23,3.67-36.03,51.56-25.7,63.25,2.32,2.62,5.95,1.92,8.5,2.58,24.28,6.21,6.24,149.11,4.62,173.61-9.98,150.84,32.3,300.99,27.8,452.09-.55,18.51-3.74,40.2-20.05,48.96-5.82,3.13-12.54,4.05-19.1,4.88-279.94,35.43-563.13-4.89-843.55-36.4-369.77-41.54-741.26-67.79-1113.2-78.64,10.4-54.97-20.11-108.95-25.6-164.63-4.19-42.47,8.57-49.92,10.72-108.52,2.28-62.22,3.35-103.66-16.84-148.22-16.57-36.55-41.42-61.91-62-78.51Z"/><g class="cls-5"><path class="cls-1" d="M1589.42,838.55c-47.16-19.78-59.19-.32-85.39-17.84-16.51-11.04-22.6-29.86-39.17-41.86-20.07-14.54-36.51-18.3-64.04-18.51-98.34-.75-157.34,41.98-253.92-10.75-22.03-12.03-51.25-28.71-71.91-36.11-39.69-14.2-77.52-13.27-111.74-36.65-14.79-10.11-24.78-23.25-36.29-36.88-9.96-11.78-18.54-24.37-17.25-40.34.79-9.79,7.07-18.08,5.76-28.07-1-7.62-5.96-13.08-10.75-18.33-8.23-9.02-16.82-17.26-24.78-26.06-9.41-10.42-20.6-18.95-23.22-33.44-4.22-23.32,10.61-41.24,27.35-55.77,16.74-14.53,33.95-26.11,41.55-47.9,13.3,9.4,20.37,19.48,23.58,36.04,3.22,16.63,4.8,24.95,2.72,46.3-3.52,36,33.79,77.3,51.68,97.11,27.97,30.97,33.62,20.95,113,82,7.64,5.88,16.36,12.71,30,19,23.47,10.82,44.66,12.24,75,14,21.45,1.24,37.81.62,53,0,39.98-1.63,39.63-4.92,61-5,60.28-.23,69.92,25.9,103,15,13-4.28,25.55-5.74,50.66-8.64,1.67-.19,5.86-.62,10.43,1.25,3.19,1.3,5.23,3.18,6.02,3.92,12.48,11.68,18.73,17.52,25.88,27.48,14.47,20.14,33.63,12.63,59.6,32.18,21.89,16.48,17.5,28.76,33.45,44.39,43.38,42.47,131.42,6.19,135.95,21.43,2.95,9.96-33.82,28.11-64,43-5.18,2.55-14.08,6.73-26,7-10.29.23-18.09-2.56-22-4-26.03-9.58-53.26-21.45-59.18-23.93Z"/><path class="cls-4" d="M2005.89,722.11c14.06-5.97,30.52-15.45,30.01-30.72-.17-5.22-2.47-10.4-1.41-15.51,2.01-9.69,16.94-11.87,25.06-14.25,31.01-9.09,28.35-30.7,62.05-49.15,24.06-13.16,28.98-4.1,63-18,0,0,24.57-10.04,52-31,37.76-28.85,82.58-93.77,113-184-134.05,61.52-238.65,108.1-332.69,147.95-24.17,10.24-100.98,50.23-147.74,115.43-19.83,27.65-33.57,65.31-17.17,95.13,3.38,6.15,7.91,11.63,11.13,17.87,8.25,15.93-.3,53.57,14.57,57.15,18.28,4.4,28.58-12.87,32.92-26.58,5.63-17.78,8.08-25.76,25.94-34.8,22.26-11.26,46.35-19.79,69.32-29.53Z"/><path class="cls-3" d="M487.34,476.22c-.39,5.14-1.57,10.7-1.57,10.7-.51,3.07-1.18,4.9-1.21,5-.41,1.44-4.45,51.77,47.03,99.56,30.11,27.95,53.39,31.05,56,53,.81,6.78-.99,10.09-1.25,31.79-.16,13.2,1.42,23.16.93,32.68-1.78,34.6-3.91,80.8,8.04,116.5,7.18-12.36,40.2-25.32,47.65-38.91,33-60.23,80.12-64.75,87.02-68.81,95.88-56.52,336.04,150.16,335.62,150.76-.16.23-41.36-24.6-82-64-18.3-17.75-22.81-25.18-40-43-19.53-20.24-49.23-47.46-92-75-13.21-11.91-26.55-24.24-40-37-10.96-10.4-21.62-20.73-32-31-11.89-10.47-22.52-17.52-30-22-14.25-8.55-59.07-32.98-63.33-35.44-2.17-1.26-3.71-2.52-4.28-3.03-1.31-1.17-2.2-2.12-2.3-2.23-4.29-4.65-73.58-29.11-95.09-62.31-5.04-7.79-.01-4.56-9.03-28.29,0,0-16.59-50.03-53.97-75.68-2.01-1.38-9.43-5.59-12.45-5.62-6.25-.06-8.9,1.81-11.98,1.53-14.21-1.3-21.61-61.58-19.58-61.94,3.17-.56,16.65,23.04,9,37-3.18,5.81-7.2,4.72-12,10-16.02,17.64.57,60.87,3,67,0,0,10.63,27.26,9.74,38.74Z"/></g></g></svg>