<svg width="1684" height="354" viewBox="0 0 1684 354" fill="none" xmlns="http://www.w3.org/2000/svg">
<path opacity="0.45" d="M1543 233C1486.91 229.13 1480.1 196.14 1432 190C1389.22 184.54 1380.58 208.85 1311.27 229.48C1289.97 235.82 1273.1 239.18 1258.21 240.99C1204.87 247.46 1168.72 247.68 1143.34 248C1107.32 248.45 1056.14 254.32 992 279C995.34 284.32 1001 291.81 1010 298C1024.41 307.91 1041.82 310.66 1070 308C1112.08 304.03 1117.66 293.74 1145.54 290.63C1189.84 285.68 1193.05 312.53 1246 313C1294.62 313.43 1300.69 297.11 1354.84 297.62C1403.53 298.08 1443.7 311.91 1449.1 313.52C1474.87 321.22 1499.29 332.8 1524.48 342.22C1540.98 348.39 1558.21 353.71 1575.82 353.21C1614.92 352.1 1642.69 331 1650.34 324.59C1668.79 309.13 1678.67 291.53 1683.76 280.28C1672.14 263.39 1652.65 241.09 1622.99 232C1592.85 222.77 1579.36 235.51 1542.99 233H1543Z" fill="#EAEAEA"/>
<path opacity="0.45" d="M31.9298 2.20945C76.9698 -3.21055 116.96 21.6395 160.9 30.4195C202.8 38.7994 247.73 32.2295 289.32 23.1095C330.91 13.9895 372.03 2.24945 415.51 0.189453C362.24 36.2295 282.08 54.8594 249.89 101.559C243.54 110.769 239.41 120.719 232.03 129.549C217.59 146.809 191.73 158.269 164.44 164.239C137.15 170.209 108.22 171.269 79.6498 171.909C68.9598 172.149 56.9998 172.009 49.3698 166.769C40.8298 160.899 41.4498 151.259 43.5098 143.009C46.5698 130.769 51.4698 118.649 51.4698 106.229C51.4698 93.8094 45.5798 80.5695 31.2498 73.2394C15.5398 65.1994 -4.61017 66.4494 -22.0802 61.7394C-33.5902 58.6395 -60.1702 46.4795 -60.0002 36.2695C-59.7502 20.8495 14.5298 4.27945 31.9298 2.20945Z" fill="#EAEAEA"/>
</svg>
