<svg width="1256" height="252" viewBox="0 0 1256 252" fill="none" xmlns="http://www.w3.org/2000/svg">
<path opacity="0.45" d="M1222.98 5.62934C1270.44 0.889341 1283.74 -15.2307 1305 -3.00066C1312.99 1.59934 1317.45 7.51934 1339 42.9993C1352.13 64.6193 1363.01 83.0493 1371.08 96.9093C1355.34 99.3793 1331.23 103.059 1306.72 117.759C1299.16 122.299 1293.54 127.479 1285.1 130.139C1251.94 140.559 1222.95 121.939 1187.57 127.919C1174.08 130.199 1170.15 133.919 1147.77 139.809C1125.39 145.699 1091.35 147.449 1059.23 144.499C1024.27 141.289 975.56 142.629 943.06 115.339C939.51 112.359 916.18 92.4493 922.7 82.4093C931.46 68.9093 968.23 83.5993 1005.12 57.9393C1014.94 51.1093 1020.49 44.1393 1037.99 34.0093C1048.47 27.9393 1059.57 22.8593 1067.84 19.0693C1067.84 19.0693 1081.82 12.6693 1093.03 8.28934C1126.75 -4.88066 1167.63 11.1593 1222.97 5.63934L1222.98 5.62934Z" fill="#EAEAEA"/>
<path opacity="0.45" d="M382.19 191.471C351.87 200.231 325 217.901 296.05 230.471C273.63 240.211 249.9 246.901 225.69 250.301C219.85 251.121 213.88 251.751 208.1 250.621C198.92 248.841 191.21 242.901 182.9 238.611C157.75 225.611 127.67 227.921 99.6698 232.071C66.4298 237.001 33.5598 244.081 0.70983 251.151C-0.55017 243.091 7.52983 236.831 14.9598 233.481C35.0098 224.421 58.1998 221.561 75.5098 207.981C84.0698 201.271 90.7398 192.231 99.9398 186.431C105.38 183.001 111.52 180.831 117.72 179.121C143.32 172.041 170.28 172.351 196.69 169.581C223.1 166.811 250.5 160.261 270.09 142.331C275.11 137.741 279.57 132.431 285.32 128.781C289.86 125.891 295.04 124.151 300.25 122.801C325.24 116.331 352.41 118.591 375.99 129.101C392.91 136.641 408.06 148.271 425.88 153.361C431.58 154.991 521.16 165.561 490.68 187.131C482.26 193.091 448.96 184.471 437.98 184.441C419.17 184.381 400.29 186.231 382.17 191.471H382.19Z" fill="#EAEAEA"/>
</svg>
