<svg width="1929" height="744" viewBox="0 0 1929 744" fill="none" xmlns="http://www.w3.org/2000/svg">
<path d="M2096 0H-200V592.53H2096V0Z" fill="url(#paint0_linear_65_4)"/>
<path d="M185 455.009C185.51 457.399 182.37 460.279 182.16 461.699C181.92 463.289 184.53 464.069 184 465.999C174.49 467.739 178.97 461.569 182.43 456.899C183.26 455.779 182.41 454.409 185.01 455.009H185Z" fill="#16043A"/>
<path d="M1465.99 547.009C1465.48 549.399 1468.62 552.279 1468.83 553.699C1469.07 555.289 1466.46 556.069 1466.99 557.999C1476.5 559.739 1472.02 553.569 1468.56 548.899C1467.73 547.779 1468.58 546.409 1465.98 547.009H1465.99Z" fill="#16043A"/>
<path d="M105.16 514.141C135.42 518.491 165.02 526.531 195.16 531.691C239.83 539.331 285.31 540.561 330.61 541.771C464.54 545.361 598.46 548.941 732.39 552.531C847.72 555.621 963.06 558.711 1078.39 561.801C1162.17 564.041 1245.95 566.291 1329.73 568.531C1344.78 568.931 1361.13 568.941 1373.12 559.831C1385.16 550.681 1389.5 534.851 1397.48 522.001C1425.74 476.491 1490.68 476.451 1544.06 480.981C1700 494.211 1856.52 500.571 2013.02 500.031C2004.42 607.171 1996.59 697.131 1991.01 771.011C1989.83 786.711 1987.73 815.131 1968.01 840.011C1935.55 880.961 1877.19 884.731 1852.01 886.011C1631.83 897.211 895.85 902.811 735.63 906.221C735.63 906.221 305.77 915.371 39.0099 872.011C21.6399 869.191 -23.4001 858.941 -61.9901 849.011C-99.0801 839.461 -102.18 837.421 -104.99 835.011C-127.13 816.031 -116.21 787.341 -106.15 650.801C-103.91 620.401 -97.2701 590.491 -92.8401 560.331C-89.4101 537.021 -90.5901 521.731 -65.5801 516.891C-38.2601 511.601 -8.40008 511.181 19.3599 510.261C47.9599 509.301 76.9999 515.221 105.17 514.161L105.16 514.141Z" fill="#16043A"/>
<path d="M686.58 589.479C688.44 582.159 693.88 572.519 710.18 563.279C728.51 553.929 746.85 544.579 765.18 535.229C767.24 540.649 769.3 546.069 771.35 551.489C780.58 544.649 789.81 537.809 799.04 530.969C818.04 527.209 837.05 523.449 856.05 519.689C874.09 527.499 878.74 535.219 879.46 540.999C880.84 551.959 868.9 561.879 872.26 566.149C874.54 569.039 881.84 566.719 884.29 566.039C910.98 558.549 938.25 553.099 965.77 549.749C976.01 548.499 986.46 547.549 996.59 549.509C1005.82 551.289 1014.42 555.409 1023.39 558.249C1039.27 563.279 1056.11 564.249 1072.74 565.169C1109.97 567.239 1147.52 569.299 1184.36 563.549C1195.51 561.809 1206.71 559.349 1217.95 560.249C1231.76 561.359 1244.59 567.429 1257.63 572.119C1288.74 583.299 1322.6 586.779 1355.33 582.159C1275.88 611.989 1195.74 639.959 1114.98 666.029C1071.43 680.089 1027.44 693.659 982.06 699.569C913.36 708.519 843.72 699.649 775 690.789C746.25 687.079 716.25 682.909 692.48 666.319C686.07 661.839 679.2 656.779 678.45 649.459C677.73 642.449 682.94 639.179 686.61 630.979C693.86 614.759 682.68 604.749 686.56 589.459L686.58 589.479Z" fill="#16043A"/>
<path d="M-53.0002 613.999C-53.5702 608.899 -48.8402 608.769 -47.0002 604.019L-54.0002 602.009L-54.5202 604.989L-56.5102 602.959L-61.0002 604.999V601.989L-65.0002 602.999C-66.9402 599.989 -64.1002 596.939 -64.2302 595.669C-64.2902 595.079 -65.3202 594.369 -65.4802 593.489C-65.6802 592.389 -64.6502 591.299 -65.4802 589.979C-66.3402 588.619 -67.9202 590.239 -68.7302 589.759C-69.0202 589.589 -68.9802 588.129 -69.6802 587.969C-72.4502 587.319 -75.6202 590.579 -76.6402 585.999C-77.1002 583.919 -75.4502 583.389 -75.3602 582.319C-75.1702 580.299 -76.2002 577.859 -74.9902 575.499L-78.0202 574.979L-77.0202 571.989L-84.0202 575.469L-79.0102 568.469L-81.0002 566.989C-75.2502 563.119 -72.0802 570.579 -68.5202 562.999L-64.7202 565.879L-62.0202 564.959L-64.0002 562.989C-61.9702 562.369 -58.9902 561.509 -58.9902 558.999H-57.0002L-56.0102 560.989C-57.4602 557.809 -54.0602 556.679 -53.9902 556.289C-53.7002 554.739 -55.0102 552.779 -54.0102 550.989C-57.7402 549.989 -55.2302 554.839 -56.0202 555.979L-60.4502 553.909L-61.9402 556.519L-66.0002 555.989L-62.0102 557.989C-61.6702 559.899 -64.0302 558.379 -64.8502 559.169C-65.3502 559.649 -64.4502 561.459 -65.6502 562.009C-69.8002 563.929 -76.5202 561.539 -80.9902 562.979C-81.7302 560.059 -78.5402 560.969 -77.4602 559.029C-75.3702 555.269 -80.2202 556.759 -77.9902 553.989H-82.9902C-83.0502 550.679 -80.0202 549.439 -82.0102 545.989L-86.3702 550.909C-91.0102 547.979 -87.4902 546.649 -85.0002 543.989C-88.5502 542.439 -89.1802 544.789 -91.5002 546.969L-92.0002 543.959L-95.9902 544.959C-94.5802 541.039 -90.7002 541.639 -88.0002 539.449L-91.0302 534.469L-88.4602 531.909C-85.3502 534.369 -83.6102 533.339 -79.9902 532.959L-82.9902 529.979C-77.5302 531.729 -77.6602 524.499 -74.5302 523.899C-73.6102 523.719 -71.6802 523.469 -72.0002 524.959L-74.6002 525.939L-75.0002 527.959C-72.2802 528.829 -68.7202 526.729 -66.5302 526.979C-65.1202 527.139 -64.1702 528.579 -63.1902 528.769C-60.2902 529.339 -57.8502 526.629 -56.9702 531.969C-56.4402 532.359 -54.1502 528.899 -52.9902 529.969C-50.9902 531.819 -57.1502 532.209 -54.9802 533.959C-54.8602 534.059 -52.1602 534.049 -52.0302 533.939C-51.6502 530.749 -50.5702 526.669 -47.0702 525.839C-47.6102 523.459 -49.2902 521.839 -51.8502 522.059C-53.7902 529.179 -60.6502 526.839 -64.4902 522.969L-65.4102 524.909L-68.8502 523.849C-71.2802 521.219 -64.3902 512.279 -64.9802 519.969L-60.9902 518.459C-63.4702 517.009 -64.4802 513.939 -67.9802 514.959V513.979C-65.0002 514.359 -65.9902 510.419 -64.9802 508.339L-66.9802 505.979C-63.7602 505.849 -60.6902 507.429 -57.4302 507.069C-55.5302 506.859 -56.0502 504.959 -55.4102 504.939C-52.3402 504.799 -48.9902 509.669 -44.9902 508.969C-45.5302 504.589 -48.9902 502.669 -46.9702 497.969L-40.4802 503.989L-37.9902 502.459L-39.9802 499.969L-35.9202 500.399L-34.9702 504.339L-33.0002 504.959C-32.7802 500.999 -30.4602 502.939 -28.9502 502.319C-26.2602 501.219 -22.8002 497.759 -19.9902 500.969V496.969L-28.9702 495.979C-24.6702 495.009 -17.7502 494.739 -15.4002 490.929L-11.9702 491.959L-16.6002 487.039L-20.9602 490.959L-21.9502 484.989L-18.9602 484.959L-20.0602 481.059L-29.9702 482.969V479.959L-33.9702 480.959C-34.5802 477.809 -29.7902 478.989 -30.9902 475.479C-31.8902 472.849 -34.9002 475.859 -35.9702 474.479L-31.9802 469.469C-30.6802 467.429 -37.2302 468.799 -34.0002 466.449C-31.4802 464.619 -29.2202 466.299 -27.6902 465.959C-27.0602 465.819 -26.4002 462.929 -23.9802 463.949C-25.1102 460.559 -25.4902 456.749 -22.9802 453.969L-25.9902 451.969C-19.1002 453.989 -18.3102 441.619 -14.5702 447.879C-12.6702 446.669 -8.09023 446.209 -7.00024 448.469C-18.0702 453.669 -5.53024 453.769 -4.93024 450.259C-4.59024 448.259 -6.47024 446.069 -3.98024 443.479L-6.99023 439.959C-5.04024 439.929 -1.86024 440.589 -1.11024 438.339L-1.00024 434.949C-6.82024 436.419 -6.96024 432.559 -2.99023 428.959L-6.01024 428.429L-4.99023 424.949H-9.99023C-10.4902 421.999 -7.50024 418.939 -10.4902 416.959C-12.4702 419.999 -14.7902 419.639 -17.9902 419.929L-12.9902 413.949L-18.9802 413.439C-14.9902 413.199 -14.8902 409.229 -11.9802 407.459C-13.1002 405.349 -13.2902 404.499 -15.9902 404.929C-14.0402 403.709 -15.1702 401.069 -14.9902 400.939C-14.4602 400.579 -12.0302 402.629 -10.9902 400.429L-16.9802 398.439L-12.4102 395.889L-10.5602 397.829L-5.99023 396.929C-4.94023 392.579 -11.2102 396.189 -10.0002 393.449C-9.64024 392.629 -4.68024 390.119 -5.98024 385.939L-2.48024 390.929L2.48976 387.939L2.00977 392.929C4.74976 389.689 11.8998 393.609 9.52976 387.899L4.00977 387.919C2.85976 381.229 9.27976 383.219 12.8498 379.789L11.0198 376.419L16.4998 371.919C22.8598 381.019 27.1098 374.059 34.4898 373.909L35.0098 377.919L45.3298 376.019C48.1098 376.859 47.3898 381.459 48.4898 382.929C49.5898 384.399 52.9398 383.859 54.3698 384.819C55.6698 385.689 54.8398 388.749 56.9798 388.919C57.7998 383.789 63.2498 385.989 66.9898 385.909L62.9998 383.909L66.0098 382.409L62.9998 377.929L65.9298 377.879L65.9998 373.919L69.9898 374.929L69.1098 370.079L76.6698 366.209C77.2198 366.169 85.6298 371.039 85.9998 371.449C87.0198 372.549 86.6998 374.109 87.1598 374.729C87.3498 374.999 89.3698 373.799 89.9898 375.439C90.2998 376.209 79.8698 379.269 81.9998 382.929L85.9798 380.929L85.9998 386.929L88.9798 385.929L87.9898 389.919L95.9798 388.939C96.3298 385.999 95.9798 382.009 99.0098 380.489C102.99 378.489 105.88 380.609 106.92 373.379L115.42 370.869L117.99 374.449L115.98 376.429L118.98 375.939L115.99 379.929H121.98C122.43 380.329 116.57 388.919 120.5 390.929C124.67 387.939 128.69 386.459 133.98 386.939L125.99 391.419C126.89 393.829 134.54 389.849 135.48 394.919C138.67 390.729 140.8 390.159 145.72 389.149C146.66 388.959 147.86 386.869 148.97 389.439C150.08 392.009 145.49 390.369 145.98 391.419L153.97 398.909L149.97 400.439L151.97 403.899C147.05 404.059 150.93 408.489 148.74 410.709L144.1 410.979L142.9 414.339L144.96 417.919L141.98 415.919C141.95 417.259 141.8 418.679 142.45 419.939C143.34 421.679 145.93 421.159 145.97 422.909C142.12 422.689 143.56 426.189 138.98 423.929C139.4 427.489 142.58 426.429 143.97 428.899L140.38 432.869L130.98 429.929V433.919C133.34 433.809 137.22 433.309 136.97 436.919L131.98 436.939L133.97 439.909C130.49 440.179 131.82 445.079 127.98 446.919C130.58 445.019 134.93 447.669 135.5 447.659C136.54 447.639 140.11 442.569 142.28 441.649C147.29 439.529 146.72 446.589 147.01 446.889C147.65 447.559 151.2 445.809 150.97 447.919L145.95 448.409L145 451.409C148.03 452.919 150.7 456.399 153.98 454.939L150.97 461.419L153.98 463.929C152.76 464.189 147.49 462.569 149.1 466.319C150.71 470.069 161.09 471.449 164.98 470.939C164.87 474.339 161.52 471.949 164 476.939C166.59 477.219 169.01 473.299 169.5 473.149C170.12 472.959 175.68 473.389 176.62 473.739C178.71 474.519 177.27 476.679 179.99 475.929L180.12 473.119C185.22 471.129 186.65 473.009 190.5 475.909C192.29 471.689 195.53 472.529 198.5 469.939L201.68 473.799L206.99 472.929L204.96 469.439C207.53 468.619 207.2 467.479 206.99 464.929L214.99 465.929L213.99 462.939L220.52 460.949C222.66 464.029 217.2 462.329 217 464.919L226.98 463.919C227.5 465.849 227.87 467.759 228.28 469.689C228.42 470.359 227.02 471.239 229.49 470.919L235.47 465.319L241 467.939L241.47 463.829C244.14 464.129 245.81 459.149 246.01 463.929L247.53 462.939L247 459.939C249.68 458.859 249.63 464.599 252 462.919C252.1 462.849 251.37 461.599 251.68 460.959C252.47 459.319 253.86 457.979 254.1 456.029C258.32 457.679 265.93 451.829 264.49 458.919C268.99 456.509 273.94 452.379 279 453.939L277.99 455.919L281.48 454.929C283.98 455.239 280.63 460.159 283.48 458.919C285.14 458.189 286.07 455.709 286.04 453.959C291.45 452.779 290.75 457.629 291.03 457.879C291.73 458.519 302.73 454.879 303.5 452.939C305.06 455.799 307.65 457.569 311 457.909L308.18 455.749L308.98 453.969C306.18 454.199 305.69 452.779 304.33 450.849L297 452.909C297.41 451.739 300.76 449.549 301.68 449.219C303.8 448.479 305.73 451.319 306.42 447.979L316.99 451.939L313 453.929L316 458.909L312 458.929C313.08 461.449 315.45 463.889 315.85 466.699C316.2 469.129 314.15 470.499 316.48 471.889L323.99 470.939L318 474.919L325.02 474.419L327.01 467.939L324 466.949L333.98 464.419C334.74 462.469 325.01 458.989 332.99 458.929L331 457.939C330.64 455.299 331.34 453.499 333.5 451.939L334 455.919C336.92 456.069 335.74 452.629 340 453.939L339.01 456.929L343 457.439L340.01 458.429L342.54 462.929C350.27 462.509 347.42 451.449 357.01 454.949L353.01 459.929L358.01 458.949C355.77 462.289 361.87 464.939 357.01 466.429L361 469.959L359.02 473.939L366.01 470.949L365.01 473.929L369.01 473.949L366.02 476.929L370.01 476.949L368.01 479.929L373 478.939L372.01 482.929C376.98 481.409 376.59 487.569 381.01 486.949L380.5 490.929C385.88 489.269 384.97 483.789 392.01 486.929L390.23 484.439L392.01 481.949C386.24 481.979 387.94 475.709 385.01 471.949C389.51 472.579 390.25 468.909 392.74 466.959C394.92 465.249 399.13 464.769 400.97 460.439L398.03 457.439C398.05 456.449 407.6 452.619 407.01 448.459C406.54 445.099 403.05 450.579 402.03 447.439C405.63 446.009 402.7 440.219 403.01 439.949C403.21 439.769 404.59 440.249 405.16 439.859C406.06 439.239 406.14 437.999 406.7 437.919C408.07 437.729 409.68 439.719 411 437.429L409.01 435.449L413.01 433.939L412.01 429.959C415.04 430.059 417.77 431.559 420.55 432.399C425.22 433.789 422.43 432.979 425.16 434.739C425.43 434.909 429.2 433.479 430.52 436.939L432.01 433.949C436.34 435.159 436.65 435.919 441.01 433.959L440.02 436.949L444.01 435.959L442.02 441.929C444.49 442.629 445.29 444.149 448.02 442.949C445.82 441.119 451.44 433.559 452.69 433.129C456.54 431.819 463.15 433.409 465.32 432.839C467.49 432.269 467.65 429.089 469.5 428.379C474.24 426.549 478.06 430.589 480.53 433.959L482.52 430.979C484.57 433.559 486.48 433.559 488.53 430.979L493.02 441.469L490.03 441.999C491.18 444.249 488.98 448.149 490.47 450.039C491.5 451.349 495.13 449.889 494.03 453.969L499.02 451.969L502.02 454.969L498.03 455.969L501.03 456.959C501.59 458.739 499.53 459.299 499.28 460.579C498.99 462.069 500.49 464.239 500.05 466.299C499.89 467.029 498.04 466.939 497.96 467.549C497.65 469.799 500.89 473.059 500.03 475.959L507.01 474.949L507.08 477.919L512.02 477.959L510.02 478.959L511.52 480.929C514.96 475.669 521.11 479.489 526.01 479.959L523.01 480.959L524.99 486.449C523.58 488.619 522.97 487.369 521.01 486.949L523 493.939C520.1 494.549 518.5 494.769 516.01 492.949L517.01 496.939L514 497.439C515.59 498.969 517.96 500.429 516.54 502.939C515.31 505.299 507.98 504.169 507.98 508.939L506.98 506.429L505.02 505.969C502.79 509.109 502.57 510.879 502.99 514.949C511.61 512.479 510.81 519.019 512.97 520.529C513.21 520.699 518.59 520.869 518.83 520.699C519.31 520.349 519.23 518.739 520.6 518.179C521.43 517.839 523.71 518.909 524.83 517.769C527.01 513.199 524.36 512.989 524.28 512.689C523.86 511.189 525.12 509.759 523.01 507.949L533.49 504.919C535.37 507.269 529.92 507.589 531.01 510.929C533.02 511.279 533.65 509.159 535.56 508.909C538.93 508.469 544.96 509.659 543.02 513.929L548.56 509.939L549.5 511.939L555.51 508.949C557.19 517.129 568.13 511.519 574 510.929V513.939L577 512.919C577.68 516.479 579.51 518.089 578 521.929C584.32 524.399 585.21 518.719 591.01 520.939C591.63 525.629 585.16 521.659 584.01 524.919L590.02 524.939L589.12 527.349L590.58 528.849L597.02 528.949C597.28 529.309 596.45 531.879 596.09 532.329C594.93 533.759 592.26 531.719 593.02 534.939C597.43 536.339 597.48 532.139 599.73 531.169C603.04 529.739 607.95 529.709 611.5 528.929L611.42 532.989C613.47 534.069 615.97 534.079 616.03 536.939H616.99C616.7 534.419 620.02 534.239 622 533.949C622.38 535.719 620.83 536.139 620.35 537.639C619.39 540.629 619.5 539.409 618.96 540.639C618.08 542.649 619.86 543.619 617.01 544.419L619.02 547.459L617.01 548.389L619.52 552.929C621.9 553.529 622.2 549.459 622.04 547.969C626.9 547.819 628.84 549.589 633.31 546.929C634.99 545.929 633.12 543.239 638.85 547.099L638.01 548.929C643.64 547.229 648.87 555.269 653.01 549.949C649.53 549.839 648.36 547.389 646.51 544.959L643.5 546.939C643.67 541.049 648.09 545.719 649.52 540.939L650 542.929C652.92 541.959 657.89 541.969 658 545.929L655.02 546.419C659.23 548.459 661.11 550.069 662.99 554.439L659.02 554.939C659.56 557.909 659.37 560.769 663.01 559.949L661.01 560.949L662.52 562.929C665.83 563.799 666.01 560.039 667.01 557.949L662.02 556.949C664.85 554.889 668.39 557.939 669.34 557.799C670.29 557.659 671.28 556.079 672.33 555.729C674.7 554.939 676.53 556.149 677.51 552.939C680.57 556.519 684.03 559.619 686.52 553.939L687.52 555.959L689.45 555.939L693.52 549.939L695 551.929C694.63 548.949 699.73 549.469 702.02 548.949C699.86 551.809 700.32 553.639 701.02 556.929L698.51 553.919L695.03 555.429L699.03 558.919L694.04 556.929C693.64 560.989 697.36 559.099 695.12 563.839L697.02 564.919C694.39 565.009 690.58 562.159 689.03 565.919C695.32 566.259 698.81 568.479 702.02 561.419L700.03 559.939C702.8 559.999 705.63 559.619 708.22 558.629C710.42 557.789 715.57 552.219 715.01 556.929L713.02 557.419L715.03 560.929L710.04 558.939L712.07 563.429C708.36 564.339 712.07 566.209 709.49 567.909L707.04 566.939L708.03 569.929L704.04 568.939L701.63 578.949C699.26 580.879 696.79 580.419 694.04 579.939C693.62 581.599 695.75 580.349 696.06 581.599C696.32 582.629 695.96 583.849 696.04 584.919L700.01 582.919L702.02 585.919L701.03 581.929L710.02 579.919L707.01 582.929L708.03 584.919L704.03 583.939L706.02 586.919L703.96 587.479L705.08 590.379L703.03 591.919C704.95 591.999 707.03 592.079 708.81 591.209C712.5 589.399 709.46 585.199 714.02 590.929C713.19 588.019 714.95 586.009 717.55 584.939C720.15 583.869 717.85 589.709 718.03 589.919C722.13 590.519 719.8 586.199 720.02 585.959C721.45 584.419 727.21 585.519 729.02 586.939C728.78 588.919 724.45 589.889 723.92 590.569C723.15 591.559 724.17 594.969 722.03 596.449L719.52 594.939L720.02 602.929L727.53 601.229L730 603.439L726 610.939L723.02 608.939L724.01 611.929C719.11 610.239 715.07 613.199 710.07 613.419C709.69 613.439 702.83 612.869 702.47 612.749C701.6 612.439 702.85 610.469 700.52 610.939C699.51 614.779 696.34 612.319 693.49 612.469C688.9 612.709 673.12 613.949 669.76 612.869C668.88 612.589 669.01 611.149 668.35 610.959C667.69 610.769 658.56 613.769 655.5 613.749C653.17 613.739 650.07 612.719 648.5 610.949L647.51 612.949L645.49 609.949L645 612.949C640.59 612.969 635.93 613.949 631.55 614.009C618.92 614.159 606.17 613.159 593.48 613.069C587.44 613.029 580.96 614.599 574.44 614.029C568.77 613.529 563.89 613.199 557.5 613.349C547.87 613.569 537.03 612.609 527.38 613.839C522.41 614.479 523.53 612.439 521.78 611.649C517.32 609.629 518.42 612.529 517.25 612.889C508.35 615.639 494.34 611.919 485.48 612.149C473.58 612.459 461.17 613.819 449.43 613.979C440.33 614.099 429 614.149 421.2 611.049C417.83 609.709 405.88 617.169 402.52 612.129L384.71 613.779L381.48 610.949C380.56 614.129 376.64 613.929 373.48 614.029C339.47 615.069 304.59 612.639 271.53 612.499C267.49 612.479 263.75 613.659 259.49 611.939L259.47 613.969C252.97 611.999 246.11 614.059 239.46 614.009C236.86 613.989 234.59 613.189 232.48 613.149C173.22 612.209 112.39 615.209 52.4498 614.029L48.9898 610.949L49.4698 613.949L46.4798 610.949L43.3598 613.589L-24.5102 613.969L-25.0202 610.949L-30.1302 612.509L-34.5102 608.939L-35.0202 613.949H-53.0202L-53.0002 613.999ZM162.01 473.009L152.01 472.009C151.16 474.929 154.26 473.669 154.86 475.649C155.81 478.789 153.95 479.779 158.51 481.999L159.17 479.149L162.01 478.999V473.019V473.009ZM469.26 474.719C468.55 473.759 469.82 471.689 468.01 472.009L466.99 474.519L463 472.999C463.35 475.249 462.87 475.689 461 476.489C462.27 478.599 464.79 477.479 466.27 478.059C466.58 478.179 470.23 481.679 472 479.989C474.25 477.839 469.72 475.319 469.26 474.709V474.719ZM-12.0102 508.989C-9.98024 506.819 -21.2502 500.049 -24.0002 502.009L-20.0102 504.999L-25.0002 504.009L-22.9902 505.499L-26.0102 505.999C-26.7402 509.289 -20.4602 508.319 -18.5102 509.019L-17.5202 506.009C-16.0802 505.689 -12.9402 509.979 -12.0102 508.989ZM-18.0102 511.009L-25.4002 509.029L-29.9902 516.489C-26.6802 520.379 -26.2902 516.609 -25.2502 516.059C-19.3702 512.969 -22.4002 513.579 -20.8502 512.189C-19.9902 511.419 -17.6802 512.919 -18.0102 511.009ZM-37.6402 515.629C-38.2402 514.599 -37.7202 512.939 -38.4902 513.019L-47.0102 516.019C-45.1802 520.689 -43.1402 514.299 -41.0302 517.509L-42.4802 519.829L-45.0102 519.019C-43.3202 521.849 -44.5402 523.489 -46.0102 525.999C-40.2602 526.499 -37.0302 526.449 -34.3602 520.919L-30.0202 522.009C-30.4102 517.509 -33.7602 517.839 -37.0102 519.009C-34.8702 515.469 -37.1702 516.459 -37.6502 515.639L-37.6402 515.629ZM-82.9902 537.989L-83.4902 535.979L-86.0102 536.999L-83.9902 542.999L-79.0102 541.999L-80.0102 535.999L-82.9902 537.989ZM-43.0002 538.009C-53.9502 537.229 -49.6202 545.949 -42.0002 544.989L-44.0102 543.379L-43.0002 538.009ZM443.7 544.309C441.22 542.239 438.78 543.689 436 544.009L438.99 546.989L435 548.999L440.09 547.509L441.48 544.999L445.99 549.989C446.21 548.309 444.88 545.299 443.7 544.309ZM605 564.009L600.01 563.429L597.04 568.509L603.02 569.509L602.01 567.499L605 564.009ZM-55.9102 579.929C-56.4102 578.069 -57.5402 575.709 -59.9902 575.999L-58.8502 581.849C-55.3802 582.549 -53.8702 582.509 -53.0002 579.009L-55.9102 579.929ZM711 596.989L701 593.009L703.67 598.049L711 596.989Z" fill="#16043A"/>
<path d="M1685.98 706L1685.47 700.99L1681.09 704.56L1675.98 703L1675.47 706.02L1607.6 705.64L1604.48 703L1601.49 706L1601.97 703L1598.51 706.08C1538.56 707.26 1477.74 704.26 1418.48 705.2C1416.37 705.23 1414.1 706.04 1411.5 706.06C1404.85 706.11 1397.99 704.05 1391.49 706.02L1391.47 703.99C1387.22 705.71 1383.47 704.53 1379.43 704.55C1346.37 704.69 1311.49 707.12 1277.48 706.08C1274.32 705.98 1270.4 706.18 1269.48 703L1266.25 705.83L1248.44 704.18C1245.08 709.22 1233.13 701.76 1229.76 703.1C1221.96 706.2 1210.63 706.15 1201.53 706.03C1189.8 705.87 1177.39 704.51 1165.48 704.2C1156.62 703.97 1142.61 707.69 1133.71 704.94C1132.54 704.58 1133.64 701.67 1129.18 703.7C1127.43 704.49 1128.54 706.52 1123.58 705.89C1113.94 704.65 1103.09 705.62 1093.46 705.4C1087.07 705.26 1082.19 705.58 1076.52 706.08C1070.01 706.65 1063.52 705.08 1057.48 705.12C1044.8 705.21 1032.04 706.21 1019.41 706.06C1015.03 706.01 1010.37 705.02 1005.96 705L1005.47 702L1003.45 705L1002.46 703C1000.89 704.77 997.79 705.79 995.46 705.8C992.4 705.82 983.27 702.82 982.61 703.01C981.95 703.2 982.08 704.64 981.2 704.92C977.85 706 962.07 704.75 957.47 704.52C954.62 704.37 951.45 706.83 950.44 702.99C948.11 702.52 949.35 704.5 948.49 704.8C948.13 704.93 941.27 705.49 940.89 705.47C935.89 705.25 931.85 702.3 926.95 703.98L927.94 700.99L924.96 702.99L920.96 695.49L923.43 693.28L930.94 694.98L931.44 686.99L928.93 688.5C926.79 687.02 927.82 683.61 927.04 682.62C926.51 681.94 922.17 680.98 921.94 678.99C923.75 677.57 929.51 676.47 930.94 678.01C931.16 678.25 928.83 682.57 932.93 681.97C933.11 681.76 930.7 675.88 933.41 676.99C936 678.05 937.76 680.06 936.94 682.98C941.5 677.25 938.46 681.45 942.15 683.26C943.93 684.13 946.01 684.05 947.93 683.97L945.88 682.43L947 679.53L944.94 678.97L946.93 675.99L942.93 676.97L943.95 674.98L940.94 671.97L949.93 673.98L948.94 677.97L950.95 674.97L954.92 676.97C954.99 675.9 954.64 674.67 954.9 673.65C955.21 672.39 957.34 673.65 956.92 671.99C954.17 672.47 951.7 672.93 949.33 671L946.92 660.99L942.93 661.98L943.92 658.99L941.47 659.96C938.89 658.26 942.6 656.39 938.89 655.48L940.92 650.99L935.93 652.98L937.94 649.47L935.95 648.98C935.39 644.27 940.54 649.84 942.74 650.68C945.33 651.68 948.17 652.05 950.93 651.99L948.94 653.47C952.15 660.53 955.64 658.31 961.93 657.97C960.37 654.21 956.57 657.06 953.94 656.97L955.84 655.89C953.6 651.15 957.33 653.04 956.92 648.98L951.93 650.97L955.93 647.48L952.45 645.97L949.94 648.98C950.64 645.69 951.1 643.85 948.94 641C951.23 641.52 956.32 641 955.96 643.98L957.44 641.99L961.51 647.99L963.44 648.01L964.44 645.99C966.93 651.67 970.39 648.57 973.45 644.99C974.43 648.2 976.26 646.99 978.63 647.78C979.68 648.13 980.71 649.71 981.62 649.85C982.53 649.99 986.1 646.94 988.94 649L983.95 650C984.95 652.09 985.12 655.85 988.44 654.98L989.95 653L987.95 652C991.59 652.82 991.4 649.96 991.94 646.99L987.97 646.49C989.85 642.12 991.73 640.51 995.94 638.47L992.96 637.98C993.08 634.01 998.05 634 1000.96 634.98L1001.44 632.99C1002.86 637.77 1007.29 633.1 1007.46 638.99L1004.45 637.01C1002.6 639.45 1001.43 641.89 997.95 642C1002.09 647.32 1007.33 639.28 1012.95 640.98L1012.11 639.15C1017.84 635.28 1015.97 637.98 1017.65 638.98C1022.12 641.64 1024.05 639.88 1028.92 640.02C1028.76 641.51 1029.06 645.58 1031.44 644.98L1033.95 640.44L1031.94 639.51L1033.95 636.47C1031.09 635.67 1032.88 634.7 1032 632.69C1031.46 631.46 1031.57 632.68 1030.61 629.69C1030.13 628.19 1028.58 627.76 1028.96 626C1030.94 626.29 1034.27 626.48 1033.97 628.98H1034.93C1034.99 626.13 1037.5 626.13 1039.54 625.04L1039.46 620.98C1043.01 621.76 1047.92 621.79 1051.23 623.22C1053.48 624.19 1053.53 628.39 1057.94 626.99C1058.7 623.77 1056.03 625.81 1054.87 624.38C1054.51 623.93 1053.68 621.37 1053.94 621L1060.38 620.9L1061.84 619.4L1060.94 616.99L1066.95 616.97C1065.8 613.71 1059.32 617.68 1059.95 612.99C1065.75 610.76 1066.64 616.45 1072.96 613.98C1071.45 610.14 1073.28 608.53 1073.96 604.97L1076.94 605.99V602.98C1082.82 603.56 1093.76 609.17 1095.44 601L1101.45 603.99L1102.39 601.99L1107.93 605.98C1105.98 601.71 1112.02 600.51 1115.39 600.96C1117.3 601.21 1117.93 603.33 1119.94 602.98C1121.03 599.64 1115.58 599.32 1117.46 596.97L1127.94 600C1125.83 601.81 1127.08 603.23 1126.67 604.74C1126.59 605.04 1123.94 605.25 1126.12 609.82C1127.24 610.96 1129.52 609.89 1130.35 610.23C1131.72 610.79 1131.64 612.41 1132.12 612.75C1132.36 612.92 1137.74 612.75 1137.98 612.58C1140.14 611.06 1139.34 604.52 1147.96 607C1148.38 602.93 1148.17 601.15 1145.93 598.02L1143.97 598.48L1142.97 600.99C1142.97 596.23 1135.63 597.35 1134.41 594.99C1132.98 592.48 1135.36 591.02 1136.95 589.49L1133.94 588.99L1134.94 585C1132.45 586.82 1130.85 586.6 1127.95 585.99L1129.94 579C1127.99 579.42 1127.37 580.66 1125.96 578.5L1127.94 573.01L1124.94 572.01C1129.84 571.54 1135.99 567.72 1139.43 572.98L1140.93 571.01L1138.93 570.01L1143.87 569.97L1143.94 567L1150.92 568.01C1150.06 565.11 1153.3 561.84 1152.99 559.6C1152.9 558.99 1151.05 559.08 1150.9 558.35C1150.46 556.3 1151.95 554.12 1151.67 552.63C1151.42 551.35 1149.36 550.79 1149.92 549.01L1152.92 548.02L1148.93 547.02L1151.93 544.02L1156.92 546.02C1155.83 541.94 1159.45 543.4 1160.48 542.09C1161.97 540.2 1159.77 536.3 1160.92 534.05L1157.93 533.52L1162.42 523.03C1164.47 525.61 1166.38 525.61 1168.43 523.03L1170.42 526.01C1172.88 522.64 1176.71 518.6 1181.45 520.43C1183.3 521.14 1183.5 524.33 1185.63 524.89C1187.76 525.45 1194.41 523.87 1198.26 525.18C1199.51 525.61 1205.14 533.17 1202.93 535C1205.65 536.2 1206.45 534.68 1208.93 533.98L1206.94 528.01L1210.93 529L1209.94 526.01C1214.3 527.97 1214.6 527.21 1218.94 526L1220.43 528.99C1221.75 525.53 1225.52 526.96 1225.79 526.79C1228.52 525.03 1225.73 525.84 1230.4 524.45C1233.19 523.62 1235.91 522.11 1238.94 522.01L1237.94 525.99L1241.94 527.5L1239.95 529.48C1241.27 531.77 1242.88 529.78 1244.25 529.97C1244.81 530.05 1244.9 531.29 1245.79 531.91C1246.36 532.3 1247.74 531.83 1247.94 532C1248.25 532.27 1245.32 538.07 1248.92 539.49C1247.9 542.63 1244.41 537.14 1243.94 540.51C1243.36 544.67 1252.9 548.5 1252.92 549.49L1249.98 552.49C1251.82 556.83 1256.02 557.3 1258.21 559.01C1260.69 560.95 1261.44 564.63 1265.94 564C1263.01 567.76 1264.72 574.03 1258.94 574L1260.72 576.49L1258.94 578.98C1265.98 575.84 1265.07 581.32 1270.45 582.98L1269.94 579C1274.37 579.62 1273.98 573.46 1278.94 574.98L1277.95 570.99L1282.94 571.98L1280.94 569L1284.93 568.98L1281.94 566L1285.94 565.98L1284.94 563L1291.93 565.99L1289.95 562.01L1293.94 558.48C1289.08 556.99 1295.17 554.34 1292.94 551L1297.94 551.98L1293.94 547C1303.53 543.51 1300.68 554.56 1308.41 554.98L1310.94 550.48L1307.95 549.49L1311.94 548.98L1310.95 545.99C1315.2 544.68 1314.02 548.12 1316.95 547.97L1317.45 543.99C1319.61 545.56 1320.3 547.35 1319.95 549.99L1317.96 550.98C1325.94 551.04 1316.21 554.52 1316.97 556.47L1326.95 559L1323.94 559.99L1325.93 566.47L1332.95 566.97L1326.96 562.99L1334.47 563.94C1336.8 562.56 1334.76 561.19 1335.1 558.75C1335.5 555.94 1337.87 553.51 1338.95 550.98L1334.95 550.96L1337.95 545.98L1333.96 543.99L1344.53 540.03C1345.22 543.37 1347.16 540.53 1349.27 541.27C1350.2 541.6 1353.54 543.79 1353.95 544.96L1346.62 542.9C1345.27 544.83 1344.77 546.26 1341.97 546.02L1342.77 547.8L1339.95 549.96C1343.3 549.62 1345.89 547.85 1347.45 544.99C1348.22 546.93 1359.22 550.58 1359.92 549.93C1360.2 549.67 1359.5 544.82 1364.91 546.01C1364.88 547.76 1365.81 550.24 1367.47 550.97C1370.32 552.21 1366.97 547.29 1369.47 546.98L1372.96 547.97L1371.95 545.99C1377.01 544.44 1381.96 548.57 1386.46 550.97C1385.03 543.88 1392.63 549.72 1396.85 548.08C1397.09 550.03 1398.48 551.37 1399.27 553.01C1399.58 553.65 1398.85 554.9 1398.95 554.97C1401.32 556.65 1401.27 550.9 1403.95 551.99L1403.42 554.99L1404.94 555.98C1405.14 551.2 1406.81 556.18 1409.48 555.88L1409.95 559.99L1415.48 557.37L1421.46 562.97C1423.92 563.29 1422.52 562.41 1422.67 561.74C1423.08 559.81 1423.45 557.9 1423.97 555.97L1433.95 556.97C1433.76 554.38 1428.29 556.07 1430.43 553L1436.96 554.99L1435.96 557.98L1443.96 556.98C1443.75 559.53 1443.42 560.67 1445.99 561.49L1443.96 564.98L1449.27 565.85L1452.45 561.99C1455.42 564.58 1458.66 563.74 1460.45 567.96C1464.3 565.06 1465.74 563.18 1470.83 565.17L1470.96 567.98C1473.68 568.72 1472.24 566.57 1474.33 565.79C1475.26 565.44 1480.83 565.01 1481.45 565.2C1481.93 565.35 1484.36 569.27 1486.95 568.99C1489.43 564 1486.08 566.39 1485.97 562.99C1489.86 563.5 1500.2 562.19 1501.85 558.37C1503.47 554.62 1498.19 556.25 1496.97 555.98L1499.98 553.47L1496.97 546.99C1500.24 548.45 1502.92 544.97 1505.95 543.46L1505 540.46L1499.98 539.97C1499.75 537.86 1503.3 539.61 1503.94 538.94C1504.23 538.64 1503.66 531.58 1508.67 533.7C1510.84 534.62 1514.41 539.68 1515.45 539.71C1516.01 539.72 1520.37 537.07 1522.97 538.97C1519.12 537.13 1520.46 532.24 1516.98 531.96L1518.97 528.99L1513.98 528.97C1513.73 525.37 1517.61 525.86 1519.99 525.97V521.98L1510.58 524.92L1506.99 520.95C1508.38 518.48 1511.56 519.53 1511.98 515.98C1507.4 518.24 1508.84 514.75 1504.99 514.96C1505.02 513.22 1507.62 513.73 1508.51 511.99C1509.16 510.73 1509.01 509.31 1508.98 507.97L1506 509.97L1508.06 506.39L1506.86 503.03L1502.22 502.76C1500.03 500.53 1503.91 496.1 1498.99 495.95L1500.99 492.49L1496.99 490.96L1504.98 483.47C1505.47 482.42 1500.92 483.97 1501.99 481.49C1503.06 479.01 1504.3 481 1505.24 481.2C1510.16 482.22 1512.29 482.78 1515.48 486.97C1516.42 481.9 1524.07 485.88 1524.97 483.47L1516.98 478.99C1522.28 478.51 1526.29 479.99 1530.46 482.98C1534.39 480.97 1528.53 472.38 1528.98 471.99H1534.97L1531.98 467.99L1534.98 468.48L1532.97 466.5L1535.54 462.92L1544.04 465.43C1545.08 472.66 1547.97 470.54 1551.95 472.54C1554.98 474.06 1554.63 478.06 1554.98 480.99L1562.97 481.97L1561.98 477.98L1564.96 478.98L1564.98 472.98L1568.96 474.98C1571.09 471.31 1560.66 468.25 1560.97 467.49C1561.59 465.85 1563.61 467.05 1563.8 466.78C1564.25 466.16 1563.94 464.6 1564.96 463.5C1565.33 463.1 1573.74 458.22 1574.29 458.26L1581.85 462.13L1580.97 466.98L1584.96 465.97L1585.03 469.93L1587.96 469.98L1584.95 474.46L1587.96 475.96L1583.97 477.96C1587.71 478.04 1593.17 475.84 1593.98 480.97C1596.13 480.8 1595.3 477.74 1596.59 476.87C1598.02 475.91 1601.34 476.5 1602.47 474.98C1603.57 473.51 1602.85 468.9 1605.63 468.07L1615.95 469.97L1616.47 465.96C1623.85 466.11 1628.1 473.07 1634.46 463.97L1639.94 468.47L1638.11 471.84C1641.68 475.27 1648.1 473.28 1646.95 479.97L1641.43 479.95C1639.06 485.66 1646.21 481.74 1648.95 484.98L1648.47 479.99L1653.44 482.98L1656.94 477.99C1655.64 482.17 1660.6 484.68 1660.96 485.5C1662.17 488.24 1655.9 484.64 1656.95 488.98L1661.52 489.88L1663.37 487.94L1667.94 490.49L1661.95 492.48C1662.99 494.68 1665.41 492.63 1665.95 492.99C1666.13 493.11 1665 495.76 1666.95 496.98C1664.25 496.54 1664.06 497.4 1662.94 499.51C1665.85 501.28 1665.96 505.25 1669.94 505.49L1663.95 506L1668.95 511.98C1665.75 511.69 1663.44 512.05 1661.45 509.01C1658.46 510.99 1661.45 514.05 1660.95 516.99H1655.95L1656.97 520.48L1653.95 521.01C1657.92 524.61 1657.77 528.47 1651.96 527L1652.07 530.39C1652.82 532.64 1656 531.98 1657.95 532.01L1654.94 535.53C1657.42 538.12 1655.54 540.31 1655.89 542.31C1656.5 545.82 1669.03 545.72 1657.96 540.52C1659.06 538.26 1663.63 538.72 1665.53 539.93C1669.27 533.67 1670.06 546.05 1676.95 544.02L1673.94 546.02C1676.46 548.79 1676.07 552.61 1674.94 556C1677.36 554.98 1678.03 557.87 1678.65 558.01C1680.18 558.34 1682.45 556.67 1684.96 558.5C1688.19 560.84 1681.64 559.47 1682.94 561.52L1686.93 566.53C1685.86 567.91 1682.85 564.9 1681.95 567.53C1680.75 571.05 1685.54 569.87 1684.93 573.01L1680.94 572.01V575.02L1671.03 573.11L1669.93 577.01L1672.92 577.04L1671.93 583.01L1667.57 579.09L1662.94 584.01L1666.37 582.98C1668.72 586.79 1675.64 587.06 1679.94 588.03L1670.94 589.02V593.02C1673.77 589.81 1677.23 593.27 1679.92 594.37C1681.42 594.99 1683.75 593.05 1683.97 597.01L1685.94 596.39L1686.89 592.45L1690.95 592.02L1688.96 594.51L1691.45 596.04L1697.94 590.02C1699.95 594.71 1696.49 596.64 1695.96 601.02C1699.96 601.72 1703.31 596.85 1706.38 596.99C1707.02 597.02 1706.5 598.92 1708.4 599.12C1711.66 599.47 1714.72 597.9 1717.95 598.03L1715.95 600.39C1716.96 602.48 1715.97 606.41 1718.94 606.03V607.01C1715.45 606 1714.43 609.07 1711.95 610.51L1715.94 612.02C1715.35 604.33 1722.24 613.27 1719.81 615.9L1716.37 616.96L1715.45 615.02C1711.6 618.9 1704.74 621.24 1702.81 614.11C1700.24 613.9 1698.57 615.52 1698.03 617.89C1701.54 618.72 1702.62 622.79 1702.99 625.99C1703.13 626.1 1705.83 626.1 1705.94 626.01C1708.11 624.26 1701.95 623.87 1703.95 622.02C1705.11 620.95 1707.39 624.41 1707.93 624.02C1708.81 618.69 1711.24 621.39 1714.15 620.82C1715.13 620.63 1716.08 619.19 1717.49 619.03C1719.67 618.78 1723.24 620.88 1725.96 620.01L1725.56 617.99L1722.96 617.01C1722.64 615.52 1724.57 615.78 1725.49 615.95C1728.61 616.54 1728.48 623.78 1733.95 622.03L1730.95 625.01C1734.57 625.39 1736.3 626.42 1739.42 623.96L1741.99 626.52L1738.96 631.5C1741.66 633.69 1745.54 633.09 1746.95 637.01L1742.96 636.01L1742.46 639.02C1740.14 636.84 1739.51 634.48 1735.96 636.04C1738.45 638.69 1741.96 640.03 1737.33 642.96L1732.97 638.04C1730.98 641.49 1734.02 642.73 1733.95 646.03H1728.95C1731.18 648.82 1726.32 647.32 1728.42 651.08C1729.5 653.01 1732.69 652.11 1731.95 655.03C1727.47 653.59 1720.76 655.99 1716.61 654.06C1715.42 653.51 1716.32 651.7 1715.81 651.22C1714.99 650.43 1712.63 651.95 1712.97 650.04L1716.96 648.04L1712.9 648.57L1711.41 645.96L1706.98 648.03C1706.19 646.89 1708.7 642.04 1704.97 643.04C1705.97 644.83 1704.66 646.79 1704.95 648.34C1705.02 648.73 1708.42 649.86 1706.97 653.04L1707.96 651.04H1709.95C1709.95 653.57 1712.93 654.42 1714.96 655.04L1712.98 657.01L1715.68 657.93L1719.48 655.05C1723.04 662.64 1726.21 655.18 1731.96 659.04L1729.97 660.52L1734.98 667.52L1727.98 664.04L1728.98 667.03L1725.95 667.55C1727.15 669.91 1726.13 672.35 1726.32 674.37C1726.42 675.44 1728.07 675.97 1727.6 678.05C1726.58 682.63 1723.41 679.36 1720.64 680.02C1719.94 680.18 1719.98 681.64 1719.69 681.81C1718.88 682.29 1717.3 680.67 1716.44 682.03C1715.58 683.39 1716.63 684.44 1716.44 685.54C1716.28 686.42 1715.25 687.14 1715.19 687.72C1715.06 688.98 1717.9 692.04 1715.96 695.05L1711.97 694.04V697.05L1707.47 695.01L1705.48 697.04L1704.96 694.06L1697.96 696.07C1699.8 700.82 1704.53 700.95 1703.96 706.05H1685.96L1685.98 706ZM1488.99 570.99L1491.83 571.14L1492.49 573.99C1497.04 571.77 1495.19 570.78 1496.14 567.64C1496.74 565.66 1499.84 566.92 1498.99 564L1488.99 565V570.98V570.99ZM1178.99 572C1180.76 573.69 1184.41 570.19 1184.72 570.07C1186.19 569.49 1188.72 570.61 1189.99 568.5C1188.12 567.69 1187.63 567.25 1187.99 565.01L1184 566.53L1182.98 564.02C1181.17 563.7 1182.44 565.77 1181.73 566.73C1181.28 567.34 1176.74 569.86 1178.99 572.01V572ZM1668.5 598.01L1669.49 601.02C1671.44 600.32 1677.72 601.3 1676.99 598L1673.97 597.5L1675.98 596.01L1670.99 597L1674.98 594.01C1672.23 592.05 1660.96 598.82 1662.99 600.99C1663.92 601.98 1667.06 597.68 1668.5 598.01ZM1671.83 604.19C1673.39 605.58 1670.35 604.97 1676.23 608.06C1677.27 608.61 1677.67 612.38 1680.97 608.49L1676.38 601.03L1668.99 603.01C1668.66 604.91 1670.97 603.42 1671.83 604.19ZM1687.98 610.99C1684.73 609.82 1681.38 609.5 1680.99 613.99L1685.33 612.9C1688.01 618.44 1691.24 618.48 1696.98 617.98C1695.51 615.47 1694.29 613.82 1695.98 611L1693.45 611.81L1692 609.49C1694.11 606.28 1696.15 612.67 1697.98 608L1689.46 605C1688.69 604.92 1689.21 606.59 1688.61 607.61C1688.14 608.42 1685.83 607.43 1687.97 610.98L1687.98 610.99ZM1730.99 628L1729.99 634L1734.97 635L1736.99 629L1734.47 627.98L1733.97 629.99L1730.99 628ZM1695 635.38L1692.99 636.99C1700.61 637.95 1704.94 629.23 1693.99 630.01L1695 635.38ZM1204.99 642L1209.5 637.01L1210.89 639.52L1215.98 641.01L1211.99 639L1214.98 636.02C1212.2 635.7 1209.76 634.25 1207.28 636.32C1206.1 637.31 1204.77 640.32 1204.99 642ZM1048.98 659.5L1047.97 661.51L1053.95 660.51L1050.98 655.43L1045.99 656.01L1048.98 659.5ZM1703.99 671.01C1704.86 674.51 1706.37 674.56 1709.84 673.85L1710.98 668C1708.52 667.71 1707.39 670.07 1706.9 671.93L1703.99 671.01ZM947.32 690.05L949.99 685.01L939.99 688.99L947.32 690.05Z" fill="#16043A"/>
<path d="M314.51 73.6006C314.97 70.3306 317.75 60.0606 317.28 58.4706C317.09 57.8406 311.11 53.4306 310.85 50.3006L307.24 53.1906L308.69 42.9906C313.84 41.8506 310.07 48.3106 313.78 50.2506L315.98 44.4506L319.6 48.8206L330.52 29.8906C330.86 38.1206 338.18 43.9906 346.4 40.2606L349.46 47.3706L339.29 43.0006C342.47 49.0506 337.9 49.2706 336.64 52.7806C335.58 55.7406 338.28 60.1006 333.46 59.0206C333.21 53.3006 334.43 47.6106 337.82 43.0106C330.81 40.7106 326.26 48.3306 325.04 54.2506C323.36 62.4006 326.79 71.7306 333.44 76.5106L332 61.9506C336.07 61.1006 334.85 63.4406 334.92 66.3106C345.87 64.7406 351.78 60.4606 351.66 48.8306C358.39 55.4006 350.72 63.0906 351.66 70.7106L348.02 72.1306L348.75 67.7806L340.73 77.9606C346.53 79.6106 349 81.3706 355.29 80.1506C348.35 81.8106 345.72 93.0006 343.05 95.4606C340.16 98.1206 332 99.9206 330.54 103.491C328.73 107.891 338.09 103.631 337.81 107.101C328.19 105.301 320.9 118.401 320.23 126.811C319.85 131.601 322.15 137.901 321.5 142.411C321.26 144.111 316.32 161.401 315.6 162.131C314.9 162.831 309.33 163.921 306.87 165.471C305.47 166.361 302.87 170.661 302.55 170.771C301.38 171.181 298.93 169.581 296.56 171.081C291.62 174.201 288.18 188.461 296.3 191.621L298.46 179.981C297 190.181 299.22 193.881 306.51 200.361L310.12 193.101C309.89 195.831 309.89 197.961 313.03 197.491C310.7 199.101 306.03 207.401 310.85 207.631C311.8 207.671 322.98 198.651 326.81 197.391C331.92 195.721 336.19 196.631 340.76 195.311C354.27 191.421 368.67 186.751 350.94 174.871L355.29 175.601C353.6 164.721 358.47 151.791 350.94 142.811L353.57 141.411L353.86 130.441L357.51 148.601C357.55 154.081 355.05 162.371 359.67 166.141L356.97 167.501C357.49 174.561 358.53 178.831 363.31 184.331L378.61 174.111C380.73 170.991 365.94 162.101 365.87 157.731C365.86 156.881 366.51 150.431 368.41 150.831C367.57 156.611 368.91 163.061 375.71 163.921C376.29 163.531 371.27 150.421 377.16 152.281L378.61 166.841C377.58 159.331 386.4 149.491 387.32 144.191C387.88 141.011 387.58 127.891 387.46 123.811C387.36 120.521 385.91 117.641 385.92 114.381L388.81 115.861C390.54 107.691 386.34 102.711 384.42 95.4406L381.55 96.9106V82.3406L382.99 88.8806L385.9 89.5806L386.64 87.0006L388.81 88.1606L391.73 77.9606C389.72 96.3406 393.45 114.681 391.76 133.321L401.59 107.481L400.5 91.0806L401.95 95.4706L404.84 93.9806L403.41 104.211L406.34 103.491L404.83 107.811L409.22 108.581C407.88 111.401 404.78 110.581 402.14 113.861C400.72 115.631 391.74 138.491 391.74 139.891V162.481C395.49 162.351 401.93 150.951 402.72 147.961C403.83 143.751 402.89 139.821 403.77 135.891C405.4 128.541 409.11 122.991 409.94 115.851L412.13 114.391L404.87 144.981C406.3 146.491 414.66 137.761 415.89 136.321C419.1 132.601 415.71 132.311 420.89 130.411C420.94 126.511 419.68 122.661 420.89 118.741C428.42 123.541 429.13 113.111 433.98 110.011C434.4 115.081 429.25 118.541 426.72 122.401L429.62 124.561C424.36 125.591 425.86 128.581 420.89 130.411C420.85 133.601 419.86 137.051 420.88 140.601L418.72 136.241C416.48 139.161 411.35 141.911 410.67 145.691C409.63 151.521 419.81 143.861 420.88 147.871C416.69 150.671 405.9 152.961 402.8 155.301C402.22 155.741 394.59 166.521 394.3 167.201C392.92 170.441 393.05 173.641 393.2 177.041C407.79 180.411 408.63 157.741 422.3 158.051L423.08 147.901L424.54 156.651C426.76 156.611 432.56 149.481 433.27 147.801C435 143.681 432.2 138.821 433.03 135.781C433.65 133.501 436.07 131.981 436.58 129.331C437.96 122.121 438.12 105.651 440.82 100.161C441.46 98.8606 455.56 87.8206 452.95 96.1006C451.38 101.071 444.31 94.5606 441.67 108.201C440.68 113.301 437.94 143.561 439.84 144.961C445.11 145.061 450.11 134.421 453.96 133.541C454.81 133.351 464.14 134.251 464.59 136.211C452.24 133.481 448.38 141.731 442.74 150.781L460.98 144.961L462.59 147.971L482.14 145.761C486.23 132.701 492.45 121.121 500.3 110.011L495.07 124.871L489.38 134.771C490.02 135.551 504.36 125.301 508.3 128.211C505.13 131.561 499.76 131.151 496.1 133.491C493.27 135.301 493.25 137.561 491.97 138.691C491.6 139.021 489.81 137.881 488.7 139.071C483.6 144.531 488.49 144.791 488.83 145.361C492.5 151.531 487.32 147.921 485.87 147.871C485.17 147.851 485.25 151.031 480.89 151.441C471.54 152.311 459.84 148.741 450.04 152.281L457.31 156.621L444.83 156.491L443.58 153.781C429.99 157.281 420.19 161.221 419.44 177.031C421 178.491 432.62 175.381 434.74 175.861C435.61 176.061 435.34 178.221 436.44 178.471C439.18 179.081 450.65 178.991 453.74 178.571C459.54 177.781 466.92 170.271 474.1 169.791L474.8 172.661L463.13 175.611L464.59 179.961C462.94 179.951 461.44 178.931 459.76 179.061C453.46 179.531 430.81 179.361 427.46 181.321C420.97 185.121 413.91 193.731 409.23 199.651L417.95 200.351C406.02 200.251 406.1 207.401 400.37 212.651C395.08 217.501 380.95 222.321 377.05 228.801C374.68 232.721 376.3 243.701 375.7 248.471C380.82 248.281 402.01 246.251 404.14 242.661L404.85 226.601L396.11 225.171L403.39 225.141C400.33 219.951 402.69 215.161 405.57 210.551L409.22 211.331C409.98 214.921 405.12 212.801 404.76 217.121C404.33 222.221 410.84 231.851 409.23 238.261C414.66 240.091 422.63 235.401 426.93 236.091C429.15 236.441 437.03 247.081 442.73 244.941C444.22 244.171 450.14 228.171 450.9 225.181C451.87 221.351 448.54 214.611 454.38 212.041C454.03 221.441 451.69 229.281 448.58 238.271C461.78 226.471 468.5 237.331 482.07 239.731L482.18 235.481C487.84 236.861 494.43 227.301 490.82 222.251C503.47 222.081 513.1 218.751 506.86 204.761L510.47 207.651C515.37 205.051 512.88 201.821 513.6 198.711C515 192.671 518.79 186.041 515.59 179.991L519.95 178.521C518.71 186.331 516.44 194.641 517.05 202.581C517.22 204.751 515.91 206.801 519.22 206.191L529.16 190.611L543.27 177.061C544.97 184.841 539.75 182.981 536.76 185.831C534.46 188.031 530.89 196.571 528.73 199.651C532.4 202.481 539.21 192.751 541.82 197.431L527.27 204.031C527.03 209.931 535.97 200.811 534.53 207.641L527.26 207.661L530.12 212.671L521.46 224.421C524.5 229.491 528.94 221.261 530.87 221.191L540.36 225.131C535.45 225.831 528.19 225.241 523.95 228.051C522.02 229.331 523.02 232.521 519.93 234.581C517.77 236.021 511.58 237.241 508.67 237.881C505.13 238.661 498.36 236.381 499.58 241.151C503.65 242.261 508.74 242.891 512.31 245.191C518.93 249.451 529.07 258.721 537.48 260.991C540.02 261.681 542.72 260.161 543.09 260.371C543.46 260.581 543.57 262.811 544.77 263.671C546.46 264.881 549.49 263.421 549.11 265.931C538.63 266.321 529.09 259.741 520.68 254.281L519.25 257.201C516.14 250.431 508.03 250.921 503.21 245.551L502.48 248.451C500.06 249.101 501.79 245.781 500.15 245.441C496.32 244.651 492.62 248.461 488.64 248.571C481.02 248.801 479.27 245.301 471.92 253.551L479.16 261.561C471.43 255.991 465.68 251.071 455.98 256.581C453.69 257.881 452.19 260.681 449.99 262.241C447.52 263.991 444.11 264.011 442.06 265.971C440.88 267.101 434.06 284.121 433.98 285.741C433.52 295.671 440.46 292.161 444.28 292.791C447.74 293.371 457.15 298.041 458.82 297.281C463.8 295.021 460.02 289.401 460.09 285.591C460.22 278.561 463.82 282.081 466.1 281.071C468.67 279.931 473.48 272.621 476.99 272.331C477.64 272.281 486.24 274.291 486.45 276.111C480.97 276.251 475.37 274.561 471.92 279.771C474.17 282.451 477.79 282.221 480.58 284.201C483 285.911 486.97 291.491 488.67 292.151C492.21 293.511 489.79 285.471 495.99 284.841C503.27 284.101 505.71 295.521 516.09 291.921C519.05 290.891 520.83 283.971 523.62 281.971C523.69 288.821 530.2 286.291 533.08 290.691L522.3 287.951L511.97 297.971C508.09 296.691 502.98 289.971 500.73 288.861C490.73 283.961 495.15 292.991 490.11 297.961C483.64 291.521 477.32 283.111 467 285.061C461.67 286.841 468.04 300.001 460.65 302.151C452.98 304.231 446.2 290.251 435.4 300.101C431.24 303.901 430.35 311.391 423.89 313.361C414.52 316.221 399.27 312.201 389.6 314.041C388.34 314.281 378.28 322.121 377.91 322.751C376.96 324.371 375.92 334.741 376.77 336.881C378.88 342.221 386.49 345.221 389.67 348.881C391.57 351.071 391.94 354.071 393.86 356.351C398 361.241 405.95 363.301 407.82 369.371C412.95 370.311 411.71 363.241 415.06 362.111L416.32 367.721C400.2 378.881 424.81 377.271 432.3 379.121C437.33 380.371 457.54 391.221 459.55 391.071C463.11 388.221 463.2 380.951 468.99 381.061C465.51 385.871 459.35 391.561 464.62 397.061C456.64 394.791 451.21 388.441 443.09 385.821C434.97 383.201 414.53 382.921 409.32 378.791C407.35 377.231 405.46 373.171 402.74 370.801C393.12 362.451 392.53 361.381 385.15 351.961C376.66 341.141 365.1 346.111 369.1 327.041C370.47 320.531 375.05 316.841 377.19 311.111C355.05 306.471 341.07 326.041 320.94 328.431C316.53 328.951 305.36 327.551 302.82 329.261C301.09 330.421 300.19 337.551 297.72 340.191C295.83 342.221 292.89 342.271 291.66 343.601C278.91 357.311 269.55 375.321 257.71 389.771C271.2 386.981 273.1 395.491 280.27 401.471C281.74 402.701 293.73 409.571 295.19 409.901C304.82 412.081 311.1 401.441 317.36 403.631C318.66 404.081 328.27 409.861 329.15 410.871C334.8 417.301 330.06 430.671 345.84 427.701C349.99 426.921 356.18 411.731 356.37 407.761C356.53 404.341 353.29 400.831 353.88 397.071C356.84 397.411 355.81 403.381 359.1 404.111C361.62 404.661 369.15 400.781 373.43 404.401C377.67 398.231 382.13 392.881 390.3 395.621C390.13 398.241 385.77 396.651 383.08 397.851C376.14 400.941 373.53 405.951 377.19 413.081C372.53 414.341 374.69 408.971 371.85 407.151C355.41 396.601 359.81 435.251 342.91 434.801C340.77 434.741 332.9 430.721 331.26 429.161C325.48 423.681 330.59 415.321 318.93 412.301C309.26 409.801 304.62 419.491 293.47 417.411C291.8 417.101 278.96 410.101 277.35 408.751C273.24 405.291 272.74 399.281 267.98 397.721C264.85 396.691 252.73 396.141 251.02 398.471L250.48 400.591C252.75 405.741 251.15 411.331 252.19 416.431C252.86 419.711 255.99 422.971 257.02 426.181C258.21 429.911 257.19 433.661 258.79 437.521C261.35 443.681 274.27 451.841 278.88 456.771C290.53 469.231 292.91 491.691 300.82 507.691C304.72 515.581 312.45 521.121 315.22 529.711C326.44 534.231 338.47 533.211 350.08 535.641C352.15 536.071 353.87 538.031 354.91 538.201C357.38 538.591 358.21 535.411 359.73 534.741C362.66 533.451 367.97 536.921 371.34 536.991L368.42 543.501L370.9 545.451L407.77 553.001C400.79 552.711 393.65 553.471 386.67 553.001C380.44 552.571 373.43 548.851 367.6 551.411L364.8 548.651L365.71 554.291L371.34 555.931C363.3 555.201 353.69 555.431 345.86 554.481C332.83 552.901 325.6 546.581 313.41 544.671C311.35 544.351 309.32 544.101 307.24 544.301C306.09 550.061 313.46 542.691 313.06 550.111L275.84 554.661C272.12 554.401 275.34 548.471 270.08 554.461L265.82 550.061L254.79 555.221L259.15 557.381C254.43 557.731 250.36 558.011 247.53 553.751L256.25 542.841C249.37 541.941 248.57 548.641 242.32 550.021C240.54 550.411 236.31 551.151 237.3 547.941L242.39 544.261C233.45 544.041 234.42 552.201 225.14 550.121C223.65 549.791 225.14 545.811 221.27 547.211L221.98 550.121L187.77 553.011L196.5 550.091C194.54 544.901 184.78 550.471 179.55 551.371C173.83 552.361 168.06 552.651 162.27 553.041L165.89 551.551V550.121C154.34 548.851 138.95 551.981 127.93 549.671C125.5 549.161 126.02 550.351 126.55 547.191H156.42C160.3 547.191 170.39 538.391 175.69 537.321C184.4 535.551 195.41 538.381 204.22 536.631C211.02 535.281 205.69 528.741 219.1 528.141C227.51 527.761 229.63 529.751 238.83 524.681C249.7 518.691 256.06 497.231 251.1 486.041C249.54 482.521 242.82 479.841 240.19 476.541C235.95 471.221 217.82 437.541 215.81 430.971C214.8 427.661 209.64 402.631 210.15 401.031C212.6 393.271 224.44 388.501 224.3 380.311C224.21 374.901 216.82 370.841 215.74 366.931C214.85 363.711 215.92 360.331 215.36 357.111C213.72 347.671 198.57 345.871 191.04 342.161C189.07 341.191 189.04 338.571 186.41 337.941C182.33 336.961 179.92 338.541 176.1 338.811L178.29 335.901L153.18 317.181C145.89 314.641 138.95 316.941 131.68 317.011C130.01 317.031 126.18 317.961 126.56 315.521C133.46 316.701 139.97 313.341 146.38 312.721C148.74 312.491 151.55 314.471 153.36 313.951C156.22 313.131 153.81 307.751 160.06 311.141C160.72 313.591 157.28 311.801 157.03 313.421C156.16 319.131 172 329.371 177 331.341C182.78 333.621 188.63 333.091 193.57 337.341C193.86 327.271 194.06 317.801 190.65 308.201C186.72 307.071 185.33 315.241 181.95 310.381L192.07 304.571C189.16 300.051 190.21 296.541 183.38 297.991L189.19 294.381C183.9 290.421 177.04 288.811 177.56 280.521C181.72 285.741 183 289.591 189.95 292.171L192.11 289.271L192.13 295.101C195.94 296.301 198.99 291.221 201.59 291.201C204.77 291.181 207.57 296.351 210.72 297.631C213.11 298.601 225.4 301.021 225.61 297.291C221.8 292.771 221.99 285.981 223.45 280.531C227.31 283.561 223.35 286.891 224.45 291.071C225.09 293.511 228.34 295.271 228.53 298.801C228.65 301.111 226.32 305.471 227.19 306.631C227.83 307.491 236.9 309.631 239.14 314.381C242.09 320.631 238.15 327.181 237.72 333.501L251.86 353.381C256.54 340.441 270.25 330.841 278.83 319.831C281.36 314.341 272.28 290.851 267.86 287.121C261.13 281.431 238.11 283.041 226.35 273.261C222.64 270.181 221.34 265.261 218.28 262.361C216.73 260.891 213.17 260.541 212.76 259.901C207.87 252.281 225.85 237.931 212.58 224.371C211.34 223.101 202.49 216.981 201.22 216.671C194.34 215.011 192.12 222.441 182.65 214.941C174.1 208.161 177.13 202.511 174.62 193.101C168.85 198.121 163.37 192.321 157.16 196.011C161.51 191.321 145.23 179.951 143.33 179.961C141.06 179.971 137.62 184.461 133.84 182.881L138.23 181.431L136.74 178.541L142.57 177.091C130.94 171.051 117.52 169.281 104.7 166.861C105.28 162.771 113.15 167.241 113.42 166.871L114.88 161.051L117.8 167.611L145.48 173.441C141.04 162.771 126.22 152.871 114.9 152.281L117.8 150.121C113.31 146.211 107.72 143.701 103.08 140.031C101.56 138.821 99.4098 140.081 100.34 136.271L109.07 140.631L107.63 134.821L109.79 137.721L116.35 133.371C104.61 144.101 115.43 144.261 122.93 150.831L126.54 147.931C124.31 153.111 139.23 161.441 141.12 159.591L141.85 146.481C147.16 149.361 141.12 160.791 142.69 162.441C142.97 162.741 145.36 162.101 146.45 162.931C151.53 166.831 161.32 179.871 166.66 181.431C169.92 182.381 168.58 180.151 168.26 178.371C166.52 168.671 158.92 160.491 161.55 150.131C162.1 147.961 160.5 147.551 164.43 147.931L165.75 154.611L162.92 157.311C164.5 164.511 170.7 171.541 168.81 178.541C180.5 175.621 176.15 184.091 184.08 187.281C189.62 182.311 182.96 174.301 179.01 170.521L181.93 169.101L179.01 163.981L183.4 169.791L189.2 165.421C190.48 166.951 183.04 172.001 188.51 177.101C191.58 179.961 196.47 176.281 192.11 185.801L196.52 185.821L195.63 190.191C206.32 197.871 216.28 203.321 230 203.291L225.3 190.521L206.7 188.711C206.36 186.171 210.01 187.341 211.78 187.271C215.9 187.101 220.07 187.401 224.18 187.261C223.51 182.771 216.86 179.401 215.89 176.131C214.81 172.511 216.35 163.611 216.89 159.591L211.07 161.031L213.98 157.391L208.16 156.651L213.98 155.201C211.93 150.391 212.99 145.981 208.9 142.061C203.58 136.971 202.76 141.791 198.64 142.781C196.59 143.271 182.94 142.431 181.38 141.911C180.17 141.511 177.07 135.831 176.85 134.751C176.47 132.921 180.91 130.211 176.05 128.231C174.19 127.471 172.23 129.041 170.33 128.261C168.88 127.661 167.49 125.101 165.51 124.221C160.04 121.771 156.3 124.481 151.33 126.061L152.8 121.741L136.77 118.771L141.12 115.891L135.31 112.221C140.98 111.741 146.06 117.241 151.35 119.571C152.67 120.151 154.61 118.831 155.41 119.251C155.73 119.421 155.68 121.661 156.56 121.791C159.64 122.261 167.28 117.071 171.31 116.901L180.47 101.311C179.81 100.751 165.92 100.341 163.32 99.3206C163.03 99.2106 158.98 95.4806 160.09 94.0206C161.45 92.8206 167.64 97.7906 169.93 98.1806C172.73 98.6506 174.14 97.1506 175.48 97.0906C175.87 97.0706 176.69 101.651 180.48 99.8406C182.6 92.7506 176.12 89.8506 174.63 87.1006C172.61 83.3406 168.87 76.4806 167.39 72.8606C167.12 72.1906 167.01 70.4806 168.09 70.7106L171.73 73.6206C172.41 67.1806 171.71 55.6406 173.17 49.7906C173.54 48.3106 177.59 49.7306 176.1 45.9306L173.21 47.4106V37.2006C176.06 37.6306 175.33 42.4206 176.88 44.5806C177.79 45.8506 179.62 44.5806 180.15 44.9706C181.21 45.7706 181.01 47.6806 184.02 49.0506C189 51.3106 194.41 49.7606 197.96 45.9306L195.09 51.0306C197.31 54.6006 202.77 50.0106 202.34 56.1206C201.28 57.0606 190.73 52.2606 188.46 51.8506C186.89 51.5706 184.87 52.8606 182.87 52.7206C181.53 52.6206 178.31 48.7806 175.99 52.7206C174.97 54.4506 173.64 63.0606 173.97 65.1206C174.6 69.0406 181.13 68.7106 180.48 73.6206L174.68 72.1606C171.87 80.1406 174.63 86.8506 183.41 88.1906C180.92 81.3306 187.64 75.5806 188.46 70.8906C188.98 67.9406 185.91 60.8306 190.69 59.0606C193.53 67.8006 189.62 70.5006 187.66 77.2806C186.69 80.6306 187.92 83.9106 184.89 86.0206L187.79 88.1906C179.37 89.2606 190.4 94.2006 194.65 92.9506C199.1 91.6406 205.28 84.1206 206.43 79.8906C207.72 75.1706 205.38 64.5406 205.29 59.0706L212.56 63.4706C210.32 65.8206 208.16 70.4106 212.54 72.1806L214 66.3706C217.94 71.9606 209.74 76.0606 209.67 77.2906C209.47 81.3406 217.17 76.0206 216.92 79.4606L209.66 83.1406L212.55 86.7506C206.2 87.9206 194.53 95.6006 196.78 103.221C199.01 108.621 204.83 107.111 209.64 107.181C210.37 109.331 203.97 108.261 206.74 111.511C206.9 111.701 209.7 112.101 211.14 113.621C216.47 119.211 214.73 117.291 219.33 119.991C229.22 125.791 233.76 126.581 233.58 140.021C233.48 147.641 225.28 155.031 228.43 161.911L225.58 163.421C226.86 166.921 226.54 171.051 227.53 174.541C229.85 182.731 238.07 192.781 244.62 197.521C243.5 197.481 241.65 197.011 241.69 198.261L244.62 203.331C233.03 205.131 242.01 208.311 245.41 212.021C249.14 216.091 251.77 221.751 256.26 225.201L254.67 204.341C251.9 201.161 248.22 200.111 244.62 197.511C249.11 197.671 250.83 199.871 254.81 200.421C255.73 199.481 247.56 175.371 241.72 181.481C240.87 177.681 242.75 179.311 244.72 177.681L241.7 166.921C246.48 165.941 244.19 171.271 246.4 173.851C247.83 175.521 250.83 175.881 251.88 173.441C251.24 168.301 246.51 158.801 251.88 155.261C250.26 160.231 253.76 164.211 254.38 167.831C255.08 171.941 251.18 178.061 259.17 181.491V171.301C263.06 180.041 260.98 187.071 266.19 195.611C269.39 200.861 274.4 204.631 279.57 207.711C281.37 196.491 275.09 162.981 266.59 155.851C264.47 154.071 261.73 154.221 260.91 153.571C260.51 153.251 260.12 147.031 256.27 145.071L269.37 155.261L263.56 134.871C267.69 134.121 265.95 135.861 266.84 138.061C268.65 142.571 270.17 147.501 270.86 152.331L278.12 142.141C277.69 147.701 272.28 151.721 272.24 157.421C272.21 161.651 276.03 172.201 278.87 175.651C278.19 166.211 291.52 168.091 289.81 158.181L291.26 162.551C301.07 158.801 299.78 146.461 297.07 137.781L294.19 146.511C291.65 138.161 297.01 131.441 298.21 125.051C299.5 118.141 297.67 115.311 300.35 108.521C302.87 102.131 300.88 100.311 296.49 105.851L289.82 121.751C290.6 118.731 292.43 106.011 293.57 104.241C294.71 102.471 304.05 98.5406 295.67 99.0106C295.58 97.0206 294.98 95.4206 293.55 93.9806C290.53 90.9506 283.51 90.4106 281.08 86.8006L292.72 89.7106L294.17 85.3306L294.43 92.3606L298.53 94.0706L299.84 87.8006C299.1 84.8506 295.45 84.7206 294.57 83.5906C294.25 83.1806 295.17 81.2606 294.49 80.0106C291.18 73.9506 287.14 69.2706 289.83 62.0206L296.38 78.0306L300 69.3006C298.59 74.0706 295.53 87.1606 302.91 83.8606L308.03 95.5206C309.93 90.2606 310.25 80.5306 312.27 75.7506C312.97 74.0806 314.48 73.8906 314.58 73.6706C314.29 75.7106 315.87 77.8506 315.83 78.8106C315.8 79.6806 305.6 87.5906 318.94 91.1406C321.55 86.1406 318.39 85.3606 317.51 80.9506C321.11 84.2706 324.71 82.8506 329.25 83.1906C333.33 74.0806 327.25 77.2606 325.01 74.9306C324.47 74.3706 323.96 62.3606 319.68 60.5606C319.45 65.7906 316.45 69.7006 314.59 73.6706L314.51 73.6006ZM340.74 93.9906C341.94 92.2306 337.21 83.5206 334.42 83.9406L324.86 90.5806L326.18 101.291C330.47 95.4006 333.75 95.1206 340.73 93.9906H340.74ZM323.25 92.5506C322.18 91.1306 316.23 97.5706 315.95 98.0106C314.96 99.6306 312.07 105.991 313.07 107.111C316.77 104.811 319.41 106.161 323.25 107.111V92.5506ZM179.01 115.851C184.11 117.491 187.83 114.411 191.39 113.661C193.71 113.181 198.8 116.621 199.39 110.781C194.55 107.741 191.62 108.021 191.39 101.301L186.39 106.591L190.66 112.931L181.94 108.581L179.01 115.851ZM321.79 108.581C314.31 107.221 312.47 113.721 308.69 118.101C307.41 119.581 304.79 119.981 304.46 120.451C301.97 123.901 309.64 132.531 313.81 133.331L315.39 122.991L321.79 108.591V108.581ZM209.5 116.031L198.06 117.431L199.4 131.901C207.94 132.681 204.32 122.251 213.96 123.131C214.86 122.011 210.75 120.761 209.97 119.761C209.19 118.761 209.85 116.371 209.49 116.031H209.5ZM196.49 117.311C191.43 117.581 186.22 116.951 181.16 117.311C179.6 117.421 176.28 116.521 177.55 119.481C178.49 121.671 184.06 124.671 183.38 128.971C187.87 123.271 192.63 133.321 197.56 126.851L196.49 117.311ZM219.78 155.191C221.97 148.571 227.6 135.441 220.63 130.331C214 125.461 204.19 136.351 214.01 140.241L219.78 155.191ZM197.93 130.431H184.83C180.72 135.781 199.79 141.651 197.93 130.431ZM315.84 134.921L302.87 130.431C305.34 141.361 309.29 148.401 304.33 159.551C312.68 161.661 317.35 136.641 315.85 134.911L315.84 134.921ZM385.93 150.841C386 153.341 376.45 172.451 382.26 172.651C388.83 172.881 387.54 160.031 387.37 155.911C387.3 154.141 388.48 150.491 385.93 150.841ZM416.3 176.851L417.95 165.401L409.23 176.341L416.3 176.851ZM415.05 178.521C412.73 178.901 408.23 177.691 406.54 178.751C405.31 179.521 394.01 202.001 393.8 204.711C393.31 210.931 396.34 209.671 399.64 206.091C402.35 203.161 418.14 181.131 415.05 178.531V178.521ZM369.36 200.861C371.35 205.061 372.36 212.241 377.21 214.281C389.13 219.291 396.87 176.371 376.79 181.761C369.54 183.711 362.97 190.831 366.55 198.541C367.38 200.321 369.2 200.531 369.35 200.861H369.36ZM275.16 207.681C263.66 204.301 263.63 191.441 256.24 184.351C257.16 196.851 254.51 205.631 268.96 208.771C270.4 209.081 275.43 210.391 275.15 207.681H275.16ZM186.3 201.831C193.9 198.411 188.77 192.991 187.72 187.261L183.25 189.691L186.3 201.831ZM187.75 204.731C199.51 207.061 214.44 220.511 222.69 206.931C218.12 202.301 211.38 204.101 205.62 202.171C201.05 200.641 197.55 194.971 194.32 194.521L187.75 204.731ZM285.35 196.031L282.45 196.741L284.23 211.731L298.48 219.311C300.28 207.941 290.17 203.541 285.35 196.031ZM311.6 228.061H339.29V229.521H312.33C309.35 231.021 310.92 237.591 311.99 240.071C316 249.311 327.57 250.211 336.37 249.931C338.93 254.561 323.52 263.581 326.18 265.941L344.24 264.651C346.28 250.601 351.23 255.081 360.12 252.531C365.87 250.881 365.14 233.561 365.53 228.051L358.22 227.331L368.44 224.381C361.43 215.051 370.19 207.381 356.33 201.461C354.39 200.631 352.7 201.941 351.88 201.731C350.65 201.421 351.49 198.801 348.84 198.771C345.87 198.751 330.66 203.581 327.22 205.071C317.73 209.161 305.59 216.391 311.59 228.061H311.6ZM279.49 212.081L259.15 207.661C257.56 209.451 262.82 242.251 264.82 246.451C267.42 251.931 270.24 254.231 271.81 262.501C272.09 263.991 270.64 266.081 271.04 267.851C271.58 270.261 279.38 274.871 281.53 274.461C283.17 274.151 291.85 264.751 292.96 262.601C294.18 260.231 299.37 240.521 298.49 239.731C288.16 241.531 287.22 236.461 281.4 230.631L279.49 212.091V212.081ZM241.18 213.981C240.55 213.421 237.58 211.821 237.31 212.031C235.76 220.101 228.76 228.101 237.37 234.531C241.61 235.691 253.72 247.951 256.91 246.991C266.5 244.101 244.94 217.351 241.18 213.981ZM495.28 235.261C509.77 234.391 521.23 233.441 520.75 216.321C514.43 211.171 515.91 215.341 512.67 218.641C509.95 221.411 506.85 220.121 508.3 226.601C504.04 224.051 499.98 226.181 495.47 226.861L495.29 235.261H495.28ZM298.48 233.881C298.95 224.491 290.95 220.451 283.93 216.401C283.76 226.371 287.64 233.871 298.48 233.881ZM263.51 267.391C264.06 249.561 259.18 255.821 249.86 251.181C244.67 248.601 244.37 243.601 241.57 240.531C239.76 238.541 235.17 236.121 232.94 233.881C225.17 262.161 239.65 265.211 263.52 267.391H263.51ZM474.8 244.101C468.52 242.421 463.87 237.931 456.78 239.901L452.96 252.821C460.02 248.111 470.39 252.691 474.8 244.101ZM429.5 296.421C430.34 295.071 425.43 289.291 425.9 285.581L439.65 252.241C429.17 245.091 424.28 240.411 411.75 245.871C396.74 252.411 398.54 250.681 382.66 253.211C370.76 255.101 371.5 262.721 364.06 270.301C373.06 270.451 382.91 276.031 391.37 277.251C396.14 277.941 400.84 277.421 405.61 277.601C407.37 277.671 411.03 276.511 410.69 279.041C392.25 282.051 377.37 273.061 359.7 271.781L369.94 284.211C369.27 289.121 367.38 294.141 362.3 295.631C356.97 297.191 356.56 293.881 352.7 292.591C341.15 288.741 345.84 290.211 337.82 284.171C330.58 278.721 310.04 285.231 300.78 277.511C291.54 287.281 299.55 288.631 301.06 297.621C301.8 302.001 300.43 311.541 302.1 314.061C304.77 318.101 308.33 312.891 309.45 312.881C310.64 312.871 311.98 316.601 315.13 316.821C331.95 317.981 346.78 296.511 373.37 299.611C388.12 301.331 395.26 305.061 412.86 305.291C414.88 305.321 417.09 306.701 418.81 306.621C423.47 306.401 424.75 300.561 426.73 297.571C427.5 296.411 429.42 296.571 429.51 296.421H429.5ZM323.25 254.301L314.57 252.921C315.57 257.611 311.96 257.041 310.14 260.101C316.35 260.731 321.87 262.451 323.25 254.301ZM345.54 282.991C347.93 284.921 358.82 288.481 359.69 284.131L352.96 275.041L342.21 276.161C341.37 276.861 344.69 282.311 345.54 283.001V282.991ZM205.23 300.901L203.77 295.751L196.5 296.561C200.69 305.031 197.5 302.611 195.8 306.771C193.12 313.321 197.67 318.031 197.84 323.631C197.99 328.451 194.8 333.461 197.95 339.181L218.34 347.541C222.22 344.601 212.54 318.271 234.37 331.511C235.44 327.191 237.07 320.701 235.6 316.451C234.38 312.931 226.28 310.711 224.26 308.861C222.5 307.241 222.82 304.331 221.26 303.111C218.45 300.911 209.02 300.921 205.24 300.901H205.23ZM238.22 363.091L239.94 358.691L232.2 347.551C224 355.801 228.54 360.371 231.48 369.401L238.22 363.101V363.091ZM184.82 541.351C182.36 539.251 169.12 547.031 167.34 550.071L181.92 545.151L184.82 541.351ZM362.59 551.561C351.24 549.721 340.31 540.101 329.1 542.821C330.65 545.171 336.64 546.991 339.35 547.841C344.41 549.441 351.29 551.431 356.39 552.661C357.83 553.001 362.85 554.301 362.59 551.571V551.561Z" fill="#16043A"/>
<path d="M369.9 117.311L372.78 111.501C372.7 116.441 372.02 121.531 375.72 125.361L373 126.711L372.77 134.801C369.44 134.061 371.38 124.411 370.92 123.441C370.78 123.141 368.86 122.971 368.46 122.111C367.44 119.911 360.67 108.791 366.8 112.761L368.39 110.051L369.88 117.321L369.9 117.311Z" fill="#16043A"/>
<path d="M123.89 118.399C126.68 120.149 133.74 116.669 135.28 120.219L126.85 120.559C123.72 125.069 121.86 130.459 125.06 135.569L122.18 136.269V115.879C124.56 115.249 123.1 117.909 123.89 118.409V118.399Z" fill="#16043A"/>
<defs>
<linearGradient id="paint0_linear_65_4" x1="935.04" y1="1006.57" x2="964.16" y2="-589.59" gradientUnits="userSpaceOnUse">
<stop offset="0.15" stop-color="#F2F2F2"/>
<stop offset="0.51" stop-color="#16043A" stop-opacity="0"/>
</linearGradient>
</defs>
</svg>
