<svg width="690" height="190" viewBox="0 0 690 190" fill="none" xmlns="http://www.w3.org/2000/svg">
<path opacity="0.45" d="M658.51 59H31.49C14.0985 59 0 73.0985 0 90.49V158.51C0 175.901 14.0985 190 31.49 190H658.51C675.901 190 690 175.901 690 158.51V90.49C690 73.0985 675.901 59 658.51 59Z" fill="#EAEAEA"/>
<path d="M288.21 177.94C282.76 177.94 280.44 175.52 280.44 169.85V135.03C280.44 131.83 278.51 129.84 275.41 129.84C272.31 129.84 270.38 131.78 270.38 135.03V169.85C270.38 175.52 268.05 177.94 262.61 177.94H243.59V70.2695H262.61C268.06 70.2695 270.38 72.6895 270.38 78.3595V118.18C270.38 119.25 270.74 122.74 275.41 122.74C280.08 122.74 280.44 119.25 280.44 118.18V78.3595C280.44 72.6895 282.77 70.2695 288.21 70.2695H307.23V177.94H288.21Z" fill="white"/>
<path d="M354.76 177.94V136.4H344.7V177.94H317.91V78.3498C317.91 72.6798 320.24 70.2598 325.68 70.2598H373.62C379.18 70.2598 381.55 72.6798 381.55 78.3498V177.94H354.76ZM349.73 92.9998C346.77 92.9998 344.7 95.1298 344.7 98.1898V124.92H354.76V98.1898C354.76 95.1398 352.69 92.9998 349.73 92.9998Z" fill="white"/>
<path d="M400.31 177.94C394.64 177.94 392.22 175.57 392.22 170.01V141.63H419.01V150.18C419.01 153.23 421.08 155.37 424.04 155.37C427 155.37 429.07 153.14 429.07 150.18V132.19H399.99C394.54 132.19 392.22 129.77 392.22 124.1V78.3498C392.22 72.6798 394.55 70.2598 399.99 70.2598H448.08C453.53 70.2598 455.85 72.6798 455.85 78.3498V99.5497H429.06V98.1797C429.06 95.1297 426.99 92.9897 424.03 92.9897C421.07 92.9897 419 95.1197 419 98.1797V109.61H448.08C453.53 109.61 455.85 112.03 455.85 117.7V169.85C455.85 175.52 453.48 177.94 447.92 177.94H400.3H400.31Z" fill="white"/>
<path d="M511.17 177.94C505.72 177.94 503.4 175.52 503.4 169.85V135.03C503.4 131.83 501.47 129.84 498.37 129.84C495.27 129.84 493.34 131.78 493.34 135.03V169.85C493.34 175.52 491.01 177.94 485.57 177.94H466.55V70.2695H485.57C491.02 70.2695 493.34 72.6895 493.34 78.3595V118.18C493.34 119.25 493.7 122.74 498.37 122.74C503.04 122.74 503.4 119.25 503.4 118.18V78.3595C503.4 72.6895 505.73 70.2695 511.17 70.2695H530.19V177.94H511.17Z" fill="white"/>
<path d="M204.45 100.17L213.79 116.41L209.7 123.64L200.37 107.41L190.28 125.27L185.72 117.33L195.8 99.4505L179.71 71.4805H187.96L199.88 92.2205L211.59 71.4805H220.65L204.45 100.17Z" fill="white" stroke="white" stroke-miterlimit="10"/>
<path d="M181.73 140.421L168.88 163.191V147.151L177.17 132.471L181.63 140.231L181.73 140.421Z" fill="white" stroke="white" stroke-miterlimit="10"/>
<path d="M195.64 164.59L188.37 177.48H179.31L191.07 156.65L195.53 164.41L195.64 164.59Z" fill="white" stroke="white" stroke-miterlimit="10"/>
<path d="M220.3 177.481H212.05L204.56 164.461L208.65 157.221L220.3 177.481Z" fill="white" stroke="white" stroke-miterlimit="10"/>
<path d="M231.88 147.869V162.219L218.73 139.349L222.82 132.109L231.88 147.869Z" fill="white" stroke="white" stroke-miterlimit="10"/>
<path d="M231.88 84.3398V100.39L218.35 124.35L214.27 131.59L204.19 149.46L200.1 156.69L199.99 156.5L195.53 148.74L186.2 132.51L181.63 124.56L168.88 102.39V88.0498L185.72 117.33L190.28 125.27L199.61 141.5L209.7 123.64L213.79 116.41L231.88 84.3398Z" fill="white" stroke="white" stroke-miterlimit="10"/>
<path d="M191.07 156.65L179.31 177.48" stroke="white" stroke-miterlimit="10"/>
<path d="M180.245 11.6512C182.148 11.6512 184.066 12.0837 185.997 12.9487L185.608 15.0247L185.176 15.1544C184.368 14.6354 183.503 14.2462 182.581 13.9867C181.687 13.6984 180.822 13.5542 179.986 13.5542C178.775 13.5542 177.708 13.8137 176.785 14.3327C175.891 14.8229 175.199 15.4716 174.709 16.2789C174.248 17.0863 174.017 17.908 174.017 18.7442C174.017 19.638 174.277 20.4165 174.796 21.0797C175.315 21.7429 175.949 22.3195 176.699 22.8097C177.477 23.271 178.515 23.8044 179.813 24.4099C181.341 25.1596 182.566 25.8372 183.489 26.4427C184.44 27.0194 185.248 27.7834 185.911 28.7349C186.574 29.6576 186.906 30.7821 186.906 32.1084C186.906 33.4636 186.531 34.7323 185.781 35.9144C185.06 37.0678 184.022 37.9904 182.667 38.6824C181.341 39.3456 179.841 39.6772 178.169 39.6772C176.987 39.6772 175.776 39.5186 174.536 39.2014C173.296 38.8554 172.172 38.3653 171.163 37.7309L171.422 35.4387L171.725 35.3089C172.676 36.1451 173.743 36.7794 174.925 37.2119C176.108 37.6156 177.246 37.8174 178.342 37.8174C179.611 37.8174 180.721 37.5579 181.672 37.0389C182.624 36.5199 183.359 35.8424 183.878 35.0062C184.397 34.17 184.657 33.2906 184.657 32.3679C184.657 31.4164 184.383 30.5947 183.835 29.9027C183.316 29.1819 182.667 28.5908 181.889 28.1294C181.139 27.6681 180.087 27.1059 178.731 26.4427C177.232 25.7219 176.021 25.0731 175.098 24.4964C174.176 23.9198 173.397 23.1701 172.763 22.2474C172.129 21.3248 171.811 20.2147 171.811 18.9172C171.811 17.5909 172.157 16.3799 172.849 15.2842C173.57 14.1597 174.565 13.2803 175.834 12.6459C177.131 11.9828 178.602 11.6512 180.245 11.6512ZM208.072 12.0837L207.856 13.8137L203.228 13.6839H199.855L199.725 30.9407L199.812 39.4609H197.563L197.692 31.0704L197.563 13.6839H194.189L189.475 13.8137L189.302 13.5542L189.518 11.8242H207.856L208.072 12.0837ZM232.439 25.9237V29.2539C232.497 32.5698 231.647 35.1359 229.888 36.9524C228.129 38.7689 225.62 39.6772 222.362 39.6772C219.191 39.6772 216.754 38.7978 215.053 37.0389C213.381 35.2801 212.559 32.7428 212.588 29.4269V11.8242H214.793L214.707 29.2107C214.678 31.9787 215.327 34.0835 216.653 35.5252C217.98 36.9669 219.926 37.6877 222.492 37.6877C225.058 37.6877 227.004 36.9813 228.331 35.5684C229.686 34.1556 230.349 32.1084 230.32 29.4269L230.234 11.8242H232.483L232.439 25.9237ZM249.659 11.6512C253.58 11.6512 256.579 12.7757 258.655 15.0247C260.76 17.2737 261.812 20.503 261.812 24.7127C261.812 29.5279 260.702 33.2329 258.482 35.8279C256.262 38.3941 253.076 39.6772 248.924 39.6772C247.857 39.6772 246.487 39.6484 244.815 39.5907C243.172 39.5619 241.658 39.5186 240.274 39.4609L240.404 31.0704L240.274 11.8242L249.659 11.6512ZM249.227 37.7742C252.542 37.7742 255.08 36.6929 256.839 34.5304C258.626 32.3679 259.52 29.2251 259.52 25.1019C259.52 21.2959 258.669 18.427 256.968 16.4952C255.267 14.5345 252.787 13.5542 249.529 13.5542C248.722 13.5542 247.641 13.583 246.286 13.6407C244.93 13.6695 243.691 13.7128 242.566 13.7704L242.436 30.9407L242.523 37.5147C243.705 37.5724 244.916 37.63 246.156 37.6877C247.424 37.7454 248.448 37.7742 249.227 37.7742ZM270.186 30.9407L270.272 39.4609H268.023L268.153 31.0704L268.023 11.8242H270.315L270.186 30.9407ZM287.76 11.5647C291.48 11.5647 294.334 12.7469 296.324 15.1112C298.313 17.4467 299.308 20.7914 299.308 25.1452C299.308 29.845 298.256 33.4492 296.151 35.9577C294.046 38.4662 291.047 39.7204 287.155 39.7204C283.493 39.7204 280.667 38.5239 278.678 36.1307C276.688 33.7087 275.693 30.2631 275.693 25.7939C275.693 21.2383 276.731 17.735 278.807 15.2842C280.912 12.8045 283.897 11.5647 287.76 11.5647ZM287.63 13.4677C284.459 13.4677 282.051 14.4913 280.408 16.5384C278.764 18.5856 277.942 21.5987 277.942 25.5777C277.942 29.6432 278.735 32.7139 280.321 34.7899C281.907 36.8659 284.243 37.9039 287.328 37.9039C290.499 37.9039 292.907 36.8515 294.55 34.7467C296.194 32.6419 297.016 29.5567 297.016 25.4912C297.016 21.5122 296.223 18.5135 294.637 16.4952C293.051 14.4769 290.716 13.4677 287.63 13.4677Z" fill="white"/>
</svg>
